<svg width="407" height="419" viewBox="0 0 407 419" fill="none" xmlns="http://www.w3.org/2000/svg">
<path d="M203.5 12C155.321 57.5216 91.1589 82.489 24.7242 81.5664C16.2734 107.182 11.9782 133.974 12.0001 160.935C12.0001 279.32 93.3663 378.78 203.5 407C313.634 378.801 395 279.342 395 160.956C395 133.223 390.532 106.526 382.276 81.5452H379.042C311.038 81.5452 249.247 55.1244 203.5 12Z" fill="white" stroke="#3C38B4" stroke-width="24" stroke-linecap="round" stroke-linejoin="round"/>
<path fill-rule="evenodd" clip-rule="evenodd" d="M70.8427 120.801C120.422 120.179 168.092 101.417 205 68C241.905 101.423 289.576 120.191 339.157 120.818C341.041 132.053 342 143.633 342 155.403C342 245.709 284.802 322.534 205 351C125.198 322.517 68 245.692 68 155.385C68 143.598 68.9761 132.053 70.8427 120.801Z" fill="#3C38B4"/>
<path fill-rule="evenodd" clip-rule="evenodd" d="M128.598 159.666C156.463 159.316 183.256 148.775 204 130C224.742 148.778 251.535 159.323 279.402 159.675C280.461 165.987 281 172.493 281 179.106C281 229.844 248.852 273.007 204 289C159.148 272.997 127 229.834 127 179.096C127 172.474 127.549 165.987 128.598 159.666Z" fill="url(#paint0_linear_47_48)"/>
<defs>
<linearGradient id="paint0_linear_47_48" x1="204" y1="130" x2="204" y2="289" gradientUnits="userSpaceOnUse">
<stop stop-color="#FB1EBD"/>
<stop offset="1" stop-color="#FB1EBD" stop-opacity="0.34"/>
</linearGradient>
</defs>
</svg>
