<?xml version="1.0" encoding="utf-8"?>
<!-- Generator: Adobe Illustrator 23.0.4, SVG Export Plug-In . SVG Version: 6.00 Build 0)  -->
<svg version="1.1" id="Layer_1" xmlns="http://www.w3.org/2000/svg" xmlns:xlink="http://www.w3.org/1999/xlink" x="0px" y="0px"
	 viewBox="0 0 987.2 614.5" style="enable-background:new 0 0 987.2 614.5;" xml:space="preserve">
<style type="text/css">
	.st0{fill:#1795D4;}
	.st1{fill:#FFFFFF;}
	.st2{fill:#DFF9FF;}
	.st3{fill:#FED800;}
</style>
<rect class="st0" width="987.2" height="614.5"/>
<g>
	<path class="st1" d="M838.4,265c-5.5-2.9-11.7-4.5-17.9-4.6c-2.3-0.1-4.6,0.3-6.7,1.1c-2.1,0.8-3.5,2.8-3.4,5.1
		c0,4.2,4.2,6.6,9.8,8.9l6.5,2.5c11.6,4.6,17,10.9,17,22.2c0,18-13.2,25.1-29,25.1c-7.4-0.1-14.7-1.4-21.7-3.7l0.8-17.6
		c5.7,2.8,13.9,4.7,19.1,4.7c8.3,0,11.6-2.1,11.6-6.8c0-4.5-3-6.5-9.6-9.1l-6.5-2.5c-9.4-3.7-17.3-10.3-17.3-23.3
		s9.4-23.4,28.3-23.4c6.8,0.1,13.6,1.4,19.9,3.9L838.4,265z"/>
</g>
<title>Equal_Experts_Logo_RGB_Sponsorship_White_Blue</title>
<g>
	<g>
		<g>
			<path class="st1" d="M481,181c0,16.1,3.5,24.3,13.3,24.3s13.4-8.2,13.4-24.3s-3.6-24.3-13.4-24.3S481,165,481,181 M461.8,180.7
				c0-24.4,8.6-40.6,32.5-40.6c23.9,0,32.5,16.2,32.5,40.6v0.4c0,17-4.1,29.9-14.6,36.3l11.8,13.8l-15.8,8.1l-11.5-17.6
				c-0.8,0.1-1.6,0.1-2.4,0.1c-24,0-32.5-16.2-32.5-40.7V180.7z"/>
			<path class="st1" d="M557.7,141.9v47.4c0,10.6,2.2,16,11.6,16s11.6-5.3,11.6-16v-47.4h18.2v48.4c0,20.6-7.2,31.6-29.9,31.6
				c-22.7,0-29.8-11-29.8-31.6v-48.4H557.7z"/>
			<path class="st1" d="M640.1,163.4c-2.9,8.7-5.2,17.1-7.4,25.4h15.4c-2.4-8.3-4.6-16.8-7.4-25.4
				C640.7,163.4,640.1,163.4,640.1,163.4z M649.5,142c6.2,16.3,17.1,50,24.8,78h-18.6l-3.4-14.8h-23.7l-3.4,14.8h-18.5
				c7.2-28,18.3-61.7,24.7-78L649.5,142z"/>
		</g>
		<g>
			<path class="st1" d="M480.4,245.6c3.4,6.8,8.3,16.4,12.5,23.7h0.4c4.3-6.9,9.4-16.9,12.6-23.7h20.6c-5.4,11.1-14,25.8-21.9,38.8
				l23.5,39.2h-21.9l-12.7-23.7h-0.4l-12.9,23.7h-21.5l23-39.4c-7.3-12.4-16.4-29-21.8-38.6H480.4z"/>
			<path class="st1" d="M556.2,281.7h3.6c7.9,0,12.4-0.9,12.4-10.2c0-3.5-1.3-6.5-3.4-7.9c-2.1-1.4-4.9-1.7-8.8-1.7h-3.8V281.7z
				 M558.2,245.6c6.8,0,13.7,0.5,18.8,2.2c8.7,3.1,14.3,11.7,14.3,23.7c0,17.7-11.2,26.5-30.1,26.5h-5.1v25.6h-18.3v-78H558.2z"/>
		</g>
		<g>
			<path class="st1" d="M684.4,282.1h3.6c7.9,0,12.4-1.3,12.4-10.5c0-3.5-1.3-6.7-3.3-8.1c-2-1.4-4.6-1.7-8.8-1.7h-3.8v20.3H684.4z
				 M686.4,245.7c6.8,0,13.7,0.5,18.9,2.2c8.7,3.1,14.3,11.7,14.3,23.7c0,10.8-4.2,18.3-11.7,22.4l14.1,29.6h-19l-11.2-25.7
				c-1.3,0.1-3,0.1-4.6,0.1h-2.8v25.6h-18.3v-78L686.4,245.7z"/>
		</g>
		<polygon class="st1" points="451.6,142 450.5,158.3 420,158.3 420,172.6 446.9,172.6 446.9,188.8 420,188.8 420,203.6 
			450.8,203.6 450.8,220 401.7,220 401.7,142 		"/>
		<rect x="199.6" y="194.5" class="st1" width="87.2" height="26.1"/>
		<rect x="199.6" y="245.7" class="st1" width="87.2" height="26.2"/>
		<polygon class="st1" points="143.4,143.4 143.4,169.5 143.4,297.2 143.4,323.4 169.5,323.4 222.2,323.4 222.2,297.2 169.5,297.2 
			169.5,169.5 222.2,169.5 222.2,143.4 169.5,143.4 		"/>
		<polygon class="st1" points="316.9,143.4 262.8,143.4 262.8,169.5 316.9,169.5 316.9,297.2 262.8,297.2 262.8,323.4 316.9,323.4 
			343.1,323.4 343.1,297.2 343.1,169.5 343.1,143.4 		"/>
		<polygon class="st1" points="702.6,142 702.6,203.6 733.3,203.6 733.3,220 684.3,220 684.3,142 		"/>
		<polygon class="st1" points="451.6,245.6 450.5,261.9 420,261.9 420,276.3 446.9,276.3 446.9,292.5 420,292.5 420,307.3 
			450.8,307.3 450.8,323.6 401.7,323.6 401.7,245.6 		"/>
		<polygon class="st1" points="653.2,245.6 652,261.9 621.6,261.9 621.6,276.3 648.4,276.3 648.4,292.5 621.6,292.5 621.6,307.3 
			652.4,307.3 652.4,323.6 603.3,323.6 603.3,245.6 		"/>
		<polygon class="st1" points="783.7,245.6 782.5,261.9 763.9,261.9 763.9,323.6 745.6,323.6 745.6,261.9 726.5,261.9 726.5,245.6 
					"/>
	</g>
	<g>
		<g>
			<path class="st2" d="M551.8,459.1v-1.5h-5.2c-3.4,0-5,1-5,3.1c0,1,0.4,1.9,1.2,2.5c1,0.6,2.2,0.9,3.4,0.8c1.4,0,2.8-0.5,3.9-1.4
				C551.2,461.9,551.8,460.5,551.8,459.1 M560.2,470.5h-7.9v-3.6c-1.9,2.6-4.8,4.1-8,4.1c-2.9,0.1-5.8-0.9-8-2.8
				c-2.2-1.8-3.4-4.6-3.2-7.4c-0.2-2.7,1.1-5.3,3.4-6.9c2.2-1.5,5.3-2.3,9.2-2.3h6.3v-0.2c0-3.2-1.7-4.8-5.1-4.8
				c-1.6,0-3.1,0.3-4.6,0.9c-1.5,0.5-2.9,1.2-4.1,2.1l-3.7-5.4c3.9-2.9,8.7-4.4,13.5-4.3c3.2-0.1,6.4,0.8,8.9,2.7
				c2.3,1.8,3.5,4.7,3.5,8.7L560.2,470.5z"/>
			<path class="st2" d="M583.7,447.9c-2.2-0.1-4.3,0.9-5.6,2.7c-1.3,2.1-2,4.5-1.8,7v13h-8.4v-30h8.4v4c1.1-1.3,2.5-2.3,4-3.1
				s3.2-1.3,4.9-1.3l0.1,7.9L583.7,447.9z"/>
			<path class="st2" d="M608.8,448.4c-1.2-1-2.7-1.5-4.2-1.5c-1.6,0-3.2,0.5-4.6,1.5c-1.3,1-2.2,2.4-2.4,4.1h13.2
				C610.7,450.9,610,449.4,608.8,448.4 M616.8,466.2c-3.2,3.1-7.5,4.8-11.9,4.8c-4.2,0.1-8.2-1.4-11.3-4.2c-3-2.8-4.5-6.6-4.5-11.3
				c0-4.7,1.5-8.5,4.6-11.3c2.9-2.7,6.8-4.2,10.8-4.2c3.9-0.1,7.6,1.2,10.5,3.7s4.3,5.9,4.3,10.3v4.5h-21.9c0.3,1.6,1.2,3.1,2.6,4
				c1.4,1.1,3.2,1.6,4.9,1.6c2.7,0.1,5.4-1,7.3-3L616.8,466.2z"/>
			<path class="st2" d="M625.9,469.6c-2-1.9-2-5.1-0.1-7.1s5.1-2,7.1-0.1c2,1.9,2,5.1,0.1,7.1c-0.9,1-2.2,1.5-3.6,1.5
				C628.1,471,626.9,470.5,625.9,469.6"/>
			<path class="st1" d="M665.8,463.2h6c1.9,0.1,3.8-0.2,5.6-0.9c1.2-0.6,1.9-1.8,1.9-3.6c0-1.8-0.7-3-2-3.6c-2-0.7-4.2-1-6.3-0.9
				h-5.1L665.8,463.2z M665.8,447.3h4.1c1.8,0.1,3.7-0.2,5.4-0.8c1.2-0.5,1.8-1.6,1.8-3.4s-0.5-2.9-1.6-3.4c-1.7-0.7-3.6-1-5.5-0.8
				h-4.2V447.3z M674.1,470.6H657v-39.1h15.2c2.3-0.1,4.6,0.3,6.8,1c1.6,0.5,3.1,1.4,4.3,2.6c1.7,1.9,2.6,4.3,2.6,6.8
				c0,3-1,5.3-3,6.8c-0.4,0.4-0.9,0.7-1.4,1c-0.3,0.1-0.7,0.3-1.4,0.6c2.2,0.4,4.3,1.6,5.8,3.3s2.2,3.9,2.2,6.2c0,2.7-1,5.2-2.8,7.2
				C683.2,469.4,679.4,470.6,674.1,470.6"/>
			<path class="st1" d="M712.7,448.4c-1.2-1-2.7-1.5-4.2-1.5c-1.6,0-3.2,0.5-4.5,1.5s-2.2,2.4-2.4,4.1h13.2
				C714.6,450.9,713.9,449.4,712.7,448.4 M720.7,466.2c-3.2,3.1-7.5,4.8-11.9,4.8c-4.2,0.1-8.3-1.4-11.3-4.2s-4.5-6.6-4.5-11.3
				c0-4.7,1.5-8.5,4.5-11.3c2.9-2.7,6.8-4.2,10.8-4.2c3.9-0.1,7.6,1.2,10.5,3.7s4.3,5.9,4.3,10.3v4.5h-21.9c0.3,1.6,1.2,3.1,2.6,4
				c1.4,1,3.2,1.6,4.9,1.6c2.7,0.1,5.4-1,7.3-3L720.7,466.2z"/>
			<path class="st1" d="M738.9,446.5V460c-0.1,1,0.3,2,0.9,2.7c0.5,0.6,1.3,1,2.1,1c1.6,0,3.1-0.8,4-2.1l3.1,5.9
				c-2.2,2.2-5.1,3.5-8.2,3.6c-5.5,0.2-10.1-4.1-10.3-9.7c0-0.3,0-0.6,0-1v-13.9H727v-6h3.5v-9h8.4v9h7.3v6H738.9z"/>
			<path class="st1" d="M763.5,446.5V460c-0.1,1,0.3,2,0.9,2.7c0.5,0.6,1.3,1,2.1,1c1.6,0,3.1-0.8,4-2.1l3.1,5.9
				c-2.2,2.2-5.1,3.5-8.2,3.6c-5.5,0.2-10.1-4.2-10.3-9.7c0-0.3,0-0.7,0-1v-13.9h-3.5v-6h3.5v-9h8.4v9h7.3v6H763.5z"/>
			<path class="st1" d="M796.1,448.4c-1.2-1-2.7-1.5-4.2-1.5c-1.6,0-3.2,0.5-4.6,1.5c-1.3,1-2.2,2.4-2.4,4.1h13.2
				C798,450.9,797.3,449.4,796.1,448.4 M804.1,466.2c-3.2,3.1-7.5,4.8-11.9,4.8c-4.2,0.1-8.2-1.4-11.3-4.2c-3-2.8-4.5-6.6-4.5-11.3
				c0-4.7,1.5-8.5,4.6-11.3c2.9-2.7,6.8-4.2,10.8-4.2c3.9-0.1,7.6,1.2,10.5,3.7s4.3,5.9,4.3,10.3v4.5h-21.9c0.3,1.6,1.2,3.1,2.6,4
				c1.4,1,3.1,1.6,4.9,1.6c2.7,0.1,5.4-1,7.3-3L804.1,466.2z"/>
			<path class="st1" d="M828.4,447.9c-2.2-0.1-4.3,0.9-5.6,2.7c-1.3,2.1-2,4.5-1.8,7v13h-8.4v-30h8.4v4c1.1-1.3,2.5-2.3,4-3.1
				s3.2-1.3,5-1.3v7.9L828.4,447.9z"/>
			<path class="st1" d="M833.9,469.6c-2-1.9-2-5.1-0.1-7.1s5.1-2,7.1-0.1c2,1.9,2,5.1,0.1,7.1c-0.9,1-2.2,1.5-3.6,1.5
				C836.1,471,834.8,470.5,833.9,469.6"/>
		</g>
		<g>
			<path class="st2" d="M213,459.1v-1.5h-5.2c-3.3,0-5,1-5,3.1c0,1,0.4,1.9,1.2,2.5c1,0.6,2.2,0.9,3.4,0.9c1.4,0,2.8-0.5,3.9-1.4
				C212.4,461.9,213.1,460.5,213,459.1 M221.5,470.6h-7.9V467c-1.9,2.6-4.8,4.1-8,4.1c-2.9,0.1-5.8-0.9-8-2.8
				c-2.2-1.8-3.4-4.6-3.2-7.4c-0.2-2.7,1.1-5.3,3.4-6.9c2.2-1.5,5.3-2.3,9.2-2.3h6.2v-0.2c0-3.2-1.7-4.8-5.1-4.8
				c-1.6,0-3.1,0.3-4.6,0.9c-1.5,0.5-2.9,1.2-4.1,2.1l-3.8-5.4c3.9-2.9,8.7-4.4,13.5-4.3c3.2-0.1,6.4,0.8,8.9,2.7
				c2.3,1.8,3.5,4.7,3.5,8.7L221.5,470.6z"/>
		</g>
		<g>
			<path class="st2" d="M270.7,470.6h-8.4v-30.1h8.4V470.6z M263,436.7c-2-1.9-2-5.1-0.1-7.1c1.9-2,5.1-2,7.1-0.1
				c2,1.9,2,5.1,0.1,7.1c-0.9,1-2.2,1.5-3.6,1.5C265.2,438.1,264,437.6,263,436.7"/>
			<path class="st2" d="M287.1,453.8v16.8h-8.4v-30.1h8.4v3.4c2.2-2.4,5.3-3.8,8.6-3.9c3-0.1,5.9,1.1,8,3.4c2.2,2.4,3.4,5.7,3.2,8.9
				v18.3h-8.4v-17c0-4.6-1.7-6.9-5.1-6.9c-1.6,0-3.2,0.6-4.4,1.8C287.7,449.9,287,451.8,287.1,453.8"/>
			<path class="st2" d="M335.4,454.9c0.1-2.1-0.6-4.1-2-5.7c-1.3-1.4-3.1-2.1-5-2.1c-1.9,0-3.8,0.7-5.1,2.1
				c-1.5,1.5-2.3,3.5-2.1,5.6c-0.1,2.1,0.7,4.2,2.1,5.8c1.3,1.4,3.2,2.2,5.1,2.2c1.9,0,3.7-0.8,5-2.2
				C334.8,459.1,335.5,457,335.4,454.9 M336.6,465.5c-2.5,2.9-6.1,4.5-9.9,4.4c-3.7,0.1-7.3-1.4-9.9-4c-2.7-2.7-4-6.2-4-10.7
				c-0.2-4.1,1.4-8,4.2-11c2.4-2.7,5.9-4.3,9.5-4.3c3.5,0,6.8,1.6,8.9,4.4v-4h8.4v26.2c0,2.5-0.4,4.9-1.4,7.1
				c-0.8,1.9-2.1,3.6-3.7,4.9c-3.1,2.5-7,3.8-11,3.7c-2.3,0-4.6-0.4-6.9-1.1c-2.2-0.7-4.3-1.7-6.1-3.1l3.2-6.3
				c2.5,2,5.6,3.1,8.7,3.1c2.6,0.1,5.2-0.7,7.3-2.3C335.7,471.2,336.6,468.8,336.6,465.5"/>
			<path class="st2" d="M376.4,439.3c-0.8,0.7-1.3,1.7-1.2,2.7c0,1.1,0.6,2.1,1.5,2.7c1,0.7,3.4,1.5,7.1,2.4
				c3.2,0.6,6.1,2.1,8.6,4.1c2,1.8,3.1,4.5,3.1,8c0.1,3.3-1.4,6.5-3.9,8.5c-2.6,2.2-6.1,3.3-10.4,3.3c-6.3,0-12.3-2.5-16.7-6.9
				l5.2-6.4c4.2,3.7,8.1,5.5,11.7,5.5c1.3,0.1,2.7-0.3,3.8-1c0.9-0.6,1.4-1.7,1.4-2.8s-0.5-2.2-1.5-2.8c-1.8-1-3.7-1.7-5.8-2.1
				c-4.5-1.1-7.9-2.5-10-4.2c-2.1-1.7-3.2-4.5-3.2-8.2c-0.2-3.3,1.3-6.6,4-8.6c2.9-2.1,6.4-3.1,10-3c2.7,0,5.3,0.5,7.8,1.3
				s4.8,2.1,6.8,3.8l-4.4,6.3c-3-2.4-6.7-3.8-10.5-3.9C378.6,438.2,377.4,438.5,376.4,439.3"/>
			<path class="st2" d="M408.5,455.5c-0.1,2.2,0.7,4.3,2.1,6c2.8,3,7.4,3.1,10.4,0.3c0.1-0.1,0.2-0.2,0.3-0.3c1.4-1.7,2.2-3.8,2.1-6
				c0.1-2.2-0.7-4.3-2.1-6c-2.7-3-7.4-3.1-10.3-0.4c-0.1,0.1-0.3,0.3-0.4,0.4C409.1,451.2,408.4,453.3,408.5,455.5 M431.8,455.5
				c0.1,4.1-1.6,8.1-4.5,11c-6.4,6-16.3,6-22.7,0c-6-6.1-6-15.9,0-22c6.4-6,16.3-6,22.7,0C430.3,447.4,431.9,451.4,431.8,455.5"/>
			<path class="st2" d="M447.5,438.8v2h7.3v6h-7.3v23.8h-8.4v-23.7h-3.5v-6h3.5v-1.8c-0.4-5.5,3.8-10.3,9.3-10.7c0.4,0,0.7,0,1.1,0
				c3,0,5.9,1.2,8.1,3.4l-3,5.6c-1-1.3-2.5-2.1-4.1-2.2c-0.8,0-1.6,0.3-2.1,0.9C447.8,436.8,447.5,437.8,447.5,438.8"/>
			<path class="st2" d="M470,446.5V460c-0.1,1,0.3,2,0.9,2.7c0.5,0.6,1.3,1,2.1,1c1.6,0,3.1-0.8,4-2.1l3.1,5.9
				c-2.2,2.2-5.1,3.5-8.2,3.6c-5.5,0.2-10.1-4.1-10.3-9.7c0-0.3,0-0.6,0-1v-13.9h-3.5v-6h3.5v-9h8.4v9h7.3v6H470z"/>
		</g>
		<polygon class="st2" points="178.4,446 167.9,467.3 162.7,467.3 152.2,446 152.2,470.6 143.4,470.6 143.4,431.5 155.2,431.5 
			165.3,453 175.4,431.5 187.1,431.5 187.1,470.6 178.4,470.6 		"/>
		<polygon class="st2" points="237.5,470.6 229.1,470.6 229.1,429.1 237.5,429.1 237.5,450.4 246.8,440.5 257.4,440.5 245.9,452.6 
			257.8,470.6 247.9,470.6 240.2,459.1 237.5,461.9 		"/>
		<polygon class="st2" points="500.2,470.6 491.6,470.6 481.3,440.5 490,440.5 495.9,458.7 501.7,440.5 509.9,440.5 515.7,458.7 
			521.6,440.5 530.3,440.5 520.1,470.6 511.4,470.6 505.8,454.2 		"/>
	</g>
	<rect x="143.4" y="379.3" class="st3" width="700.4" height="3"/>
</g>
</svg>
