<?xml version="1.0" encoding="UTF-8" standalone="no"?>
<!-- Generator: Adobe Illustrator 18.1.1, SVG Export Plug-In . SVG Version: 6.00 Build 0)  -->

<svg
   xmlns:dc="http://purl.org/dc/elements/1.1/"
   xmlns:cc="http://creativecommons.org/ns#"
   xmlns:rdf="http://www.w3.org/1999/02/22-rdf-syntax-ns#"
   xmlns:svg="http://www.w3.org/2000/svg"
   xmlns="http://www.w3.org/2000/svg"
   xmlns:sodipodi="http://sodipodi.sourceforge.net/DTD/sodipodi-0.dtd"
   xmlns:inkscape="http://www.inkscape.org/namespaces/inkscape"
   version="1.1"
   id="Layer_1"
   x="0px"
   y="0px"
   viewBox="0 0 163.3 45"
   enable-background="new 0 0 163.3 45"
   xml:space="preserve"
   inkscape:version="0.48.5 r10040"
   width="100%"
   height="100%"
   sodipodi:docname="HealthForge Logo Black Text.svg"><metadata
   id="metadata3059"><rdf:RDF><cc:Work
       rdf:about=""><dc:format>image/svg+xml</dc:format><dc:type
         rdf:resource="http://purl.org/dc/dcmitype/StillImage" /></cc:Work></rdf:RDF></metadata><defs
   id="defs3057" /><sodipodi:namedview
   pagecolor="#ffffff"
   bordercolor="#666666"
   borderopacity="1"
   objecttolerance="10"
   gridtolerance="10"
   guidetolerance="10"
   inkscape:pageopacity="0"
   inkscape:pageshadow="2"
   inkscape:window-width="640"
   inkscape:window-height="480"
   id="namedview3055"
   showgrid="false"
   inkscape:zoom="1.9902021"
   inkscape:cx="21.605846"
   inkscape:cy="22.5"
   inkscape:window-x="0"
   inkscape:window-y="0"
   inkscape:window-maximized="0"
   inkscape:current-layer="Layer_1" />
<g
   id="g3024"
   transform="translate(-1.5258789e-6,0)">
	<g
   enable-background="new    "
   id="g3026">
		<path
   d="M 46.2,29.9 V 13.7 h 2 v 6.6 c 0.5,-0.5 1,-0.9 1.6,-1.2 0.6,-0.3 1.2,-0.5 2,-0.5 0.6,0 1.1,0.1 1.6,0.3 0.5,0.2 0.9,0.5 1.2,0.9 0.3,0.4 0.5,0.8 0.7,1.3 0.2,0.5 0.2,1.1 0.2,1.7 v 7.1 h -2 v -7.1 c 0,-0.8 -0.2,-1.5 -0.6,-2 -0.4,-0.5 -1,-0.7 -1.8,-0.7 -0.6,0 -1.1,0.1 -1.6,0.4 -0.5,0.3 -1,0.7 -1.4,1.1 v 8.2 h -1.9 z"
   id="path3028"
   inkscape:connector-curvature="0" />
		<path
   d="m 62.9,18.6 c 0.7,0 1.3,0.1 1.8,0.3 0.6,0.2 1.1,0.5 1.5,1 0.4,0.4 0.7,0.9 1,1.6 0.2,0.6 0.3,1.3 0.3,2.1 0,0.3 0,0.5 -0.1,0.6 -0.1,0.1 -0.2,0.2 -0.4,0.2 h -7.4 c 0,0.7 0.1,1.3 0.3,1.8 0.2,0.5 0.4,1 0.7,1.3 0.3,0.3 0.7,0.6 1.1,0.8 0.4,0.2 0.9,0.3 1.4,0.3 0.5,0 0.9,-0.1 1.3,-0.2 0.4,-0.1 0.7,-0.2 0.9,-0.4 0.2,-0.2 0.5,-0.3 0.6,-0.4 0.2,-0.1 0.3,-0.2 0.4,-0.2 0.2,0 0.3,0.1 0.4,0.2 l 0.6,0.7 c -0.2,0.3 -0.5,0.5 -0.9,0.8 -0.3,0.2 -0.7,0.4 -1.1,0.5 -0.4,0.1 -0.8,0.2 -1.2,0.3 C 63.7,30 63.3,30 62.9,30 62.1,30 61.4,29.9 60.8,29.6 60.2,29.3 59.6,29 59.1,28.5 58.6,28 58.3,27.4 58,26.6 57.7,25.9 57.6,25 57.6,24 c 0,-0.8 0.1,-1.5 0.4,-2.2 0.3,-0.7 0.6,-1.3 1,-1.8 0.4,-0.5 1,-0.9 1.6,-1.2 0.7,-0.1 1.5,-0.2 2.3,-0.2 z m 0,1.4 c -0.9,0 -1.7,0.3 -2.2,0.8 -0.5,0.5 -0.9,1.3 -1,2.3 h 6.1 c 0,-0.5 -0.1,-0.9 -0.2,-1.2 -0.1,-0.4 -0.3,-0.7 -0.5,-1 C 64.9,20.6 64.6,20.4 64.2,20.3 63.8,20.2 63.4,20 62.9,20 z"
   id="path3030"
   inkscape:connector-curvature="0" />
		<path
   d="m 78.2,29.9 h -0.9 c -0.2,0 -0.3,0 -0.5,-0.1 -0.2,-0.1 -0.2,-0.2 -0.2,-0.4 l -0.2,-1 c -0.3,0.3 -0.6,0.5 -0.9,0.7 -0.3,0.2 -0.6,0.4 -0.9,0.5 -0.3,0.1 -0.6,0.3 -1,0.3 -0.3,0.1 -0.7,0.1 -1.2,0.1 -0.4,0 -0.8,-0.1 -1.2,-0.2 -0.4,-0.1 -0.7,-0.3 -1,-0.5 -0.3,-0.2 -0.5,-0.5 -0.7,-0.9 -0.2,-0.4 -0.2,-0.8 -0.2,-1.3 0,-0.4 0.1,-0.9 0.4,-1.3 0.2,-0.4 0.6,-0.8 1.2,-1.1 0.6,-0.3 1.2,-0.6 2.1,-0.8 0.9,-0.2 1.9,-0.3 3.2,-0.3 v -0.9 c 0,-0.9 -0.2,-1.5 -0.6,-2 C 75.2,20.3 74.7,20 74,20 c -0.5,0 -0.9,0.1 -1.2,0.2 -0.3,0.1 -0.6,0.3 -0.8,0.4 -0.2,0.2 -0.4,0.3 -0.6,0.4 -0.2,0.1 -0.3,0.2 -0.5,0.2 -0.1,0 -0.2,0 -0.3,-0.1 C 70.5,21 70.4,20.9 70.4,20.8 L 70,20.2 c 0.6,-0.6 1.3,-1 2,-1.3 0.7,-0.3 1.5,-0.4 2.4,-0.4 0.6,0 1.2,0.1 1.7,0.3 0.5,0.2 0.9,0.5 1.2,0.9 0.3,0.4 0.6,0.8 0.7,1.3 0.2,0.5 0.3,1.1 0.3,1.7 v 7.2 z m -5.1,-1.2 c 0.3,0 0.7,0 0.9,-0.1 0.3,-0.1 0.6,-0.2 0.8,-0.3 0.3,-0.1 0.5,-0.3 0.7,-0.5 0.2,-0.2 0.5,-0.4 0.7,-0.6 v -2.3 c -0.9,0 -1.7,0.1 -2.3,0.2 -0.6,0.1 -1.1,0.3 -1.5,0.4 -0.4,0.2 -0.7,0.4 -0.9,0.7 -0.2,0.3 -0.3,0.5 -0.3,0.8 0,0.3 0,0.5 0.1,0.8 0.1,0.2 0.2,0.4 0.4,0.5 0.2,0.1 0.4,0.2 0.6,0.3 0.3,0.1 0.5,0.1 0.8,0.1 z"
   id="path3032"
   inkscape:connector-curvature="0" />
		<path
   d="m 83.3,13.7 v 16.2 h -2 V 13.7 h 2 z"
   id="path3034"
   inkscape:connector-curvature="0" />
		<path
   d="m 90.2,30.1 c -0.9,0 -1.6,-0.2 -2,-0.7 -0.5,-0.5 -0.7,-1.2 -0.7,-2.1 v -6.8 h -1.3 c -0.1,0 -0.2,0 -0.3,-0.1 -0.1,-0.1 -0.1,-0.2 -0.1,-0.3 v -0.8 l 1.8,-0.2 0.5,-3.4 c 0,-0.1 0.1,-0.2 0.1,-0.3 0.1,-0.1 0.2,-0.1 0.3,-0.1 h 1 V 19 h 3.2 v 1.4 h -3.2 v 6.7 c 0,0.5 0.1,0.8 0.3,1 0.2,0.2 0.5,0.3 0.9,0.3 0.2,0 0.4,0 0.5,-0.1 0.2,-0.1 0.3,-0.1 0.4,-0.2 0.1,-0.1 0.2,-0.1 0.3,-0.2 0,0.1 0,0.1 0.1,0.1 0.1,0 0.2,0.1 0.3,0.2 l 0.6,0.9 c -0.3,0.3 -0.7,0.6 -1.2,0.7 -0.5,0.2 -1,0.3 -1.5,0.3 z"
   id="path3036"
   inkscape:connector-curvature="0" />
		<path
   d="M 95,29.9 V 13.7 h 2 v 6.6 c 0.5,-0.5 1,-0.9 1.6,-1.2 0.6,-0.3 1.2,-0.5 2,-0.5 0.6,0 1.1,0.1 1.6,0.3 0.5,0.2 0.9,0.5 1.2,0.9 0.3,0.4 0.5,0.8 0.7,1.3 0.2,0.5 0.2,1.1 0.2,1.7 v 7.1 h -2 v -7.1 c 0,-0.8 -0.2,-1.5 -0.6,-2 -0.4,-0.5 -1,-0.7 -1.8,-0.7 -0.6,0 -1.1,0.1 -1.6,0.4 -0.5,0.3 -1,0.7 -1.4,1.1 v 8.2 H 95 z"
   id="path3038"
   inkscape:connector-curvature="0" />
		<path
   d="m 107.7,29.9 v -9.5 l -1.2,-0.1 c -0.2,0 -0.3,-0.1 -0.4,-0.2 C 106,20 106,19.9 106,19.8 V 19 h 1.8 v -1.1 c 0,-0.6 0.1,-1.2 0.3,-1.7 0.2,-0.5 0.4,-0.9 0.8,-1.3 0.3,-0.3 0.7,-0.6 1.2,-0.8 0.5,-0.2 1,-0.3 1.6,-0.3 0.5,0 1,0.1 1.4,0.2 l 0,1 c 0,0.1 -0.1,0.2 -0.2,0.3 -0.1,0.1 -0.3,0 -0.5,0 h -0.3 c -0.3,0 -0.6,0 -0.9,0.1 -0.3,0.1 -0.5,0.2 -0.7,0.4 -0.2,0.2 -0.3,0.5 -0.5,0.8 -0.1,0.3 -0.2,0.7 -0.2,1.2 v 1 h 3.2 v 1.4 h -3.2 v 9.5 h -2.1 z"
   id="path3040"
   inkscape:connector-curvature="0" />
		<path
   d="m 119.1,18.6 c 0.8,0 1.5,0.1 2.2,0.4 0.7,0.3 1.2,0.7 1.7,1.2 0.5,0.5 0.8,1.1 1.1,1.8 0.2,0.7 0.4,1.5 0.4,2.4 0,0.9 -0.1,1.7 -0.4,2.4 -0.2,0.7 -0.6,1.3 -1.1,1.8 -0.5,0.5 -1,0.9 -1.7,1.2 -0.7,0.3 -1.4,0.4 -2.2,0.4 -0.8,0 -1.5,-0.1 -2.2,-0.4 -0.7,-0.3 -1.2,-0.7 -1.7,-1.2 -0.5,-0.5 -0.8,-1.1 -1.1,-1.8 -0.3,-0.7 -0.4,-1.5 -0.4,-2.4 0,-0.9 0.1,-1.7 0.4,-2.4 0.2,-0.7 0.6,-1.3 1.1,-1.8 0.5,-0.5 1,-0.9 1.7,-1.2 0.7,-0.3 1.4,-0.4 2.2,-0.4 z m 0,10 c 1.1,0 1.9,-0.4 2.5,-1.1 0.5,-0.7 0.8,-1.8 0.8,-3.1 0,-1.3 -0.3,-2.4 -0.8,-3.1 -0.5,-0.7 -1.4,-1.1 -2.5,-1.1 -0.6,0 -1,0.1 -1.5,0.3 -0.4,0.2 -0.8,0.5 -1,0.8 -0.3,0.4 -0.5,0.8 -0.6,1.3 -0.1,0.5 -0.2,1.1 -0.2,1.8 0,0.7 0.1,1.3 0.2,1.8 0.1,0.5 0.3,1 0.6,1.3 0.3,0.4 0.6,0.6 1,0.8 0.5,0.2 1,0.3 1.5,0.3 z"
   id="path3042"
   inkscape:connector-curvature="0" />
		<path
   d="M 126.9,29.9 V 18.8 h 1.1 c 0.2,0 0.4,0 0.4,0.1 0.1,0.1 0.1,0.2 0.2,0.4 l 0.1,1.7 c 0.4,-0.8 0.9,-1.4 1.4,-1.8 0.6,-0.4 1.2,-0.7 2,-0.7 0.3,0 0.6,0 0.8,0.1 0.2,0.1 0.5,0.2 0.7,0.3 l -0.3,1.5 c -0.1,0.2 -0.2,0.3 -0.3,0.3 -0.1,0 -0.3,0 -0.5,-0.1 -0.2,-0.1 -0.5,-0.1 -0.9,-0.1 -0.7,0 -1.3,0.2 -1.7,0.6 -0.5,0.4 -0.8,1 -1.1,1.7 v 7.1 h -1.9 z"
   id="path3044"
   inkscape:connector-curvature="0" />
		<path
   d="m 139.5,18.6 c 0.5,0 0.9,0.1 1.4,0.2 0.4,0.1 0.8,0.3 1.2,0.5 h 3 V 20 c 0,0.2 -0.2,0.4 -0.5,0.5 l -1.3,0.2 c 0.2,0.5 0.4,1 0.4,1.6 0,0.5 -0.1,1 -0.3,1.5 -0.2,0.4 -0.5,0.8 -0.9,1.1 -0.4,0.3 -0.8,0.6 -1.3,0.7 -0.5,0.2 -1.1,0.3 -1.7,0.3 -0.5,0 -1,-0.1 -1.5,-0.2 -0.2,0.2 -0.4,0.3 -0.5,0.5 -0.1,0.2 -0.2,0.3 -0.2,0.5 0,0.3 0.1,0.5 0.3,0.6 0.2,0.1 0.5,0.2 0.8,0.3 0.4,0.1 0.8,0.1 1.2,0.1 0.4,0 0.9,0 1.4,0 0.5,0 0.9,0 1.4,0.1 0.4,0.1 0.8,0.2 1.2,0.4 0.4,0.2 0.6,0.4 0.8,0.8 0.2,0.3 0.3,0.8 0.3,1.3 0,0.5 -0.1,1 -0.4,1.4 -0.2,0.5 -0.6,0.9 -1,1.2 -0.4,0.3 -1,0.6 -1.6,0.8 -0.6,0.2 -1.4,0.3 -2.2,0.3 -0.8,0 -1.5,-0.1 -2.1,-0.2 -0.6,-0.2 -1.1,-0.4 -1.5,-0.6 -0.4,-0.2 -0.7,-0.6 -0.9,-0.9 -0.2,-0.4 -0.3,-0.7 -0.3,-1.1 0,-0.5 0.2,-1 0.5,-1.4 0.3,-0.4 0.8,-0.7 1.4,-0.9 -0.3,-0.1 -0.6,-0.3 -0.8,-0.6 -0.2,-0.2 -0.3,-0.6 -0.3,-1 0,-0.2 0,-0.3 0.1,-0.5 0.1,-0.2 0.1,-0.3 0.3,-0.5 0.1,-0.2 0.3,-0.3 0.4,-0.5 0.2,-0.2 0.4,-0.3 0.6,-0.4 -0.5,-0.3 -1,-0.7 -1.3,-1.2 -0.3,-0.5 -0.5,-1.1 -0.5,-1.8 0,-0.5 0.1,-1 0.3,-1.5 0.2,-0.4 0.5,-0.8 0.9,-1.1 0.4,-0.3 0.8,-0.6 1.3,-0.7 0.5,-0.1 1.3,-0.5 1.9,-0.5 z m 3.5,11.9 c 0,-0.3 -0.1,-0.5 -0.2,-0.7 -0.2,-0.2 -0.4,-0.3 -0.6,-0.4 -0.3,-0.1 -0.6,-0.2 -0.9,-0.2 -0.3,0 -0.7,-0.1 -1.1,-0.1 -0.4,0 -0.8,0 -1.2,0 -0.4,0 -0.8,0 -1.1,-0.1 -0.4,0.2 -0.8,0.4 -1,0.7 -0.3,0.3 -0.4,0.6 -0.4,1 0,0.2 0.1,0.5 0.2,0.7 0.1,0.2 0.3,0.4 0.6,0.6 0.3,0.2 0.6,0.3 1,0.4 0.4,0.1 0.9,0.1 1.4,0.1 0.5,0 1,0 1.4,-0.1 0.4,-0.1 0.8,-0.2 1.1,-0.4 0.3,-0.2 0.5,-0.4 0.7,-0.6 0,-0.3 0.1,-0.6 0.1,-0.9 z m -3.5,-6 c 0.4,0 0.7,-0.1 1.1,-0.2 0.3,-0.1 0.6,-0.3 0.8,-0.5 0.2,-0.2 0.4,-0.4 0.5,-0.7 0.1,-0.3 0.2,-0.6 0.2,-0.9 0,-0.7 -0.2,-1.2 -0.6,-1.6 -0.4,-0.4 -1,-0.6 -1.8,-0.6 -0.8,0 -1.4,0.2 -1.8,0.6 -0.4,0.4 -0.6,0.9 -0.6,1.6 0,0.3 0.1,0.6 0.2,0.9 0.1,0.3 0.3,0.5 0.5,0.7 0.2,0.2 0.5,0.4 0.8,0.5 -0.1,0.1 0.3,0.2 0.7,0.2 z"
   id="path3046"
   inkscape:connector-curvature="0" />
		<path
   d="m 151.4,18.6 c 0.7,0 1.3,0.1 1.8,0.3 0.5,0.2 1.1,0.5 1.5,1 0.4,0.5 0.7,0.9 1,1.6 0.2,0.6 0.3,1.3 0.3,2.1 0,0.3 0,0.5 -0.1,0.6 -0.1,0.1 -0.2,0.2 -0.4,0.2 h -7.4 c 0,0.7 0.1,1.3 0.3,1.8 0.2,0.5 0.4,1 0.7,1.3 0.3,0.3 0.7,0.6 1.1,0.8 0.4,0.2 0.9,0.3 1.4,0.3 0.5,0 0.9,-0.1 1.3,-0.2 0.4,-0.1 0.7,-0.2 0.9,-0.4 0.2,-0.2 0.5,-0.3 0.6,-0.4 0.2,-0.1 0.3,-0.2 0.4,-0.2 0.2,0 0.3,0.1 0.4,0.2 l 0.5,0.7 c -0.2,0.3 -0.5,0.5 -0.9,0.8 -0.3,0.2 -0.7,0.4 -1.1,0.5 -0.4,0.1 -0.8,0.2 -1.2,0.3 -0.4,0.1 -0.8,0.1 -1.2,0.1 -0.8,0 -1.5,-0.1 -2.1,-0.4 C 148.6,29.3 148,29 147.5,28.5 147,28 146.7,27.4 146.4,26.6 146.1,25.9 146,25 146,24 c 0,-0.8 0.1,-1.5 0.4,-2.2 0.3,-0.7 0.6,-1.3 1,-1.8 0.4,-0.5 1,-0.9 1.6,-1.2 0.8,-0.1 1.6,-0.2 2.4,-0.2 z m 0,1.4 c -0.9,0 -1.7,0.3 -2.2,0.8 -0.5,0.5 -0.9,1.3 -1,2.3 h 6.1 c 0,-0.5 -0.1,-0.9 -0.2,-1.2 -0.1,-0.4 -0.3,-0.7 -0.5,-1 -0.2,-0.3 -0.5,-0.5 -0.9,-0.6 -0.4,-0.2 -0.8,-0.3 -1.3,-0.3 z"
   id="path3048"
   inkscape:connector-curvature="0" />
	</g>
	
		<path
   id="path4705-7_2_"
   cy="45.130039"
   ry="15.625"
   rx="15.625"
   type="arc"
   cx="225.44643"
   d="m 39.4,22.5 c 0,8.9 -7.2,16.1 -16.1,16.1 -8.9,0 -16,-7.2 -16,-16.1 0,-8.9 7.2,-16.1 16,-16.1 8.8,0 16.1,7.2 16.1,16.1 z"
   inkscape:connector-curvature="0"
   style="fill:#286ea9" />
	<path
   d="m 26.9,22.6 -0.1,0.1 c -1.4,0.7 -2.3,2.2 -2.3,3.9 V 29 c 0,1.6 -1.2,2.8 -2.6,2.8 -1.4,0 -2.6,-1.3 -2.6,-2.8 v -5.5 c 2.7,-0.3 4.8,-2.6 4.8,-5.4 v -4.8 c 0,-0.4 -0.3,-0.7 -0.7,-0.7 h -1.7 c -0.4,0 -0.7,0.3 -0.7,0.7 0,0.4 0.3,0.7 0.7,0.7 h 1 v 4.1 c 0,2.2 -1.8,4 -4,4 -2.2,0 -4,-1.8 -4,-4 V 14 h 1.1 c 0.4,0 0.7,-0.3 0.7,-0.7 0,-0.4 -0.3,-0.7 -0.7,-0.7 H 14 c -0.4,0 -0.7,0.3 -0.7,0.7 v 4.8 c 0,2.6 2,4.9 4.6,5.3 V 29 c 0,2.4 1.8,4.3 4,4.3 2.2,0 4,-1.9 4,-4.3 v -2.5 c 0,-1.2 0.7,-2.3 1.8,-2.7 L 28,23.7 26.9,22.6 z"
   id="path3051"
   inkscape:connector-curvature="0"
   style="fill:#ffffff" />
	<path
   d="m 33.8,23 0.6,-1.1 h 1.8 c -0.4,-0.7 -1.1,-1.1 -1.9,-1.1 -0.8,0 -1.5,0.4 -1.9,1.1 v 0.4 h -4.5 l 1.4,1.4 h 3.1 v 0.5 c 0.4,0.7 1.1,1.1 1.9,1.1 0.8,0 1.6,-0.5 1.9,-1.1 H 34.4 L 33.8,23 z"
   id="path3053"
   inkscape:connector-curvature="0"
   style="fill:#8dbae4" />
</g>
</svg>