<svg xmlns="http://www.w3.org/2000/svg" width="303" height="79.3" viewBox="0 0 303 79.3"><g fill-rule="evenodd" clip-rule="evenodd"><path fill="#007AC2" d="M302.2 26.6v-26.2h-64.7v26.2h64.7z"/><path fill="#fff" d="M243.8 3h7.1l4.3 14.6h.1l2.9-14.6h5.3l-4.5 21h-7l-4.4-14.5-2.9 14.5h-5.4l4.5-21zm21.8 0h5.6l-1.6 8h6.7l1.6-8h5.7l-4.4 21h-5.7l1.9-8.9h-6.7l-1.9 8.9h-5.6l4.4-21zm32.8 4.7c-1.1-.5-2.6-.9-4.6-.9-2.3 0-4.1.3-4.1 2 0 3 8.2 1.8 8.2 8.3 0 5.8-5.4 7.3-10.3 7.3-2.1 0-4.6-.5-6.5-1.1l1.3-4.2c1.1.7 3.4 1.2 5.2 1.2 1.7 0 4.5-.3 4.5-2.5 0-3.4-8.2-2.1-8.2-8 0-5.4 4.8-7.1 9.4-7.1 2.6 0 5 .2 6.4.9l-1.3 4.1z"/></g><path d="M191.4 33.1h3l-2.7 12.7h5.9l-.5 2.4h-8.9l3.2-15.1zm10.5 10.4c0 2 1.1 2.8 3.1 2.8 1.2 0 2.3-.3 3.4-.8l-.4 2.3c-1.1.3-2.3.6-3.5.6-3.2 0-5.3-1.6-5.3-4.8 0-3.4 2.7-6.8 6.3-6.8 2.7 0 4.5 1.4 4.5 4.2 0 .8-.1 1.7-.3 2.5h-7.8zm5.3-2c0-.3.1-.5.1-.8 0-1.2-.6-1.9-1.8-1.9-1.8 0-2.6 1.1-3.1 2.6h4.8zm6.7 2c0 2 1.1 2.8 3.1 2.8 1.2 0 2.3-.3 3.4-.8l-.4 2.3c-1.1.3-2.3.6-3.5.6-3.2 0-5.3-1.6-5.3-4.8 0-3.4 2.7-6.8 6.3-6.8 2.7 0 4.5 1.4 4.5 4.2 0 .8-.1 1.7-.3 2.5h-7.8zm5.3-2c0-.3.1-.5.1-.8 0-1.2-.6-1.9-1.8-1.9-1.8 0-2.6 1.1-3.1 2.6h4.8zm17.4-9.5l-3 13.7c-.2.9-.3 1.9-.4 2.5h-2.7l.3-1.6c-.9 1.2-1.9 1.9-3.6 1.9-2.6 0-3.8-2.2-3.8-4.6 0-3.3 1.8-7 5.6-7 1.4 0 2.5.5 3.4 1.6l1.4-6.4h2.8zm-10.3 11.5c0 1.1.3 2.6 1.8 2.6 2.1 0 3.4-2.5 3.4-4.5 0-1.3-.6-2.6-2.1-2.6-2.1 0-3.1 2.9-3.1 4.5zm18.2-4.1c-.8-.3-1.5-.5-2.4-.5-.9 0-1.9.2-1.9 1.1 0 1.4 3.7 1.9 3.7 4.6 0 2.9-2.5 3.7-5 3.7-1.2 0-2.3-.2-3.4-.7l.6-2.3c.8.5 1.6.9 2.8.9 1 0 2-.3 2-1.2 0-1.8-3.7-2-3.7-4.7 0-2.6 2.5-3.5 4.8-3.5 1.1 0 2.1.2 3.1.5l-.6 2.1zm8.9-6.3h3l.5 11.5 5-11.5h4l.1 11.5 5.3-11.5h3.1l-7.2 15h-3.8l-.2-12-5.3 12h-3.7l-.8-15zm22.3 10.4c0 2 1.1 2.8 3.1 2.8 1.2 0 2.3-.3 3.4-.8l-.4 2.3c-1.1.3-2.3.6-3.5.6-3.2 0-5.3-1.6-5.3-4.8 0-3.4 2.7-6.8 6.3-6.8 2.7 0 4.5 1.4 4.5 4.2 0 .8-.1 1.7-.3 2.5h-7.8zm5.3-2c0-.3.1-.5.1-.8 0-1.2-.6-1.9-1.8-1.9-1.8 0-2.6 1.1-3.1 2.6h4.8zm12.1-2.1c-.8-.3-1.5-.5-2.4-.5-.9 0-1.9.2-1.9 1.1 0 1.4 3.7 1.9 3.7 4.6 0 2.9-2.5 3.7-5 3.7-1.2 0-2.3-.2-3.4-.7l.6-2.3c.8.5 1.6.9 2.8.9 1 0 2-.3 2-1.2 0-1.8-3.7-2-3.7-4.7 0-2.6 2.5-3.5 4.8-3.5 1.1 0 2.1.2 3.1.5l-.6 2.1zm2.3-2.3h2.1l.5-2.3 3.1-1-.7 3.3h2.6l-.5 2.1h-2.6l-1.1 4.8c-.1.3-.1.6-.1 1.1 0 .7.5 1.1 1.1 1.1.5 0 1-.1 1.4-.3l-.5 2.2c-.5.1-1.1.3-1.5.3-2 0-3.3-.8-3.3-2.9 0-.9.2-1.7.4-2.6l.8-3.7h-2.1l.4-2.1zm-281 24.9c-.7-.5-1.8-.9-3.4-.9-3.3 0-5.7 2.5-5.7 6 0 2.5 1.6 4.8 4.3 4.8 1.3 0 2.3-.4 3.2-.9l-.5 2.9c-1.1.3-2.3.4-3.4.4-4.5 0-6.7-3.1-6.7-7.1 0-4.8 3.3-8.4 8.6-8.4 1.5 0 3.1.2 4.4.7l-.8 2.5zm3.3-4.1h2.9l-3.4 16.1h-2.9l3.4-16.1zm4.9 5h2.9l-2.3 11.1h-2.9l2.3-11.1zm1.1-4.8h2.9l-.6 2.8h-2.9l.6-2.8zm4.6 6.4c.1-.7.2-1.2.3-1.6h2.8l-.2 1.1c.8-.7 1.9-1.3 3.1-1.3 2.2 0 3.6 1.4 3.6 3.6 0 .8-.2 1.7-.4 2.4l-1 5.3h-2.9l1.1-5.2c.2-.8.3-1.5.3-2.3 0-.9-.6-1.6-1.6-1.6-2 0-2.7 1.9-3.1 3.5l-1.2 5.6h-2.9l2.1-9.5zm13.5-1.6h2.9l-2.4 11.1h-2.9l2.4-11.1zm1-4.8h2.9l-.6 2.8h-2.9l.6-2.8zm11.8 7.4c-.6-.4-1.3-.6-2.1-.6-2.3 0-3.6 2.2-3.6 4.2 0 1.4.5 2.9 2.5 2.9.7 0 1.6-.2 2.3-.6l-.3 2.3c-.9.4-1.8.5-2.8.5-2.9 0-4.7-1.9-4.7-4.8 0-3.9 2.6-6.8 6.5-6.8 1.1 0 2.1.2 2.9.4l-.7 2.5zm7.4 6.8c-1 1.2-2 2-3.6 2-2 0-3.4-1.1-3.4-3.2 0-3.7 4.1-3.9 6.8-3.9h1c.1-.3.1-.6.1-.9 0-1.1-1.2-1.4-2.2-1.4-1.3 0-2.5.3-3.6.9l.4-2.3c1.2-.4 2.5-.7 3.8-.7 2.2 0 4.3.8 4.3 3.4 0 1.5-1.1 5.8-1.4 7.9h-2.4l.2-1.8zm-2.8-.2c2.2 0 2.8-1.5 3.3-3.3h-1c-1.4 0-3.7.2-3.7 2.1-.1.9.7 1.2 1.4 1.2zm11.2-14.2h2.9l-3.5 16.1h-2.9l3.5-16.1zm21.8 4.1c-.7-.5-1.8-.9-3.4-.9-3.3 0-5.7 2.5-5.7 6 0 2.5 1.6 4.8 4.3 4.8 1.3 0 2.3-.4 3.2-.9l-.5 2.9c-1.1.3-2.3.4-3.4.4-4.5 0-6.7-3.1-6.7-7.1 0-4.8 3.3-8.4 8.6-8.4 1.5 0 3.1.2 4.4.7l-.8 2.5zm12 5.5c0 3.9-2.7 6.7-6.6 6.7-3.1 0-5-1.9-5-5.1 0-3.7 2.8-6.5 6.6-6.5 2.9.1 5 1.9 5 4.9zm-3.1 0c0-1.4-.5-2.6-2.2-2.6-2.3 0-3.4 2.5-3.4 4.5 0 1.5.6 2.6 2.3 2.6 2.2 0 3.3-2.6 3.3-4.5zm6.2-3.4c.1-.4.2-.9.2-1.2h2.7l-.3 1.5c.8-1.1 2-1.7 3.4-1.7 1.3 0 2.7.8 2.8 2.1.7-1.4 2.3-2.1 3.9-2.1 1.7 0 3.1 1.4 3.1 3 0 1-.3 2.1-.5 3l-1.2 5.3h-2.9l1.2-5.4c.2-.7.4-1.7.4-2.4 0-.8-.6-1.3-1.4-1.3-2 0-2.5 2.3-2.9 3.8l-1.1 5.3h-2.7l1.2-5.4c.2-.7.4-1.7.4-2.4 0-.8-.6-1.3-1.4-1.3-2 0-2.5 2.3-2.9 3.8l-1.1 5.3h-2.9l2-9.9zm19.1 0c.1-.4.2-.9.2-1.2h2.7l-.3 1.5c.8-1.1 2-1.7 3.4-1.7 1.3 0 2.7.8 2.8 2.1.7-1.4 2.3-2.1 3.9-2.1 1.7 0 3.1 1.4 3.1 3 0 1-.3 2.1-.5 3l-1.2 5.3h-2.9l1.2-5.4c.2-.7.4-1.7.4-2.4 0-.8-.6-1.3-1.4-1.3-2 0-2.5 2.3-2.9 3.8l-.9 5.3h-2.9l1.2-5.4c.2-.7.4-1.7.4-2.4 0-.8-.6-1.3-1.4-1.3-2 0-2.5 2.3-2.9 3.8l-1.1 5.3h-2.9l2-9.9zm19.5-1.2h2.9l-2.4 11.1h-2.9l2.4-11.1zm1.1-4.8h2.9l-.6 2.8h-2.9l.6-2.8zm11 7.2c-.8-.3-1.5-.5-2.4-.5-.9 0-1.9.2-1.9 1.1 0 1.4 3.7 1.9 3.7 4.6 0 2.9-2.5 3.7-5 3.7-1.2 0-2.3-.2-3.4-.7l.6-2.3c.8.5 1.6.9 2.8.9 1 0 2-.3 2-1.2 0-1.8-3.7-2-3.7-4.7 0-2.6 2.5-3.5 4.8-3.5 1.1 0 2.1.2 3.1.5l-.6 2.1zm9.5 0c-.8-.3-1.6-.5-2.4-.5-.9 0-1.9.2-1.9 1.1 0 1.4 3.7 1.9 3.7 4.6 0 2.9-2.5 3.7-5 3.7-1.2 0-2.3-.2-3.4-.7l.6-2.3c.8.5 1.6.9 2.8.9 1 0 2-.3 2-1.2 0-1.8-3.7-2-3.7-4.7 0-2.6 2.5-3.5 4.8-3.5 1.1 0 2.1.2 3.1.5l-.6 2.1zm3.5-2.4h2.9l-2.4 11.1h-2.9l2.4-11.1zm1.1-4.8h2.9l-.6 2.8h-2.9l.6-2.8zm14.6 9.4c0 3.9-2.7 6.7-6.6 6.7-3.1 0-5-1.9-5-5.1 0-3.7 2.8-6.5 6.6-6.5 2.9.1 5 1.9 5 4.9zm-3 0c0-1.4-.5-2.6-2.2-2.6-2.3 0-3.4 2.5-3.4 4.5 0 1.5.6 2.6 2.3 2.6 2.2 0 3.3-2.6 3.3-4.5zm6.1-3c.1-.7.2-1.2.3-1.6h2.8l-.2 1.1c.8-.7 1.9-1.3 3.1-1.3 2.2 0 3.6 1.4 3.6 3.6 0 .8-.2 1.7-.4 2.4l-1 5.3h-2.9l1.1-5.2c.2-.8.3-1.5.3-2.3 0-.9-.6-1.6-1.6-1.6-2 0-2.7 1.9-3.1 3.5l-1.2 5.6h-2.9l2.1-9.5zm13.5-1.6h2.9l-2.4 11.1h-2.9l2.4-11.1zm1.1-4.8h2.9l-.6 2.8h-2.9l.6-2.8zm4.6 6.4c.1-.7.2-1.2.3-1.6h2.8l-.2 1.1c.8-.7 1.9-1.3 3.1-1.3 2.2 0 3.6 1.4 3.6 3.6 0 .8-.2 1.7-.4 2.4l-1.2 5.4h-2.9l1.1-5.2c.2-.8.3-1.5.3-2.3 0-.9-.6-1.6-1.6-1.6-2 0-2.7 1.9-3.1 3.5l-1.2 5.6h-2.9l2.3-9.6zm11.5 11.2c1.1.5 2.2.9 3.5.9 3.1 0 3.5-2.1 4.2-4.7-.7 1.3-2.1 2.1-3.7 2.1-2.7 0-3.9-2.3-3.9-4.7 0-3.3 2-6.7 5.6-6.7 1.5 0 2.7.7 3.4 1.9l.3-1.6h2.8c-.1.3-.2.8-.4 1.5l-1.8 8.3c-.7 3.6-2.3 6-6.3 6-1.5 0-3-.2-4.4-.8l.7-2.2zm6.1-10.8c-2.1 0-3 2.7-3 4.4 0 1.3.5 2.5 1.8 2.5 2.3 0 3.3-2.4 3.3-4.5-.1-1.4-.8-2.4-2.1-2.4zm27.1-2.7c-1.2-.8-2.6-1.1-4.2-1.1-3.7 0-6 2.9-6 6.4 0 2.4 1.7 4.4 4.2 4.4.7 0 1.1 0 1.5-.2l.8-4h-3.2l.5-2.4h6.1l-1.7 8.2c-.9.4-2.6.7-4 .7-4.4 0-7.4-2-7.4-6.7 0-5.5 3.6-8.9 9-8.9 1.7 0 3.4.2 5 .8l-.6 2.8zm3.1 2.2c.1-.5.2-1 .3-1.5h2.8l-.4 2.1c.5-1.2 1.9-2.3 3.3-2.3.4 0 .8 0 1.1.1l-.6 2.8c-.3-.1-.7-.2-1.1-.2-2 0-3 1.8-3.4 3.6l-1 5h-2.9l1.9-9.6zm18.4 3.1c0 3.9-2.7 6.7-6.6 6.7-3.1 0-5-1.9-5-5.1 0-3.7 2.8-6.5 6.6-6.5 3 .1 5 1.9 5 4.9zm-3 0c0-1.4-.5-2.6-2.2-2.6-2.3 0-3.4 2.5-3.4 4.5 0 1.5.6 2.6 2.3 2.6 2.2 0 3.3-2.6 3.3-4.5zm14.6 4.9c-.1.7-.2 1.2-.3 1.6h-2.8l.2-1.1c-.8.7-1.9 1.3-3.1 1.3-2.2 0-3.6-1.4-3.6-3.6 0-.8.2-1.7.4-2.4l1.2-5.4h2.9l-1.1 5.2c-.2.8-.3 1.5-.3 2.3 0 .9.6 1.5 1.6 1.5 2 0 2.7-1.9 3.1-3.5l1.2-5.6h2.9l-2.3 9.7zm4.6-8c.1-.5.2-1 .2-1.4h2.7l-.3 1.5c.8-1.2 1.9-1.7 3.3-1.7 2.8 0 4.1 1.9 4.1 4.5 0 3.5-1.9 7.1-5.8 7.1-1.3 0-2.6-.4-3.1-2l-1.3 6.2h-2.9l3.1-14.2zm5.1.5c-2 0-3.1 2.6-3.1 4.5 0 1.4.5 2.6 1.9 2.6 2.4 0 3.2-3 3.2-4.8 0-1.3-.7-2.3-2-2.3z"/></svg>