<?xml version="1.0" encoding="utf-8"?>
<!-- Generator: Adobe Illustrator 23.0.1, SVG Export Plug-In . SVG Version: 6.00 Build 0)  -->
<svg version="1.1" id="MF_x5F_logo" xmlns="http://www.w3.org/2000/svg" xmlns:xlink="http://www.w3.org/1999/xlink" x="0px"
	 y="0px" width="782px" height="313px" viewBox="0 0 782 313" style="enable-background:new 0 0 782 313;" xml:space="preserve">
<style type="text/css">
	.st0{fill:#60205C;}
</style>
<g>
	<g>
		<g>
			<g>
				<path class="st0" d="M149.458,84.197c0.02-1.057-0.047-2.133-0.166-3.155c-0.328-2.827-1.549-5.476-2.966-7.681
					c-0.853-1.325-1.899-2.512-2.818-3.769c-1.455-1.991-3.008-3.844-3.769-6.412c-0.761,2.566-2.472,4.421-3.929,6.412
					c-0.92,1.257-1.967,2.443-2.82,3.769c-1.417,2.205-2.638,4.854-2.966,7.681c-0.364,3.139-0.153,6.421,1.188,9.21
					c1.1,2.29,2.842,4.104,4.894,5.07c1.127,0.53,2.335,0.801,3.545,0.801c5.009,0,9.196-4.749,9.739-10.664
					C149.429,85.044,149.451,84.622,149.458,84.197z"/>
				<path class="st0" d="M123.273,83.712c-0.343-0.999-0.774-1.989-1.235-2.908c-1.275-2.544-3.329-4.616-5.415-6.205
					c-1.255-0.954-2.643-1.711-3.938-2.577c-2.048-1.372-4.142-2.584-5.734-4.735c0.162,2.672-0.811,5-1.498,7.368
					c-0.435,1.495-1.013,2.968-1.36,4.506c-0.579,2.557-0.82,5.463-0.16,8.233c0.732,3.074,2.052,6.086,4.266,8.249
					c1.818,1.776,4.073,2.885,6.333,3.092c1.241,0.114,2.468-0.045,3.606-0.46c4.706-1.713,7.018-7.607,5.505-13.352
					C123.535,84.518,123.41,84.114,123.273,83.712z"/>
				<path class="st0" d="M98.5,92.211c-0.664-0.822-1.406-1.603-2.155-2.312c-2.068-1.955-4.706-3.201-7.211-3.978
					c-1.506-0.467-3.069-0.703-4.582-1.075c-2.395-0.588-4.776-1.012-7.009-2.488c1.067,2.456,0.948,4.977,1.113,7.436
					c0.103,1.554,0.063,3.136,0.263,4.699c0.332,2.6,1.098,5.415,2.665,7.791c1.74,2.638,4.01,5.016,6.83,6.291
					c2.315,1.048,4.814,1.318,7.009,0.739c1.204-0.317,2.303-0.887,3.231-1.666c3.837-3.219,3.992-9.549,0.606-14.43
					C99.023,92.88,98.767,92.541,98.5,92.211z"/>
				<path class="st0" d="M78.128,108.672c-0.905-0.545-1.87-1.026-2.815-1.435c-2.613-1.131-5.518-1.397-8.136-1.271
					c-1.574,0.076-3.125,0.389-4.674,0.557c-2.45,0.265-4.834,0.683-7.436,0.058c1.843,1.942,2.593,4.353,3.588,6.608
					c0.629,1.424,1.132,2.925,1.854,4.326c1.201,2.33,2.885,4.712,5.17,6.41c2.537,1.884,5.483,3.343,8.57,3.576
					c2.533,0.193,4.975-0.409,6.839-1.702c1.022-0.71,1.861-1.621,2.467-2.67c2.505-4.338,0.485-10.339-4.365-13.767
					C78.848,109.121,78.493,108.89,78.128,108.672z"/>
				<path class="st0" d="M64.616,131.107c-1.037-0.202-2.108-0.325-3.136-0.386c-2.842-0.168-5.662,0.573-8.08,1.587
					c-1.453,0.609-2.804,1.433-4.201,2.122c-2.212,1.087-4.309,2.295-6.969,2.598c2.395,1.195,3.925,3.202,5.631,4.982
					c1.078,1.123,2.065,2.36,3.222,3.431c1.926,1.78,4.322,3.442,7.05,4.255c3.029,0.903,6.297,1.266,9.277,0.429
					c2.445-0.685,4.535-2.086,5.844-3.938c0.718-1.017,1.194-2.16,1.405-3.352c0.869-4.932-3.08-9.881-8.812-11.443
					C65.445,131.283,65.034,131.188,64.616,131.107z"/>
				<path class="st0" d="M59.591,156.81c-1.044,0.164-2.092,0.416-3.08,0.71c-2.728,0.813-5.124,2.476-7.05,4.255
					c-1.158,1.069-2.144,2.306-3.222,3.431c-1.708,1.78-3.264,3.63-5.66,4.825c2.66,0.303,4.784,1.668,6.996,2.755
					c1.397,0.687,2.748,1.513,4.201,2.122c2.418,1.013,5.238,1.756,8.08,1.587c3.155-0.188,6.349-0.965,8.864-2.77
					c2.065-1.48,3.549-3.511,4.144-5.7c0.326-1.203,0.384-2.438,0.173-3.631c-0.869-4.932-6.273-8.231-12.193-7.739
					C60.431,156.693,60.013,156.743,59.591,156.81z"/>
				<path class="st0" d="M63.66,182.683c-0.925,0.51-1.823,1.107-2.651,1.72c-2.285,1.697-3.969,4.08-5.17,6.41
					c-0.721,1.401-1.226,2.901-1.854,4.326c-0.995,2.256-1.825,4.528-3.668,6.47c2.604-0.624,5.065-0.069,7.517,0.197
					c1.549,0.168,3.1,0.481,4.674,0.557c2.618,0.124,5.523-0.142,8.136-1.271c2.901-1.255,5.637-3.078,7.382-5.633
					c1.433-2.097,2.133-4.513,1.946-6.774c-0.105-1.242-0.474-2.423-1.078-3.471c-2.505-4.338-8.711-5.59-14.106-3.101
					C64.41,182.284,64.033,182.476,63.66,182.683z"/>
				<path class="st0" d="M76.333,205.602c-0.694,0.797-1.334,1.664-1.902,2.524c-1.567,2.376-2.333,5.191-2.665,7.791
					c-0.2,1.563-0.16,3.145-0.263,4.699c-0.164,2.459-0.168,4.879-1.233,7.333c2.232-1.477,4.737-1.798,7.13-2.386
					c1.513-0.371,3.076-0.608,4.582-1.075c2.503-0.777,5.141-2.021,7.211-3.978c2.297-2.171,4.243-4.82,5.011-7.818
					c0.629-2.461,0.462-4.971-0.489-7.03c-0.523-1.131-1.273-2.115-2.202-2.892c-3.837-3.219-10.097-2.274-14.315,1.909
					C76.901,204.971,76.614,205.281,76.333,205.602z"/>
				<path class="st0" d="M96.08,222.806c-0.38,0.986-0.685,2.019-0.923,3.022c-0.66,2.77-0.418,5.676,0.16,8.233
					c0.348,1.536,0.925,3.009,1.36,4.506c0.687,2.367,1.511,4.641,1.349,7.313c1.592-2.151,3.835-3.309,5.884-4.681
					c1.295-0.866,2.683-1.623,3.938-2.577c2.086-1.587,4.14-3.659,5.415-6.205c1.415-2.825,2.339-5.981,2.034-9.061
					c-0.251-2.528-1.266-4.829-2.863-6.439c-0.878-0.884-1.92-1.551-3.058-1.965c-4.706-1.713-10.265,1.316-12.799,6.69
					C96.399,222.02,96.234,222.409,96.08,222.806z"/>
				<path class="st0" d="M120.522,232.218c-0.02,1.057,0.047,2.133,0.166,3.155c0.328,2.827,1.549,5.476,2.966,7.681
					c0.853,1.325,1.899,2.512,2.818,3.769c1.455,1.991,3.008,3.844,3.769,6.412c0.761-2.566,2.472-4.421,3.929-6.412
					c0.92-1.257,1.967-2.443,2.82-3.769c1.417-2.205,2.64-4.854,2.966-7.681c0.364-3.139,0.153-6.421-1.188-9.21
					c-1.1-2.29-2.842-4.104-4.894-5.07c-1.127-0.53-2.335-0.801-3.545-0.801c-5.009,0-9.196,4.749-9.739,10.664
					C120.552,231.369,120.529,231.793,120.522,232.218z"/>
				<path class="st0" d="M146.708,232.703c0.343,0.999,0.774,1.989,1.235,2.908c1.275,2.544,3.329,4.616,5.415,6.203
					c1.255,0.954,2.643,1.711,3.938,2.577c2.048,1.372,4.142,2.584,5.734,4.735c-0.162-2.672,0.811-5,1.498-7.368
					c0.435-1.495,1.013-2.968,1.36-4.506c0.579-2.557,0.82-5.463,0.16-8.233c-0.732-3.074-2.052-6.086-4.266-8.249
					c-1.818-1.776-4.073-2.885-6.333-3.092c-1.241-0.114-2.468,0.045-3.606,0.46c-4.706,1.713-7.018,7.607-5.505,13.352
					C146.445,231.896,146.569,232.299,146.708,232.703z"/>
				<path class="st0" d="M171.48,224.202c0.664,0.822,1.406,1.603,2.155,2.312c2.068,1.956,4.706,3.201,7.211,3.978
					c1.506,0.467,3.069,0.703,4.582,1.075c2.395,0.588,4.776,1.012,7.009,2.488c-1.067-2.456-0.948-4.977-1.113-7.436
					c-0.103-1.554-0.063-3.136-0.263-4.699c-0.332-2.6-1.098-5.415-2.665-7.791c-1.74-2.638-4.01-5.016-6.83-6.291
					c-2.315-1.048-4.814-1.318-7.009-0.739c-1.204,0.317-2.303,0.887-3.231,1.666c-3.837,3.219-3.992,9.549-0.606,14.43
					C170.958,223.534,171.213,223.872,171.48,224.202z"/>
				<path class="st0" d="M191.851,207.743c0.905,0.545,1.87,1.026,2.815,1.435c2.613,1.131,5.518,1.397,8.136,1.271
					c1.574-0.076,3.125-0.389,4.674-0.557c2.45-0.265,4.834-0.683,7.436-0.058c-1.843-1.942-2.593-4.353-3.588-6.608
					c-0.629-1.424-1.132-2.925-1.854-4.326c-1.201-2.33-2.885-4.712-5.17-6.41c-2.537-1.884-5.483-3.343-8.57-3.576
					c-2.533-0.193-4.975,0.409-6.839,1.702c-1.024,0.71-1.861,1.621-2.467,2.67c-2.505,4.337-0.485,10.337,4.365,13.767
					C191.132,207.292,191.487,207.523,191.851,207.743z"/>
				<path class="st0" d="M205.364,185.306c1.037,0.202,2.108,0.325,3.136,0.386c2.842,0.168,5.662-0.573,8.08-1.587
					c1.453-0.609,2.804-1.434,4.201-2.122c2.212-1.087,4.309-2.295,6.969-2.598c-2.395-1.195-3.925-3.202-5.631-4.982
					c-1.078-1.123-2.065-2.362-3.222-3.431c-1.926-1.78-4.322-3.442-7.05-4.255c-3.029-0.903-6.297-1.266-9.277-0.429
					c-2.445,0.685-4.535,2.086-5.844,3.938c-0.718,1.017-1.194,2.16-1.405,3.352c-0.869,4.932,3.08,9.881,8.812,11.443
					C204.534,185.13,204.945,185.225,205.364,185.306z"/>
				<path class="st0" d="M210.389,159.603c1.044-0.164,2.092-0.417,3.08-0.71c2.728-0.813,5.124-2.476,7.05-4.255
					c1.158-1.069,2.144-2.306,3.222-3.431c1.708-1.78,3.264-3.63,5.66-4.825c-2.66-0.303-4.784-1.668-6.996-2.755
					c-1.397-0.687-2.748-1.513-4.201-2.122c-2.418-1.013-5.238-1.756-8.08-1.587c-3.155,0.188-6.349,0.965-8.864,2.77
					c-2.065,1.48-3.549,3.511-4.144,5.7c-0.326,1.203-0.384,2.438-0.173,3.632c0.869,4.932,6.273,8.231,12.193,7.739
					C209.549,159.722,209.969,159.67,210.389,159.603z"/>
				<path class="st0" d="M206.319,133.732c0.925-0.51,1.823-1.107,2.651-1.72c2.285-1.697,3.969-4.08,5.17-6.41
					c0.721-1.401,1.226-2.901,1.854-4.326c0.995-2.256,1.827-4.528,3.668-6.47c-2.604,0.624-5.065,0.069-7.517-0.197
					c-1.549-0.168-3.1-0.481-4.674-0.557c-2.618-0.124-5.523,0.142-8.136,1.271c-2.901,1.255-5.637,3.078-7.382,5.633
					c-1.434,2.097-2.133,4.513-1.946,6.774c0.105,1.242,0.474,2.423,1.078,3.471c2.505,4.338,8.711,5.59,14.106,3.101
					C205.569,134.13,205.946,133.937,206.319,133.732z"/>
				<path class="st0" d="M193.647,110.811c0.694-0.797,1.334-1.664,1.902-2.524c1.567-2.376,2.333-5.191,2.665-7.791
					c0.2-1.563,0.16-3.145,0.263-4.699c0.164-2.459,0.168-4.879,1.233-7.333c-2.232,1.477-4.737,1.798-7.13,2.386
					c-1.513,0.371-3.076,0.608-4.582,1.075c-2.503,0.777-5.141,2.021-7.211,3.978c-2.297,2.171-4.243,4.82-5.011,7.818
					c-0.629,2.461-0.462,4.971,0.489,7.03c0.523,1.131,1.273,2.115,2.202,2.892c3.837,3.219,10.097,2.274,14.315-1.91
					C193.079,111.442,193.368,111.132,193.647,110.811z"/>
				<path class="st0" d="M173.899,93.607c0.38-0.986,0.685-2.019,0.923-3.022c0.66-2.77,0.418-5.676-0.16-8.233
					c-0.348-1.536-0.925-3.009-1.36-4.506c-0.687-2.368-1.511-4.641-1.349-7.313c-1.592,2.151-3.835,3.309-5.884,4.681
					c-1.295,0.865-2.683,1.623-3.938,2.577c-2.086,1.587-4.14,3.659-5.415,6.205c-1.415,2.825-2.339,5.981-2.034,9.061
					c0.251,2.528,1.266,4.829,2.863,6.439c0.878,0.884,1.92,1.551,3.058,1.965c4.706,1.713,10.265-1.316,12.799-6.69
					C173.58,94.395,173.746,94.006,173.899,93.607z"/>
			</g>
			<g>
				<path class="st0" d="M130.971,129.255l-14.508-20.523l19.259-3.711l-1.59,23.172
					C134.114,129.866,131.995,130.576,130.971,129.255z"/>
				<path class="st0" d="M116.914,135.319l-22.826-10.519l14.823-12.842l10.209,20.862
					C119.941,134.276,118.462,135.952,116.914,135.319z"/>
				<path class="st0" d="M107.772,147.598L82.744,149.9l6.415-18.534l19.274,12.963
					C109.872,145.184,109.429,147.372,107.772,147.598z"/>
				<path class="st0" d="M105.996,162.804l-20.523,14.508l-3.711-19.259l23.172,1.59
					C106.607,159.663,107.317,161.779,105.996,162.804z"/>
				<path class="st0" d="M112.06,176.861l-10.519,22.826l-12.842-14.823l20.862-10.209
					C111.017,173.835,112.692,175.314,112.06,176.861z"/>
				<path class="st0" d="M124.339,186.003l2.303,25.027l-18.534-6.416l12.963-19.274
					C121.924,183.904,124.113,184.345,124.339,186.003z"/>
				<path class="st0" d="M139.545,187.78l14.508,20.523l-19.259,3.711l1.59-23.172C136.403,187.169,138.52,186.459,139.545,187.78z"
					/>
				<path class="st0" d="M153.602,181.716l22.826,10.519l-14.823,12.842l-10.209-20.862
					C150.576,182.757,152.055,181.084,153.602,181.716z"/>
				<path class="st0" d="M162.743,169.435l25.027-2.303l-6.416,18.534l-19.274-12.963
					C160.645,171.852,161.086,169.663,162.743,169.435z"/>
				<path class="st0" d="M164.521,154.23l20.523-14.508l3.711,19.259l-23.172-1.59C163.91,157.373,163.2,155.254,164.521,154.23z"/>
				<path class="st0" d="M158.457,140.173l10.519-22.826l12.842,14.823l-20.862,10.209
					C159.498,143.2,157.825,141.721,158.457,140.173z"/>
				<path class="st0" d="M146.176,131.031l-2.303-25.027l18.534,6.415l-12.963,19.274
					C148.593,133.131,146.404,132.688,146.176,131.031z"/>
			</g>
		</g>
		<g>
			<g>
				
					<rect x="126.303" y="35.063" transform="matrix(0.0467 -0.9989 0.9989 0.0467 96.8018 179.9357)" class="st0" width="32.741" height="8.377"/>
				
					<rect x="97.378" y="27.6" transform="matrix(0.9547 -0.2977 0.2977 0.9547 -8.485 32.2287)" class="st0" width="8.378" height="32.742"/>
				
					<rect x="60.36" y="46.026" transform="matrix(0.7953 -0.6063 0.6063 0.7953 -24.6137 51.9094)" class="st0" width="8.378" height="32.743"/>
				
					<rect x="31.825" y="76.007" transform="matrix(0.5399 -0.8417 0.8417 0.5399 -61.1865 72.8153)" class="st0" width="8.377" height="32.74"/>
				
					<rect x="15.327" y="113.962" transform="matrix(0.2195 -0.9756 0.9756 0.2195 -111.9219 120.7641)" class="st0" width="8.377" height="32.741"/>
				
					<rect x="0.592" y="167.459" transform="matrix(0.9919 -0.1274 0.1274 0.9919 -21.7308 3.5598)" class="st0" width="32.739" height="8.377"/>
				
					<rect x="12.354" y="207.065" transform="matrix(0.8884 -0.459 0.459 0.8884 -93.7559 36.7498)" class="st0" width="32.743" height="8.378"/>
				
					<rect x="36.923" y="240.342" transform="matrix(0.6779 -0.7352 0.7352 0.6779 -162.6057 117.949)" class="st0" width="32.742" height="8.378"/>
				
					<rect x="71.433" y="263.19" transform="matrix(0.3856 -0.9227 0.9227 0.3856 -192.7546 245.2947)" class="st0" width="32.742" height="8.378"/>
				
					<rect x="111.629" y="272.917" transform="matrix(0.0467 -0.9989 0.9989 0.0467 -154.7808 392.0243)" class="st0" width="32.741" height="8.377"/>
				
					<rect x="164.929" y="256.002" transform="matrix(0.9547 -0.2977 0.2977 0.9547 -73.415 62.6929)" class="st0" width="8.378" height="32.742"/>
				
					<rect x="201.935" y="237.582" transform="matrix(0.7953 -0.6063 0.6063 0.7953 -111.7619 176.9611)" class="st0" width="8.378" height="32.743"/>
				
					<rect x="230.49" y="207.612" transform="matrix(0.5399 -0.8417 0.8417 0.5399 -80.5578 300.5848)" class="st0" width="8.377" height="32.74"/>
				
					<rect x="246.98" y="169.65" transform="matrix(0.2195 -0.9756 0.9756 0.2195 14.5526 390.2311)" class="st0" width="8.377" height="32.741"/>
				
					<rect x="237.346" y="140.509" transform="matrix(0.9919 -0.1274 0.1274 0.9919 -16.3677 33.5042)" class="st0" width="32.739" height="8.377"/>
				
					<rect x="225.598" y="100.917" transform="matrix(0.8884 -0.459 0.459 0.8884 -21.2493 122.7822)" class="st0" width="32.743" height="8.378"/>
				
					<rect x="201.026" y="67.628" transform="matrix(0.6779 -0.7352 0.7352 0.6779 17.2305 182.9586)" class="st0" width="32.742" height="8.378"/>
				
					<rect x="166.516" y="44.784" transform="matrix(0.3856 -0.9227 0.9227 0.3856 67.1823 198.8343)" class="st0" width="32.742" height="8.378"/>
			</g>
			<g>
				<polygon class="st0" points="129.568,62.382 121.259,63.45 115.722,24.127 124.03,23.06 				"/>
				<polygon class="st0" points="97.128,70.136 89.686,73.98 71.033,38.924 78.476,35.08 				"/>
				<polygon class="st0" points="69.297,88.515 63.619,94.675 34.1,68.111 39.78,61.953 				"/>
				<polygon class="st0" points="49.43,115.306 46.201,123.036 9.377,108.169 12.607,100.441 				"/>
				<polygon class="st0" points="39.924,147.275 39.533,155.643 -0.154,154.269 0.239,145.901 				"/>
				<polygon class="st0" points="41.927,180.568 44.421,188.565 6.656,200.848 4.163,192.851 				"/>
				<polygon class="st0" points="55.195,211.169 60.274,217.831 28.988,242.287 23.909,235.626 				"/>
				<polygon class="st0" points="78.128,235.386 85.179,239.909 64.145,273.591 57.095,269.069 				"/>
				<polygon class="st0" points="107.961,250.298 116.135,252.137 107.889,290.982 99.717,289.143 				"/>
				<polygon class="st0" points="141.097,254.108 149.404,253.041 154.943,292.363 146.634,293.431 				"/>
				<polygon class="st0" points="173.535,246.357 180.978,242.51 199.63,277.568 192.188,281.413 				"/>
				<polygon class="st0" points="201.366,227.976 207.046,221.818 236.563,248.381 230.885,254.539 				"/>
				<polygon class="st0" points="221.233,201.185 224.464,193.457 261.286,208.322 258.056,216.051 				"/>
				<polygon class="st0" points="230.739,169.215 231.13,160.849 270.817,162.223 270.426,170.589 				"/>
				<polygon class="st0" points="228.738,135.923 226.244,127.926 264.007,115.645 266.5,123.642 				"/>
				<polygon class="st0" points="215.47,105.322 210.391,98.661 241.677,74.204 246.754,80.866 				"/>
				<polygon class="st0" points="192.536,81.106 185.486,76.582 206.52,42.9 213.57,47.424 				"/>
				<polygon class="st0" points="162.702,66.192 154.53,64.355 162.776,25.509 170.948,27.348 				"/>
			</g>
		</g>
	</g>
	<g>
		<g>
			<path d="M304.023,106.187c0.373-11.684,1.228-23.047,2.239-33.771c1.439-15.045,3.415-30.676,4.962-40.547h17.231l17.66,59.645
				h0.64l17.553-59.645h17.231c1.708,10.458,3.467,23.368,5.014,40.332c1.122,13.071,1.814,22.993,2.243,33.983h-12.057
				c-0.427-14.937-3.042-48.549-5.39-60.767h-0.746l-17.927,60.713h-12.483l-18.033-60.713h-0.746
				c-2.562,14.939-4.962,44.708-5.39,60.767h-12.001V106.187z"/>
			<path d="M515.453,58.919c11.524-7.896,22.941-9.602,34.037-6.242l-1.708,8.803c-6.668-1.28-14.03-1.334-21.021,3.521v41.187
				h-11.309L515.453,58.919L515.453,58.919z"/>
			<path d="M555.915,53.316l5.121-1.174v-5.656c0-8.375,3.949-17.764,16.059-17.764c4.908,0,9.174,1.387,12.11,2.88l-2.669,7.896
				c-1.495-0.586-3.788-1.387-7.202-1.387c-4.322,0-6.991,2.454-6.991,9.658v4.374h11.899v8.696h-11.899v45.347h-11.309V60.839
				h-6.529L555.915,53.316z"/>
			<path d="M624.019,84.206c1.28,8.751,6.401,13.817,17.124,13.817c5.121,0,9.762-1.92,13.604-4.001l3.415,7.894
				c-5.815,3.361-11.578,5.229-19.046,5.229c-17.072,0-26.302-9.816-26.302-28.596c0-17.873,10.244-27.635,25.556-27.635
				c12.483,0,21.767,7.842,21.767,17.818c0,8.269-4.216,15.471-18.513,15.471h-17.606V84.206z M623.911,74.498h15.898
				c5.763,0,9.282-0.267,9.282-5.014c0-6.616-6.134-9.23-11.203-9.23C629.566,60.251,625.033,66.229,623.911,74.498z"/>
			<path d="M667.929,106.187V29.151h11.311v77.036H667.929z"/>
			<path d="M724.85,106.187l-1.387-5.281c-4.322,3.467-9.23,6.242-16.165,6.242c-11.951,0-21.181-8.321-21.181-27.901
				c0-19.739,13.657-28.329,25.074-28.329c6.403,0,9.282,1.228,11.843,2.081V29.153h11.578v77.036h-9.762V106.187z M710.765,97.81
				c4.055,0,8.749-1.28,12.537-4.214v-31.21c-2.187-1.174-6.08-2.135-10.029-2.135c-9.23,0-16.059,6.242-16.059,18.832
				C697.213,92.101,702.761,97.81,710.765,97.81z"/>
			<path d="M744.695,93.757c6.403,3.148,11.632,4.214,16.592,4.214c5.44,0,9.389-3.574,9.389-7.202
				c0-3.309-2.239-5.335-11.524-8.751c-8.963-3.148-16.38-5.921-16.38-15.898c0-10.083,8.376-15.206,19.632-15.206
				c7.258,0,12.806,1.441,17.979,4.162l-3.201,7.948c-5.067-1.974-8.803-2.827-12.645-2.827c-6.668,0-10.669,2.027-10.669,6.562
				c0,4.481,6.136,5.281,11.738,7.149c11.791,4.001,16.057,8.909,16.057,17.178c0,9.282-8.215,16.059-19.685,16.059
				c-9.656,0-16.699-2.827-20.592-5.014L744.695,93.757z"/>
			<path d="M420.932,50.709c-15.61,0-28.309,12.699-28.309,28.307c0,15.61,12.699,28.309,28.309,28.309s28.309-12.699,28.309-28.309
				C449.241,63.408,436.54,50.709,420.932,50.709z M420.99,97.81c-9.539,0-16.109-5.229-16.109-19.099
				c0-12.537,6.513-18.459,16.109-18.459c9.254,0,15.994,5.709,15.994,18.459C436.982,92.262,430.586,97.81,420.99,97.81z"/>
			<path d="M481.93,50.709c-15.61,0-28.309,12.699-28.309,28.307c0,15.61,12.699,28.309,28.309,28.309
				c15.61,0,28.309-12.699,28.309-28.309C510.239,63.408,497.539,50.709,481.93,50.709z M481.987,97.81
				c-9.539,0-16.109-5.229-16.109-19.099c0-12.537,6.513-18.459,16.109-18.459c9.254,0,15.994,5.709,15.994,18.459
				C497.981,92.262,491.584,97.81,481.987,97.81z"/>
			<g>
				<path d="M593.873,106.187V52.144h11.311v54.043H593.873z"/>
				<circle cx="599.493" cy="39.144" r="6.785"/>
			</g>
		</g>
		<g>
			<path d="M304.241,199.061v-74.656h24.636c16.28,0,26.134,8.408,26.134,23.886c0,17.674-12.05,25.653-27.689,25.653h-11.14v25.117
				H304.241z M316.183,164.517h11.246c8.783,0,15.959-4.499,15.959-15.317c0-12.478-8.247-15.157-16.441-15.157h-10.765V164.517z"/>
			<path d="M358.946,151.61c11.567-7.925,23.029-9.639,34.169-6.266l-1.713,8.837c-6.695-1.286-14.086-1.338-21.102,3.536v41.346
				h-11.354V151.61z"/>
			<path d="M438.143,199.061c-9.8-16.976-16.12-35.455-19.335-54.25l12.265-0.536c1.284,11.782,7.871,34.007,13.817,44.665h0.642
				c5.837-10.604,11.944-30.848,13.871-44.665l12.211,0.536c-2.999,18.798-9.908,37.489-19.281,54.25H438.143z"/>
			<path d="M500.956,143.577c8.354,0,15.745,2.571,21.048,4.98v50.504h-9.854l-1.394-5.303c-4.176,3.161-8.568,6.266-16.226,6.266
				c-12.425,0-21.261-9.21-21.261-27.849C473.269,153.323,484.836,143.577,500.956,143.577z M497.904,190.653
				c5.088,0,9.962-2.036,12.8-4.661v-31.061c-1.286-0.536-5.357-1.928-10.069-1.928c-9.639,0-16.226,6.641-16.226,18.852
				C484.407,184.921,489.977,190.653,497.904,190.653z"/>
			<path d="M527.996,145.934l6.32-1.125l1.392-13.282h9.962v13.282h12.532v8.729H545.67v28.545c0,5.141,1.498,8.568,5.999,8.568
				c3.641,0,5.783-1.073,8.087-1.982l2.892,7.764c-4.017,2.142-7.82,3.588-13.819,3.588c-8.568,0-14.513-5.303-14.513-16.87v-29.614
				h-6.32V145.934z"/>
			<path d="M575.23,176.996c1.284,8.783,6.424,13.87,17.191,13.87c5.141,0,9.8-1.928,13.659-4.017l3.428,7.926
				c-5.838,3.374-11.623,5.247-19.12,5.247c-17.137,0-26.403-9.854-26.403-28.706c0-17.941,10.283-27.741,25.655-27.741
				c12.532,0,21.85,7.872,21.85,17.887c0,8.302-4.232,15.532-18.585,15.532H575.23V176.996z M575.122,167.248h15.959
				c5.784,0,9.319-0.267,9.319-5.034c0-6.641-6.159-9.264-11.246-9.264C580.798,152.95,576.247,158.947,575.122,167.248z"/>
			<g>
				<path d="M399.747,199.061v-54.25H411.1v54.25H399.747z"/>
				<g>
					<circle cx="405.44" cy="131.842" r="6.785"/>
				</g>
			</g>
		</g>
		<g>
			<path d="M304.265,272.852v-55.495h33.322l-0.079,7.364h-24.405v16.403h20.783v7.007h-20.783v17.357h25.161v7.366h-33.998V272.852
				z"/>
			<path d="M345.868,287.861c3.145-3.783,7.324-9.713,10.191-15.009h-1.275c-7.883-13.734-12.142-27.032-14.172-40.33l9.037-0.397
				c1.394,11.585,5.175,24.364,10.072,33.482h0.478c5.932-10.79,9.196-25.282,10.033-33.482l9.037,0.397
				c-1.434,12.82-8.121,30.855-14.133,40.33c-2.468,4.697-8.002,13.935-11.506,19.03L345.868,287.861z"/>
			<path d="M389.734,256.449c0.956,6.527,4.778,10.31,12.779,10.31c3.823,0,7.286-1.434,10.153-2.986l2.548,5.893
				c-4.34,2.508-8.639,3.902-14.214,3.902c-12.739,0-19.627-7.326-19.627-21.34c0-13.336,7.643-20.62,19.07-20.62
				c9.315,0,16.242,5.851,16.242,13.298c0,6.17-3.145,11.545-13.815,11.545h-13.136V256.449z M389.653,249.202h11.863
				c4.3,0,6.929-0.2,6.929-3.742c0-4.937-4.58-6.886-8.361-6.886C393.874,238.574,390.49,243.033,389.653,249.202z"/>
			<path d="M447.494,272.852v-55.495h8.839v23.567h26.592v-23.567h8.879v55.495h-8.879v-24.562h-26.592v24.562H447.494z"/>
			<path d="M515.576,231.607c10.033,0,19.429,5.692,19.429,20.741c0,13.695-7.326,21.219-19.429,21.219
				c-12.063,0-19.466-7.326-19.466-21.259C496.109,239.609,503.275,231.607,515.576,231.607z M515.617,266.6
				c6.69,0,11.147-4.142,11.147-14.252c0-9.515-4.697-13.774-11.147-13.774c-6.69,0-11.226,4.419-11.226,13.774
				C504.389,262.7,508.968,266.6,515.617,266.6z"/>
			<path d="M540.259,263.576c4.778,2.349,8.678,3.145,12.38,3.145c4.061,0,7.007-2.667,7.007-5.373c0-2.468-1.672-3.981-8.601-6.529
				c-6.688-2.348-12.221-4.419-12.221-11.863c0-7.524,6.251-11.345,14.65-11.345c5.415,0,9.555,1.073,13.417,3.105l-2.389,5.932
				c-3.783-1.475-6.569-2.111-9.434-2.111c-4.977,0-7.963,1.513-7.963,4.897c0,3.345,4.578,3.942,8.758,5.335
				c8.797,2.986,11.984,6.648,11.984,12.818c0,6.929-6.131,11.984-14.692,11.984c-7.207,0-12.461-2.111-15.368-3.741
				L540.259,263.576z"/>
			<path d="M572.351,237.777c2.986-2.268,11.028-6.091,17.876-6.091c11.744,0,18.154,5.536,18.154,20.424
				c0,10.949-5.135,21.459-17.676,21.459c-5.415,0-7.683-0.876-9.914-1.634v16.284h-8.439v-50.442H572.351z M580.791,265.206
				c1.83,0.637,3.981,1.394,7.883,1.394c8.797,0,11.625-7.923,11.625-14.492c0-9.396-3.979-13.336-10.191-13.336
				c-3.821,0-7.604,2.068-9.315,3.224v23.21H580.791z"/>
			<path d="M627.613,233.358l4.697-0.837l1.035-9.872h7.405v9.872h9.315v6.489h-9.315v21.219c0,3.823,1.114,6.37,4.457,6.37
				c2.706,0,4.3-0.797,6.012-1.475l2.149,5.772c-2.986,1.594-5.813,2.669-10.271,2.669c-6.37,0-10.79-3.942-10.79-12.541v-22.016
				h-4.697v-5.651H627.613z"/>
			<path d="M675.078,231.607c6.212,0,11.704,1.911,15.646,3.702v37.543h-7.326l-1.035-3.942c-3.103,2.348-6.369,4.659-12.063,4.659
				c-9.236,0-15.804-6.848-15.804-20.702C654.495,238.852,663.096,231.607,675.078,231.607z M672.81,266.6
				c3.781,0,7.404-1.513,9.515-3.464v-23.091c-0.956-0.398-3.981-1.432-7.485-1.432c-7.166,0-12.063,4.935-12.063,14.012
				C662.777,262.341,666.917,266.6,672.81,266.6z"/>
			<path d="M697.415,272.852v-57.487h8.439v57.487H697.415z"/>
			<g>
				<path d="M613.027,272.857v-40.343h8.442v40.343H613.027z"/>
				<g>
					<circle cx="617.259" cy="222.871" r="5.045"/>
				</g>
			</g>
		</g>
	</g>
</g>
<g>
	<g>
		<g>
			<g>
				<path class="st0" d="M149.458,84.197c0.02-1.057-0.047-2.133-0.166-3.155c-0.328-2.827-1.549-5.476-2.966-7.681
					c-0.853-1.325-1.899-2.512-2.818-3.769c-1.455-1.991-3.008-3.844-3.769-6.412c-0.761,2.566-2.472,4.421-3.929,6.412
					c-0.92,1.257-1.967,2.443-2.82,3.769c-1.417,2.205-2.638,4.854-2.966,7.681c-0.364,3.139-0.153,6.421,1.188,9.21
					c1.1,2.29,2.842,4.104,4.894,5.07c1.127,0.53,2.335,0.801,3.545,0.801c5.009,0,9.196-4.749,9.739-10.664
					C149.429,85.044,149.451,84.622,149.458,84.197z"/>
				<path class="st0" d="M123.273,83.712c-0.343-0.999-0.774-1.989-1.235-2.908c-1.275-2.544-3.329-4.616-5.415-6.205
					c-1.255-0.954-2.643-1.711-3.938-2.577c-2.048-1.372-4.142-2.584-5.734-4.735c0.162,2.672-0.811,5-1.498,7.368
					c-0.435,1.495-1.013,2.968-1.36,4.506c-0.579,2.557-0.82,5.463-0.16,8.233c0.732,3.074,2.052,6.086,4.266,8.249
					c1.818,1.776,4.073,2.885,6.333,3.092c1.241,0.114,2.468-0.045,3.606-0.46c4.706-1.713,7.018-7.607,5.505-13.352
					C123.535,84.518,123.41,84.114,123.273,83.712z"/>
				<path class="st0" d="M98.5,92.211c-0.664-0.822-1.406-1.603-2.155-2.312c-2.068-1.955-4.706-3.201-7.211-3.978
					c-1.506-0.467-3.069-0.703-4.582-1.075c-2.395-0.588-4.776-1.012-7.009-2.488c1.067,2.456,0.948,4.977,1.113,7.436
					c0.103,1.554,0.063,3.136,0.263,4.699c0.332,2.6,1.098,5.415,2.665,7.791c1.74,2.638,4.01,5.016,6.83,6.291
					c2.315,1.048,4.814,1.318,7.009,0.739c1.204-0.317,2.303-0.887,3.231-1.666c3.837-3.219,3.992-9.549,0.606-14.43
					C99.023,92.88,98.767,92.541,98.5,92.211z"/>
				<path class="st0" d="M78.128,108.672c-0.905-0.545-1.87-1.026-2.815-1.435c-2.613-1.131-5.518-1.397-8.136-1.271
					c-1.574,0.076-3.125,0.389-4.674,0.557c-2.45,0.265-4.834,0.683-7.436,0.058c1.843,1.942,2.593,4.353,3.588,6.608
					c0.629,1.424,1.132,2.925,1.854,4.326c1.201,2.33,2.885,4.712,5.17,6.41c2.537,1.884,5.483,3.343,8.57,3.576
					c2.533,0.193,4.975-0.409,6.839-1.702c1.022-0.71,1.861-1.621,2.467-2.67c2.505-4.338,0.485-10.339-4.365-13.767
					C78.848,109.121,78.493,108.89,78.128,108.672z"/>
				<path class="st0" d="M64.616,131.107c-1.037-0.202-2.108-0.325-3.136-0.386c-2.842-0.168-5.662,0.573-8.08,1.587
					c-1.453,0.609-2.804,1.433-4.201,2.122c-2.212,1.087-4.309,2.295-6.969,2.598c2.395,1.195,3.925,3.202,5.631,4.982
					c1.078,1.123,2.065,2.36,3.222,3.431c1.926,1.78,4.322,3.442,7.05,4.255c3.029,0.903,6.297,1.266,9.277,0.429
					c2.445-0.685,4.535-2.086,5.844-3.938c0.718-1.017,1.194-2.16,1.405-3.352c0.869-4.932-3.08-9.881-8.812-11.443
					C65.445,131.283,65.034,131.188,64.616,131.107z"/>
				<path class="st0" d="M59.591,156.81c-1.044,0.164-2.092,0.416-3.08,0.71c-2.728,0.813-5.124,2.476-7.05,4.255
					c-1.158,1.069-2.144,2.306-3.222,3.431c-1.708,1.78-3.264,3.63-5.66,4.825c2.66,0.303,4.784,1.668,6.996,2.755
					c1.397,0.687,2.748,1.513,4.201,2.122c2.418,1.013,5.238,1.756,8.08,1.587c3.155-0.188,6.349-0.965,8.864-2.77
					c2.065-1.48,3.549-3.511,4.144-5.7c0.326-1.203,0.384-2.438,0.173-3.631c-0.869-4.932-6.273-8.231-12.193-7.739
					C60.431,156.693,60.013,156.743,59.591,156.81z"/>
				<path class="st0" d="M63.66,182.683c-0.925,0.51-1.823,1.107-2.651,1.72c-2.285,1.697-3.969,4.08-5.17,6.41
					c-0.721,1.401-1.226,2.901-1.854,4.326c-0.995,2.256-1.825,4.528-3.668,6.47c2.604-0.624,5.065-0.069,7.517,0.197
					c1.549,0.168,3.1,0.481,4.674,0.557c2.618,0.124,5.523-0.142,8.136-1.271c2.901-1.255,5.637-3.078,7.382-5.633
					c1.433-2.097,2.133-4.513,1.946-6.774c-0.105-1.242-0.474-2.423-1.078-3.471c-2.505-4.338-8.711-5.59-14.106-3.101
					C64.41,182.284,64.033,182.476,63.66,182.683z"/>
				<path class="st0" d="M76.333,205.602c-0.694,0.797-1.334,1.664-1.902,2.524c-1.567,2.376-2.333,5.191-2.665,7.791
					c-0.2,1.563-0.16,3.145-0.263,4.699c-0.164,2.459-0.168,4.879-1.233,7.333c2.232-1.477,4.737-1.798,7.13-2.386
					c1.513-0.371,3.076-0.608,4.582-1.075c2.503-0.777,5.141-2.021,7.211-3.978c2.297-2.171,4.243-4.82,5.011-7.818
					c0.629-2.461,0.462-4.971-0.489-7.03c-0.523-1.131-1.273-2.115-2.202-2.892c-3.837-3.219-10.097-2.274-14.315,1.909
					C76.901,204.971,76.614,205.281,76.333,205.602z"/>
				<path class="st0" d="M96.08,222.806c-0.38,0.986-0.685,2.019-0.923,3.022c-0.66,2.77-0.418,5.676,0.16,8.233
					c0.348,1.536,0.925,3.009,1.36,4.506c0.687,2.367,1.511,4.641,1.349,7.313c1.592-2.151,3.835-3.309,5.884-4.681
					c1.295-0.866,2.683-1.623,3.938-2.577c2.086-1.587,4.14-3.659,5.415-6.205c1.415-2.825,2.339-5.981,2.034-9.061
					c-0.251-2.528-1.266-4.829-2.863-6.439c-0.878-0.884-1.92-1.551-3.058-1.965c-4.706-1.713-10.265,1.316-12.799,6.69
					C96.399,222.02,96.234,222.409,96.08,222.806z"/>
				<path class="st0" d="M120.522,232.218c-0.02,1.057,0.047,2.133,0.166,3.155c0.328,2.827,1.549,5.476,2.966,7.681
					c0.853,1.325,1.899,2.512,2.818,3.769c1.455,1.991,3.008,3.844,3.769,6.412c0.761-2.566,2.472-4.421,3.929-6.412
					c0.92-1.257,1.967-2.443,2.82-3.769c1.417-2.205,2.64-4.854,2.966-7.681c0.364-3.139,0.153-6.421-1.188-9.21
					c-1.1-2.29-2.842-4.104-4.894-5.07c-1.127-0.53-2.335-0.801-3.545-0.801c-5.009,0-9.196,4.749-9.739,10.664
					C120.552,231.369,120.529,231.793,120.522,232.218z"/>
				<path class="st0" d="M146.708,232.703c0.343,0.999,0.774,1.989,1.235,2.908c1.275,2.544,3.329,4.616,5.415,6.203
					c1.255,0.954,2.643,1.711,3.938,2.577c2.048,1.372,4.142,2.584,5.734,4.735c-0.162-2.672,0.811-5,1.498-7.368
					c0.435-1.495,1.013-2.968,1.36-4.506c0.579-2.557,0.82-5.463,0.16-8.233c-0.732-3.074-2.052-6.086-4.266-8.249
					c-1.818-1.776-4.073-2.885-6.333-3.092c-1.241-0.114-2.468,0.045-3.606,0.46c-4.706,1.713-7.018,7.607-5.505,13.352
					C146.445,231.896,146.569,232.299,146.708,232.703z"/>
				<path class="st0" d="M171.48,224.202c0.664,0.822,1.406,1.603,2.155,2.312c2.068,1.956,4.706,3.201,7.211,3.978
					c1.506,0.467,3.069,0.703,4.582,1.075c2.395,0.588,4.776,1.012,7.009,2.488c-1.067-2.456-0.948-4.977-1.113-7.436
					c-0.103-1.554-0.063-3.136-0.263-4.699c-0.332-2.6-1.098-5.415-2.665-7.791c-1.74-2.638-4.01-5.016-6.83-6.291
					c-2.315-1.048-4.814-1.318-7.009-0.739c-1.204,0.317-2.303,0.887-3.231,1.666c-3.837,3.219-3.992,9.549-0.606,14.43
					C170.958,223.534,171.213,223.872,171.48,224.202z"/>
				<path class="st0" d="M191.851,207.743c0.905,0.545,1.87,1.026,2.815,1.435c2.613,1.131,5.518,1.397,8.136,1.271
					c1.574-0.076,3.125-0.389,4.674-0.557c2.45-0.265,4.834-0.683,7.436-0.058c-1.843-1.942-2.593-4.353-3.588-6.608
					c-0.629-1.424-1.132-2.925-1.854-4.326c-1.201-2.33-2.885-4.712-5.17-6.41c-2.537-1.884-5.483-3.343-8.57-3.576
					c-2.533-0.193-4.975,0.409-6.839,1.702c-1.024,0.71-1.861,1.621-2.467,2.67c-2.505,4.337-0.485,10.337,4.365,13.767
					C191.132,207.292,191.487,207.523,191.851,207.743z"/>
				<path class="st0" d="M205.364,185.306c1.037,0.202,2.108,0.325,3.136,0.386c2.842,0.168,5.662-0.573,8.08-1.587
					c1.453-0.609,2.804-1.434,4.201-2.122c2.212-1.087,4.309-2.295,6.969-2.598c-2.395-1.195-3.925-3.202-5.631-4.982
					c-1.078-1.123-2.065-2.362-3.222-3.431c-1.926-1.78-4.322-3.442-7.05-4.255c-3.029-0.903-6.297-1.266-9.277-0.429
					c-2.445,0.685-4.535,2.086-5.844,3.938c-0.718,1.017-1.194,2.16-1.405,3.352c-0.869,4.932,3.08,9.881,8.812,11.443
					C204.534,185.13,204.945,185.225,205.364,185.306z"/>
				<path class="st0" d="M210.389,159.603c1.044-0.164,2.092-0.417,3.08-0.71c2.728-0.813,5.124-2.476,7.05-4.255
					c1.158-1.069,2.144-2.306,3.222-3.431c1.708-1.78,3.264-3.63,5.66-4.825c-2.66-0.303-4.784-1.668-6.996-2.755
					c-1.397-0.687-2.748-1.513-4.201-2.122c-2.418-1.013-5.238-1.756-8.08-1.587c-3.155,0.188-6.349,0.965-8.864,2.77
					c-2.065,1.48-3.549,3.511-4.144,5.7c-0.326,1.203-0.384,2.438-0.173,3.632c0.869,4.932,6.273,8.231,12.193,7.739
					C209.549,159.722,209.969,159.67,210.389,159.603z"/>
				<path class="st0" d="M206.319,133.732c0.925-0.51,1.823-1.107,2.651-1.72c2.285-1.697,3.969-4.08,5.17-6.41
					c0.721-1.401,1.226-2.901,1.854-4.326c0.995-2.256,1.827-4.528,3.668-6.47c-2.604,0.624-5.065,0.069-7.517-0.197
					c-1.549-0.168-3.1-0.481-4.674-0.557c-2.618-0.124-5.523,0.142-8.136,1.271c-2.901,1.255-5.637,3.078-7.382,5.633
					c-1.434,2.097-2.133,4.513-1.946,6.774c0.105,1.242,0.474,2.423,1.078,3.471c2.505,4.338,8.711,5.59,14.106,3.101
					C205.569,134.13,205.946,133.937,206.319,133.732z"/>
				<path class="st0" d="M193.647,110.811c0.694-0.797,1.334-1.664,1.902-2.524c1.567-2.376,2.333-5.191,2.665-7.791
					c0.2-1.563,0.16-3.145,0.263-4.699c0.164-2.459,0.168-4.879,1.233-7.333c-2.232,1.477-4.737,1.798-7.13,2.386
					c-1.513,0.371-3.076,0.608-4.582,1.075c-2.503,0.777-5.141,2.021-7.211,3.978c-2.297,2.171-4.243,4.82-5.011,7.818
					c-0.629,2.461-0.462,4.971,0.489,7.03c0.523,1.131,1.273,2.115,2.202,2.892c3.837,3.219,10.097,2.274,14.315-1.91
					C193.079,111.442,193.368,111.132,193.647,110.811z"/>
				<path class="st0" d="M173.899,93.607c0.38-0.986,0.685-2.019,0.923-3.022c0.66-2.77,0.418-5.676-0.16-8.233
					c-0.348-1.536-0.925-3.009-1.36-4.506c-0.687-2.368-1.511-4.641-1.349-7.313c-1.592,2.151-3.835,3.309-5.884,4.681
					c-1.295,0.865-2.683,1.623-3.938,2.577c-2.086,1.587-4.14,3.659-5.415,6.205c-1.415,2.825-2.339,5.981-2.034,9.061
					c0.251,2.528,1.266,4.829,2.863,6.439c0.878,0.884,1.92,1.551,3.058,1.965c4.706,1.713,10.265-1.316,12.799-6.69
					C173.58,94.395,173.746,94.006,173.899,93.607z"/>
			</g>
			<g>
				<path class="st0" d="M130.971,129.255l-14.508-20.523l19.259-3.711l-1.59,23.172
					C134.114,129.866,131.995,130.576,130.971,129.255z"/>
				<path class="st0" d="M116.914,135.319l-22.826-10.519l14.823-12.842l10.209,20.862
					C119.941,134.276,118.462,135.952,116.914,135.319z"/>
				<path class="st0" d="M107.772,147.598L82.744,149.9l6.415-18.534l19.274,12.963
					C109.872,145.184,109.429,147.372,107.772,147.598z"/>
				<path class="st0" d="M105.996,162.804l-20.523,14.508l-3.711-19.259l23.172,1.59
					C106.607,159.663,107.317,161.779,105.996,162.804z"/>
				<path class="st0" d="M112.06,176.861l-10.519,22.826l-12.842-14.823l20.862-10.209
					C111.017,173.835,112.692,175.314,112.06,176.861z"/>
				<path class="st0" d="M124.339,186.003l2.303,25.027l-18.534-6.416l12.963-19.274
					C121.924,183.904,124.113,184.345,124.339,186.003z"/>
				<path class="st0" d="M139.545,187.78l14.508,20.523l-19.259,3.711l1.59-23.172C136.403,187.169,138.52,186.459,139.545,187.78z"
					/>
				<path class="st0" d="M153.602,181.716l22.826,10.519l-14.823,12.842l-10.209-20.862
					C150.576,182.757,152.055,181.084,153.602,181.716z"/>
				<path class="st0" d="M162.743,169.435l25.027-2.303l-6.416,18.534l-19.274-12.963
					C160.645,171.852,161.086,169.663,162.743,169.435z"/>
				<path class="st0" d="M164.521,154.23l20.523-14.508l3.711,19.259l-23.172-1.59C163.91,157.373,163.2,155.254,164.521,154.23z"/>
				<path class="st0" d="M158.457,140.173l10.519-22.826l12.842,14.823l-20.862,10.209
					C159.498,143.2,157.825,141.721,158.457,140.173z"/>
				<path class="st0" d="M146.176,131.031l-2.303-25.027l18.534,6.415l-12.963,19.274
					C148.593,133.131,146.404,132.688,146.176,131.031z"/>
			</g>
		</g>
		<g>
			<g>
				
					<rect x="126.303" y="35.063" transform="matrix(0.0467 -0.9989 0.9989 0.0467 96.8018 179.9357)" class="st0" width="32.741" height="8.377"/>
				
					<rect x="97.378" y="27.6" transform="matrix(0.9547 -0.2977 0.2977 0.9547 -8.485 32.2287)" class="st0" width="8.378" height="32.742"/>
				
					<rect x="60.36" y="46.026" transform="matrix(0.7953 -0.6063 0.6063 0.7953 -24.6137 51.9094)" class="st0" width="8.378" height="32.743"/>
				
					<rect x="31.825" y="76.007" transform="matrix(0.5399 -0.8417 0.8417 0.5399 -61.1865 72.8153)" class="st0" width="8.377" height="32.74"/>
				
					<rect x="15.327" y="113.962" transform="matrix(0.2195 -0.9756 0.9756 0.2195 -111.9219 120.7641)" class="st0" width="8.377" height="32.741"/>
				
					<rect x="0.592" y="167.459" transform="matrix(0.9919 -0.1274 0.1274 0.9919 -21.7308 3.5598)" class="st0" width="32.739" height="8.377"/>
				
					<rect x="12.354" y="207.065" transform="matrix(0.8884 -0.459 0.459 0.8884 -93.7559 36.7498)" class="st0" width="32.743" height="8.378"/>
				
					<rect x="36.923" y="240.342" transform="matrix(0.6779 -0.7352 0.7352 0.6779 -162.6057 117.949)" class="st0" width="32.742" height="8.378"/>
				
					<rect x="71.433" y="263.19" transform="matrix(0.3856 -0.9227 0.9227 0.3856 -192.7546 245.2947)" class="st0" width="32.742" height="8.378"/>
				
					<rect x="111.629" y="272.917" transform="matrix(0.0467 -0.9989 0.9989 0.0467 -154.7808 392.0243)" class="st0" width="32.741" height="8.377"/>
				
					<rect x="164.929" y="256.002" transform="matrix(0.9547 -0.2977 0.2977 0.9547 -73.415 62.6929)" class="st0" width="8.378" height="32.742"/>
				
					<rect x="201.935" y="237.582" transform="matrix(0.7953 -0.6063 0.6063 0.7953 -111.7619 176.9611)" class="st0" width="8.378" height="32.743"/>
				
					<rect x="230.49" y="207.612" transform="matrix(0.5399 -0.8417 0.8417 0.5399 -80.5578 300.5848)" class="st0" width="8.377" height="32.74"/>
				
					<rect x="246.98" y="169.65" transform="matrix(0.2195 -0.9756 0.9756 0.2195 14.5526 390.2311)" class="st0" width="8.377" height="32.741"/>
				
					<rect x="237.346" y="140.509" transform="matrix(0.9919 -0.1274 0.1274 0.9919 -16.3677 33.5042)" class="st0" width="32.739" height="8.377"/>
				
					<rect x="225.598" y="100.917" transform="matrix(0.8884 -0.459 0.459 0.8884 -21.2493 122.7822)" class="st0" width="32.743" height="8.378"/>
				
					<rect x="201.026" y="67.628" transform="matrix(0.6779 -0.7352 0.7352 0.6779 17.2305 182.9586)" class="st0" width="32.742" height="8.378"/>
				
					<rect x="166.516" y="44.784" transform="matrix(0.3856 -0.9227 0.9227 0.3856 67.1823 198.8343)" class="st0" width="32.742" height="8.378"/>
			</g>
			<g>
				<polygon class="st0" points="129.568,62.382 121.259,63.45 115.722,24.127 124.03,23.06 				"/>
				<polygon class="st0" points="97.128,70.136 89.686,73.98 71.033,38.924 78.476,35.08 				"/>
				<polygon class="st0" points="69.297,88.515 63.619,94.675 34.1,68.111 39.78,61.953 				"/>
				<polygon class="st0" points="49.43,115.306 46.201,123.036 9.377,108.169 12.607,100.441 				"/>
				<polygon class="st0" points="39.924,147.275 39.533,155.643 -0.154,154.269 0.239,145.901 				"/>
				<polygon class="st0" points="41.927,180.568 44.421,188.565 6.656,200.848 4.163,192.851 				"/>
				<polygon class="st0" points="55.195,211.169 60.274,217.831 28.988,242.287 23.909,235.626 				"/>
				<polygon class="st0" points="78.128,235.386 85.179,239.909 64.145,273.591 57.095,269.069 				"/>
				<polygon class="st0" points="107.961,250.298 116.135,252.137 107.889,290.982 99.717,289.143 				"/>
				<polygon class="st0" points="141.097,254.108 149.404,253.041 154.943,292.363 146.634,293.431 				"/>
				<polygon class="st0" points="173.535,246.357 180.978,242.51 199.63,277.568 192.188,281.413 				"/>
				<polygon class="st0" points="201.366,227.976 207.046,221.818 236.563,248.381 230.885,254.539 				"/>
				<polygon class="st0" points="221.233,201.185 224.464,193.457 261.286,208.322 258.056,216.051 				"/>
				<polygon class="st0" points="230.739,169.215 231.13,160.849 270.817,162.223 270.426,170.589 				"/>
				<polygon class="st0" points="228.738,135.923 226.244,127.926 264.007,115.645 266.5,123.642 				"/>
				<polygon class="st0" points="215.47,105.322 210.391,98.661 241.677,74.204 246.754,80.866 				"/>
				<polygon class="st0" points="192.536,81.106 185.486,76.582 206.52,42.9 213.57,47.424 				"/>
				<polygon class="st0" points="162.702,66.192 154.53,64.355 162.776,25.509 170.948,27.348 				"/>
			</g>
		</g>
	</g>
	<g>
		<g>
			<path d="M304.023,106.187c0.373-11.684,1.228-23.047,2.239-33.771c1.439-15.045,3.415-30.676,4.962-40.547h17.231l17.66,59.645
				h0.64l17.553-59.645h17.231c1.708,10.458,3.467,23.368,5.014,40.332c1.122,13.071,1.814,22.993,2.243,33.983h-12.057
				c-0.427-14.937-3.042-48.549-5.39-60.767h-0.746l-17.927,60.713h-12.483l-18.033-60.713h-0.746
				c-2.562,14.939-4.962,44.708-5.39,60.767h-12.001V106.187z"/>
			<path d="M515.453,58.919c11.524-7.896,22.941-9.602,34.037-6.242l-1.708,8.803c-6.668-1.28-14.03-1.334-21.021,3.521v41.187
				h-11.309L515.453,58.919L515.453,58.919z"/>
			<path d="M555.915,53.316l5.121-1.174v-5.656c0-8.375,3.949-17.764,16.059-17.764c4.908,0,9.174,1.387,12.11,2.88l-2.669,7.896
				c-1.495-0.586-3.788-1.387-7.202-1.387c-4.322,0-6.991,2.454-6.991,9.658v4.374h11.899v8.696h-11.899v45.347h-11.309V60.839
				h-6.529L555.915,53.316z"/>
			<path d="M624.019,84.206c1.28,8.751,6.401,13.817,17.124,13.817c5.121,0,9.762-1.92,13.604-4.001l3.415,7.894
				c-5.815,3.361-11.578,5.229-19.046,5.229c-17.072,0-26.302-9.816-26.302-28.596c0-17.873,10.244-27.635,25.556-27.635
				c12.483,0,21.767,7.842,21.767,17.818c0,8.269-4.216,15.471-18.513,15.471h-17.606V84.206z M623.911,74.498h15.898
				c5.763,0,9.282-0.267,9.282-5.014c0-6.616-6.134-9.23-11.203-9.23C629.566,60.251,625.033,66.229,623.911,74.498z"/>
			<path d="M667.929,106.187V29.151h11.311v77.036H667.929z"/>
			<path d="M724.85,106.187l-1.387-5.281c-4.322,3.467-9.23,6.242-16.165,6.242c-11.951,0-21.181-8.321-21.181-27.901
				c0-19.739,13.657-28.329,25.074-28.329c6.403,0,9.282,1.228,11.843,2.081V29.153h11.578v77.036h-9.762V106.187z M710.765,97.81
				c4.055,0,8.749-1.28,12.537-4.214v-31.21c-2.187-1.174-6.08-2.135-10.029-2.135c-9.23,0-16.059,6.242-16.059,18.832
				C697.213,92.101,702.761,97.81,710.765,97.81z"/>
			<path d="M744.695,93.757c6.403,3.148,11.632,4.214,16.592,4.214c5.44,0,9.389-3.574,9.389-7.202
				c0-3.309-2.239-5.335-11.524-8.751c-8.963-3.148-16.38-5.921-16.38-15.898c0-10.083,8.376-15.206,19.632-15.206
				c7.258,0,12.806,1.441,17.979,4.162l-3.201,7.948c-5.067-1.974-8.803-2.827-12.645-2.827c-6.668,0-10.669,2.027-10.669,6.562
				c0,4.481,6.136,5.281,11.738,7.149c11.791,4.001,16.057,8.909,16.057,17.178c0,9.282-8.215,16.059-19.685,16.059
				c-9.656,0-16.699-2.827-20.592-5.014L744.695,93.757z"/>
			<path d="M420.932,50.709c-15.61,0-28.309,12.699-28.309,28.307c0,15.61,12.699,28.309,28.309,28.309s28.309-12.699,28.309-28.309
				C449.241,63.408,436.54,50.709,420.932,50.709z M420.99,97.81c-9.539,0-16.109-5.229-16.109-19.099
				c0-12.537,6.513-18.459,16.109-18.459c9.254,0,15.994,5.709,15.994,18.459C436.982,92.262,430.586,97.81,420.99,97.81z"/>
			<path d="M481.93,50.709c-15.61,0-28.309,12.699-28.309,28.307c0,15.61,12.699,28.309,28.309,28.309
				c15.61,0,28.309-12.699,28.309-28.309C510.239,63.408,497.539,50.709,481.93,50.709z M481.987,97.81
				c-9.539,0-16.109-5.229-16.109-19.099c0-12.537,6.513-18.459,16.109-18.459c9.254,0,15.994,5.709,15.994,18.459
				C497.981,92.262,491.584,97.81,481.987,97.81z"/>
			<g>
				<path d="M593.873,106.187V52.144h11.311v54.043H593.873z"/>
				<circle cx="599.493" cy="39.144" r="6.785"/>
			</g>
		</g>
		<g>
			<path d="M304.241,199.061v-74.656h24.636c16.28,0,26.134,8.408,26.134,23.886c0,17.674-12.05,25.653-27.689,25.653h-11.14v25.117
				H304.241z M316.183,164.517h11.246c8.783,0,15.959-4.499,15.959-15.317c0-12.478-8.247-15.157-16.441-15.157h-10.765V164.517z"/>
			<path d="M358.946,151.61c11.567-7.925,23.029-9.639,34.169-6.266l-1.713,8.837c-6.695-1.286-14.086-1.338-21.102,3.536v41.346
				h-11.354V151.61z"/>
			<path d="M438.143,199.061c-9.8-16.976-16.12-35.455-19.335-54.25l12.265-0.536c1.284,11.782,7.871,34.007,13.817,44.665h0.642
				c5.837-10.604,11.944-30.848,13.871-44.665l12.211,0.536c-2.999,18.798-9.908,37.489-19.281,54.25H438.143z"/>
			<path d="M500.956,143.577c8.354,0,15.745,2.571,21.048,4.98v50.504h-9.854l-1.394-5.303c-4.176,3.161-8.568,6.266-16.226,6.266
				c-12.425,0-21.261-9.21-21.261-27.849C473.269,153.323,484.836,143.577,500.956,143.577z M497.904,190.653
				c5.088,0,9.962-2.036,12.8-4.661v-31.061c-1.286-0.536-5.357-1.928-10.069-1.928c-9.639,0-16.226,6.641-16.226,18.852
				C484.407,184.921,489.977,190.653,497.904,190.653z"/>
			<path d="M527.996,145.934l6.32-1.125l1.392-13.282h9.962v13.282h12.532v8.729H545.67v28.545c0,5.141,1.498,8.568,5.999,8.568
				c3.641,0,5.783-1.073,8.087-1.982l2.892,7.764c-4.017,2.142-7.82,3.588-13.819,3.588c-8.568,0-14.513-5.303-14.513-16.87v-29.614
				h-6.32V145.934z"/>
			<path d="M575.23,176.996c1.284,8.783,6.424,13.87,17.191,13.87c5.141,0,9.8-1.928,13.659-4.017l3.428,7.926
				c-5.838,3.374-11.623,5.247-19.12,5.247c-17.137,0-26.403-9.854-26.403-28.706c0-17.941,10.283-27.741,25.655-27.741
				c12.532,0,21.85,7.872,21.85,17.887c0,8.302-4.232,15.532-18.585,15.532H575.23V176.996z M575.122,167.248h15.959
				c5.784,0,9.319-0.267,9.319-5.034c0-6.641-6.159-9.264-11.246-9.264C580.798,152.95,576.247,158.947,575.122,167.248z"/>
			<g>
				<path d="M399.747,199.061v-54.25H411.1v54.25H399.747z"/>
				<g>
					<circle cx="405.44" cy="131.842" r="6.785"/>
				</g>
			</g>
		</g>
		<g>
			<path d="M304.265,272.852v-55.495h33.322l-0.079,7.364h-24.405v16.403h20.783v7.007h-20.783v17.357h25.161v7.366h-33.998V272.852
				z"/>
			<path d="M345.868,287.861c3.145-3.783,7.324-9.713,10.191-15.009h-1.275c-7.883-13.734-12.142-27.032-14.172-40.33l9.037-0.397
				c1.394,11.585,5.175,24.364,10.072,33.482h0.478c5.932-10.79,9.196-25.282,10.033-33.482l9.037,0.397
				c-1.434,12.82-8.121,30.855-14.133,40.33c-2.468,4.697-8.002,13.935-11.506,19.03L345.868,287.861z"/>
			<path d="M389.734,256.449c0.956,6.527,4.778,10.31,12.779,10.31c3.823,0,7.286-1.434,10.153-2.986l2.548,5.893
				c-4.34,2.508-8.639,3.902-14.214,3.902c-12.739,0-19.627-7.326-19.627-21.34c0-13.336,7.643-20.62,19.07-20.62
				c9.315,0,16.242,5.851,16.242,13.298c0,6.17-3.145,11.545-13.815,11.545h-13.136V256.449z M389.653,249.202h11.863
				c4.3,0,6.929-0.2,6.929-3.742c0-4.937-4.58-6.886-8.361-6.886C393.874,238.574,390.49,243.033,389.653,249.202z"/>
			<path d="M447.494,272.852v-55.495h8.839v23.567h26.592v-23.567h8.879v55.495h-8.879v-24.562h-26.592v24.562H447.494z"/>
			<path d="M515.576,231.607c10.033,0,19.429,5.692,19.429,20.741c0,13.695-7.326,21.219-19.429,21.219
				c-12.063,0-19.466-7.326-19.466-21.259C496.109,239.609,503.275,231.607,515.576,231.607z M515.617,266.6
				c6.69,0,11.147-4.142,11.147-14.252c0-9.515-4.697-13.774-11.147-13.774c-6.69,0-11.226,4.419-11.226,13.774
				C504.389,262.7,508.968,266.6,515.617,266.6z"/>
			<path d="M540.259,263.576c4.778,2.349,8.678,3.145,12.38,3.145c4.061,0,7.007-2.667,7.007-5.373c0-2.468-1.672-3.981-8.601-6.529
				c-6.688-2.348-12.221-4.419-12.221-11.863c0-7.524,6.251-11.345,14.65-11.345c5.415,0,9.555,1.073,13.417,3.105l-2.389,5.932
				c-3.783-1.475-6.569-2.111-9.434-2.111c-4.977,0-7.963,1.513-7.963,4.897c0,3.345,4.578,3.942,8.758,5.335
				c8.797,2.986,11.984,6.648,11.984,12.818c0,6.929-6.131,11.984-14.692,11.984c-7.207,0-12.461-2.111-15.368-3.741
				L540.259,263.576z"/>
			<path d="M572.351,237.777c2.986-2.268,11.028-6.091,17.876-6.091c11.744,0,18.154,5.536,18.154,20.424
				c0,10.949-5.135,21.459-17.676,21.459c-5.415,0-7.683-0.876-9.914-1.634v16.284h-8.439v-50.442H572.351z M580.791,265.206
				c1.83,0.637,3.981,1.394,7.883,1.394c8.797,0,11.625-7.923,11.625-14.492c0-9.396-3.979-13.336-10.191-13.336
				c-3.821,0-7.604,2.068-9.315,3.224v23.21H580.791z"/>
			<path d="M627.613,233.358l4.697-0.837l1.035-9.872h7.405v9.872h9.315v6.489h-9.315v21.219c0,3.823,1.114,6.37,4.457,6.37
				c2.706,0,4.3-0.797,6.012-1.475l2.149,5.772c-2.986,1.594-5.813,2.669-10.271,2.669c-6.37,0-10.79-3.942-10.79-12.541v-22.016
				h-4.697v-5.651H627.613z"/>
			<path d="M675.078,231.607c6.212,0,11.704,1.911,15.646,3.702v37.543h-7.326l-1.035-3.942c-3.103,2.348-6.369,4.659-12.063,4.659
				c-9.236,0-15.804-6.848-15.804-20.702C654.495,238.852,663.096,231.607,675.078,231.607z M672.81,266.6
				c3.781,0,7.404-1.513,9.515-3.464v-23.091c-0.956-0.398-3.981-1.432-7.485-1.432c-7.166,0-12.063,4.935-12.063,14.012
				C662.777,262.341,666.917,266.6,672.81,266.6z"/>
			<path d="M697.415,272.852v-57.487h8.439v57.487H697.415z"/>
			<g>
				<path d="M613.027,272.857v-40.343h8.442v40.343H613.027z"/>
				<g>
					<circle cx="617.259" cy="222.871" r="5.045"/>
				</g>
			</g>
		</g>
	</g>
</g>
</svg>
