<?xml version="1.0" encoding="utf-8"?>
<!-- Generator: Adobe Illustrator 15.0.0, SVG Export Plug-In  -->
<!DOCTYPE svg PUBLIC "-//W3C//DTD SVG 1.1//EN" "http://www.w3.org/Graphics/SVG/1.1/DTD/svg11.dtd" [
	<!ENTITY ns_flows "http://ns.adobe.com/Flows/1.0/">
]>
<svg version="1.1"
	 xmlns="http://www.w3.org/2000/svg" xmlns:xlink="http://www.w3.org/1999/xlink" xmlns:a="http://ns.adobe.com/AdobeSVGViewerExtensions/3.0/"
	 x="0px" y="0px" width="214px" height="71px" viewBox="-0.589 -0.404 214 71"
	 overflow="visible" enable-background="new -0.589 -0.404 214 71" xml:space="preserve">
<defs>
</defs>
<g>
	<defs>
		<rect id="SVGID_1_" width="212.599" height="70.002"/>
	</defs>
	<clipPath id="SVGID_2_">
		<use xlink:href="#SVGID_1_"  overflow="visible"/>
	</clipPath>
	<path clip-path="url(#SVGID_2_)" fill="#003A65" d="M94.388,23.169c-4.993,0-8.251-3.568-8.251-8.835
		c0-5.169,3.476-8.898,8.468-8.898c4.747,0,7.725,3.37,7.725,9.03c0,0.228,0,0.458,0,0.687H91.1c0,2.945,1.273,4.546,3.474,4.546
		c1.553,0,2.729-0.916,3.164-2.519l4.495,0.394C101.181,21.14,98.328,23.169,94.388,23.169 M97.49,12.405
		c-0.032-2.453-1.18-3.762-3.164-3.762c-1.831,0-3.04,1.341-3.164,3.762H97.49z"/>
	<path clip-path="url(#SVGID_2_)" fill="#003A65" d="M204.656,23.169c-4.99,0-8.249-3.568-8.249-8.835
		c0-5.169,3.473-8.898,8.468-8.898c4.747,0,7.724,3.37,7.724,9.03c0,0.228,0,0.458,0,0.687h-11.229c0,2.945,1.273,4.546,3.473,4.546
		c1.553,0,2.731-0.916,3.165-2.519l4.498,0.394C211.452,21.14,208.599,23.169,204.656,23.169 M207.759,12.405
		c-0.031-2.453-1.18-3.762-3.164-3.762c-1.828,0-3.037,1.341-3.164,3.762H207.759z"/>
	<polyline clip-path="url(#SVGID_2_)" fill="#003A65" points="102.789,5.894 108.051,5.894 110.498,15.772 112.831,5.894 
		117.185,5.894 119.627,15.936 122.543,5.894 126.47,5.894 121.635,22.712 117.224,22.712 114.446,11.782 111.672,22.712 
		107.646,22.712 	"/>
	<path clip-path="url(#SVGID_2_)" fill="#003A65" d="M135.347,8.839c-2.126,0-3.589,1.831-3.648,5.43
		c-0.063,3.6,1.405,5.464,3.461,5.464c1.614,0,3.134-1.243,3.412-3.436l4.18,0.489c-0.545,3.895-3.635,6.383-7.924,6.383
		c-4.971,0-8.407-3.568-8.316-8.835c0.09-5.364,3.683-8.898,8.996-8.898c4.043,0,6.817,2.357,7.295,6.379l-4.333,0.458
		C138.198,10.05,136.819,8.839,135.347,8.839"/>
	<path clip-path="url(#SVGID_2_)" fill="#003A65" d="M155.099,19.995c-1.087,2.028-2.92,3.14-5.275,3.14
		c-3.473,0-5.58-2.027-5.58-5.136c0-3.958,3.595-6.052,10.761-6.116v-0.721c0-1.701-0.897-2.583-2.667-2.583
		c-1.956,0-3.072,0.818-3.32,2.354l-4.342-0.49c0.742-3.306,3.409-5.006,7.908-5.006c5.026,0,6.98,1.963,6.98,6.576v7.458
		c0,1.375,0.122,2.455,0.464,3.242h-4.62C155.221,21.925,155.128,21.01,155.099,19.995 M149.143,17.705
		c0,1.373,0.866,2.19,2.42,2.19c1.95,0,3.441-1.635,3.441-3.926v-1.503C151.123,14.532,149.143,15.709,149.143,17.705z"/>
	<path clip-path="url(#SVGID_2_)" fill="#003A65" d="M165.317,17.443c0.402,1.536,1.797,2.419,3.877,2.419
		c1.765,0,2.759-0.785,2.759-1.831c0-1.471-1.396-1.405-3.876-1.929c-3.968-0.818-5.957-2.161-5.957-5.202
		c0-3.141,2.544-5.496,6.763-5.496c3.445,0,5.77,1.536,6.762,4.385l-3.752,0.719c-0.558-1.343-1.582-1.898-3.194-1.898
		c-1.552,0-2.389,0.589-2.389,1.668c0,1.471,1.614,1.406,4.619,2.062c3.632,0.784,5.397,2.093,5.397,5.036
		c0,3.305-2.791,5.692-7.534,5.692c-3.846,0-6.577-1.928-7.352-5.069"/>
	<rect x="189.489" clip-path="url(#SVGID_2_)" fill="#003A65" width="4.818" height="22.712"/>
	<path clip-path="url(#SVGID_2_)" fill="#003A65" d="M91.363,36.405c0.695-1.159,1.512-2.032,2.455-2.608
		c0.94-0.58,2.003-0.871,3.196-0.871c1.021,0,1.879,0.205,2.571,0.611c0.694,0.407,1.248,1.055,1.666,1.935
		c0.42,0.88,0.629,1.868,0.629,2.96v7.631c0,0.572,0.125,0.977,0.377,1.213c0.253,0.24,0.675,0.361,1.268,0.361h1.085v1.23h-8.191
		v-1.23h0.778c0.725,0,1.234-0.115,1.52-0.352c0.287-0.23,0.434-0.58,0.434-1.042v-6.677c0-1.449-0.22-2.525-0.657-3.225
		c-0.614-0.999-1.545-1.5-2.793-1.5c-1.237,0-2.27,0.508-3.096,1.515c-0.825,1.011-1.241,2.323-1.241,3.941v5.775
		c0,0.567,0.131,0.968,0.39,1.21c0.259,0.232,0.682,0.354,1.274,0.354h1.069v1.23h-8.331v-1.23h1.078
		c0.538,0,0.95-0.111,1.232-0.334c0.281-0.219,0.421-0.502,0.421-0.835V36.337c0-0.668-0.177-1.175-0.536-1.522
		c-0.356-0.345-0.868-0.521-1.539-0.521H85.63V33.2l5.532-0.279"/>
	<path clip-path="url(#SVGID_2_)" fill="#003A65" d="M104.937,33.268l6.278-0.206V46.52c0,0.367,0.093,0.631,0.27,0.783
		c0.254,0.223,0.577,0.334,0.966,0.334h1.769v1.23h-8.942v-1.23h1.653c0.487,0,0.849-0.121,1.077-0.359
		c0.225-0.238,0.339-0.588,0.339-1.043v-9.849c0-0.622-0.178-1.092-0.532-1.409c-0.357-0.318-0.889-0.476-1.59-0.476h-1.287
		 M109.331,26.7c0.5,0,0.939,0.189,1.319,0.569c0.377,0.379,0.564,0.826,0.564,1.338c0,0.504-0.183,0.937-0.548,1.305
		c-0.369,0.368-0.808,0.552-1.322,0.552c-0.511,0-0.955-0.186-1.324-0.56c-0.375-0.375-0.56-0.812-0.56-1.315
		c0-0.499,0.185-0.94,0.566-1.32C108.405,26.89,108.839,26.7,109.331,26.7z"/>
	<path clip-path="url(#SVGID_2_)" fill="#003A65" d="M174.077,33.268l6.277-0.206V46.52c0,0.367,0.09,0.631,0.268,0.783
		c0.255,0.223,0.579,0.334,0.967,0.334h1.769v1.23h-8.943v-1.23h1.654c0.489,0,0.849-0.121,1.073-0.359
		c0.229-0.238,0.342-0.588,0.342-1.043v-9.849c0-0.622-0.176-1.092-0.532-1.409c-0.356-0.318-0.888-0.476-1.592-0.476h-1.282
		 M178.467,26.7c0.502,0,0.942,0.189,1.318,0.569c0.38,0.379,0.569,0.826,0.569,1.338c0,0.504-0.184,0.937-0.553,1.305
		c-0.366,0.368-0.802,0.552-1.317,0.552c-0.511,0-0.953-0.186-1.329-0.56c-0.371-0.375-0.557-0.812-0.557-1.315
		c0-0.499,0.186-0.94,0.567-1.32C177.543,26.89,177.977,26.7,178.467,26.7z"/>
	<path clip-path="url(#SVGID_2_)" fill="#003A65" d="M113.132,33.2h7.72v1.163c-1.026,0.021-1.685,0.112-1.969,0.272
		c-0.287,0.159-0.427,0.393-0.427,0.692c0,0.244,0.05,0.484,0.146,0.729l4.125,9.256l3.801-8.969
		c0.054-0.156,0.079-0.312,0.079-0.466c0-0.811-0.806-1.314-2.409-1.515V33.2h6.482v1.163c-0.658,0.067-1.18,0.243-1.566,0.529
		c-0.396,0.287-0.697,0.67-0.908,1.156l-5.745,13.3h-0.929l-6.087-13.67c-0.227-0.479-0.496-0.816-0.815-1.011
		c-0.312-0.192-0.814-0.295-1.498-0.305"/>
	<path clip-path="url(#SVGID_2_)" fill="#003A65" d="M144.465,41.135h-11.269c0.055,2.389,0.505,4.073,1.351,5.051
		c0.963,1.104,2.194,1.656,3.686,1.656c2.203,0,3.974-1.229,5.311-3.693l1.062,0.465c-1.631,3.156-3.979,4.735-7.05,4.735
		c-2.096,0-3.854-0.761-5.283-2.276c-1.435-1.521-2.146-3.463-2.146-5.829c0-2.545,0.703-4.6,2.111-6.169
		c1.407-1.568,3.141-2.354,5.2-2.354c1.514,0,2.823,0.393,3.921,1.174c1.101,0.778,1.934,1.903,2.486,3.359
		C144.238,38.281,144.443,39.576,144.465,41.135 M133.196,39.973h6.904c0.406,0,0.723-0.134,0.95-0.409
		c0.229-0.274,0.339-0.74,0.339-1.399c0-1.226-0.387-2.266-1.162-3.128c-0.777-0.86-1.692-1.289-2.749-1.289
		c-1.178,0-2.177,0.519-2.996,1.561C133.661,36.344,133.23,37.898,133.196,39.973z"/>
	<path clip-path="url(#SVGID_2_)" fill="#003A65" d="M161.109,43.055c0.693,1.933,1.489,3.272,2.387,4.016
		c0.898,0.744,2.004,1.115,3.323,1.115c1.214,0,2.147-0.27,2.804-0.803c0.649-0.535,0.978-1.214,0.978-2.037
		c0-0.471-0.119-0.881-0.359-1.236c-0.24-0.356-0.574-0.621-0.997-0.797c-0.421-0.17-1.523-0.426-3.297-0.77
		c-1.697-0.336-2.876-0.691-3.545-1.056c-0.662-0.369-1.186-0.878-1.554-1.528c-0.372-0.646-0.559-1.352-0.559-2.111
		c0-1.146,0.38-2.19,1.148-3.129c0.987-1.193,2.369-1.793,4.143-1.793c1.355,0,2.609,0.44,3.761,1.313l1.102-1.178h0.68l0.437,5.61
		h-1.096c-0.49-1.625-1.152-2.791-1.987-3.51c-0.835-0.714-1.866-1.072-3.089-1.072c-1.057,0-1.886,0.263-2.489,0.794
		c-0.603,0.527-0.899,1.168-0.899,1.93c0,0.673,0.275,1.229,0.83,1.669c0.547,0.455,1.617,0.807,3.213,1.068
		c1.851,0.311,3.061,0.571,3.616,0.785c0.905,0.336,1.608,0.848,2.109,1.541c0.494,0.695,0.744,1.543,0.744,2.54
		c0,1.375-0.542,2.544-1.624,3.497c-1.087,0.953-2.462,1.435-4.132,1.435c-1.545,0-2.979-0.511-4.3-1.524l-1.221,1.388h-0.887
		l-0.334-6.157"/>
	<path clip-path="url(#SVGID_2_)" fill="#003A65" d="M194.878,33.2h7.512v1.163h-0.705c-0.661,0-1.111,0.085-1.349,0.251
		c-0.239,0.171-0.357,0.416-0.357,0.73c0,0.142,0.034,0.283,0.101,0.422l4.379,9.375l3.27-7.771c0.23-0.555,0.35-1.091,0.35-1.619
		c0-0.407-0.162-0.724-0.482-0.95c-0.321-0.227-0.965-0.371-1.928-0.438V33.2h6.487v1.163c-1.234,0.121-2.062,0.673-2.486,1.654
		l-5.873,13.488c-0.998,2.289-1.994,3.859-2.984,4.71c-1.001,0.858-2.08,1.291-3.227,1.291c-0.834,0-1.512-0.233-2.015-0.687
		c-0.506-0.462-0.766-1.026-0.766-1.695c0-0.502,0.163-0.916,0.473-1.236c0.312-0.326,0.7-0.487,1.167-0.487
		c0.428,0,0.782,0.138,1.071,0.413c0.287,0.277,0.435,0.607,0.435,0.994c0,0.121-0.023,0.287-0.066,0.498
		c-0.045,0.162-0.065,0.283-0.065,0.363c0,0.269,0.171,0.397,0.519,0.397c0.368,0,0.786-0.129,1.25-0.396
		c0.465-0.261,0.9-0.681,1.301-1.263c0.406-0.584,1.109-1.895,2.11-3.949l-5.926-12.692c-0.213-0.432-0.478-0.758-0.793-0.972
		c-0.323-0.21-0.788-0.354-1.4-0.432"/>
	<polyline clip-path="url(#SVGID_2_)" fill="#003A65" points="64.592,0.001 70.743,0.001 79.325,14.016 79.318,0.001 84.117,0.001 
		84.117,22.707 78.994,22.707 69.394,6.94 69.384,22.707 64.592,22.707 	"/>
	<path clip-path="url(#SVGID_2_)" fill="#003A65" d="M61.74,26.123h10.253v1.231h-1.718c-0.606,0-1.031,0.103-1.272,0.302
		c-0.243,0.2-0.363,0.505-0.363,0.919V40.99c0,1.459,0.129,2.562,0.383,3.309c0.375,1.104,1.066,1.982,2.07,2.639
		c1.004,0.658,2.314,0.984,3.934,0.984c2.238,0,3.947-0.578,5.122-1.746c1.175-1.162,1.764-2.717,1.764-4.666v-9.811
		c0-1.006-0.071-1.763-0.211-2.283c-0.142-0.515-0.343-0.919-0.605-1.209c-0.261-0.289-0.597-0.504-0.999-0.644
		c-0.403-0.139-1.077-0.209-2.015-0.209v-1.231h9.37v1.231h-0.665c-1.045,0-1.82,0.282-2.332,0.845
		c-0.51,0.563-0.767,1.38-0.767,2.451v10.624c0,2.655-0.754,4.689-2.268,6.106c-1.703,1.591-3.967,2.39-6.792,2.39
		c-2.446,0-4.373-0.347-5.774-1.045c-1.403-0.696-2.422-1.698-3.053-3.001c-0.481-0.991-0.716-2.243-0.716-3.748V28.576
		c0-0.378-0.132-0.677-0.391-0.896c-0.262-0.215-0.65-0.325-1.168-0.325H61.74"/>
	<path clip-path="url(#SVGID_2_)" fill="#003A65" d="M187.317,19.221c-0.537,0.106-1.032,0.153-1.457,0.153
		c-1.667,0-2.025-0.751-2.025-2.653V9.165h3.482V5.894h-3.482V1.016l-4.864,0.894v3.984h-2.167v3.271h2.167v8.081
		c0,4.124,1.567,5.924,5.519,5.924c0.897,0,1.848-0.106,2.828-0.289"/>
	<path clip-path="url(#SVGID_2_)" fill="#003A65" d="M193.843,42.92c-0.091,1.647-0.401,2.829-0.934,3.548
		c-0.536,0.716-1.181,1.071-1.938,1.071c-0.635,0-1.159-0.232-1.564-0.705c-0.413-0.471-0.62-1.15-0.62-2.036V34.561h4.907v-1.357
		h-4.907v-6.508h-1.147c-0.104,2.185-0.636,3.897-1.604,5.125c-0.67,0.84-1.65,1.369-2.933,1.586v1.154h2.781v10.711
		c0,1.172,0.366,2.115,1.106,2.834c0.741,0.723,1.766,1.081,3.075,1.081c1.425,0,2.581-0.515,3.475-1.54
		c0.889-1.025,1.37-2.604,1.438-4.727"/>
	<path clip-path="url(#SVGID_2_)" fill="#003A65" d="M156.978,32.638c-2.731,0-5.031,3.197-5.978,6.769v-6.48l-5.667,0.274v1.233
		h1.355c0.595,0,1.053,0.173,1.371,0.524c0.322,0.353,0.48,0.903,0.48,1.661v9.97c0,0.286-0.134,0.534-0.403,0.741
		c-0.265,0.205-0.661,0.307-1.184,0.307h-1.551v1.23h9.764v-1.23h-1.99c-0.644,0-1.098-0.098-1.364-0.301
		c-0.268-0.199-0.402-0.49-0.402-0.866v-2.909c0-3.009,1.269-8.145,3.812-8.145c0.693,0,0.555,1.111,1.938,1.111
		c1.111,0,1.896-0.836,1.896-1.9C159.055,33.424,158.083,32.638,156.978,32.638"/>
	<path clip-path="url(#SVGID_2_)" fill="#003A65" d="M0,0.001c0,0,0.001,13.515,0.001,22.697c0,33.392,29.841,47.304,29.841,47.304
		S59.68,56.09,59.68,22.698c0-9.182,0.002-22.697,0.002-22.697"/>
	<rect x="0.98" y="0.997" clip-path="url(#SVGID_2_)" fill="#FFFFFF" width="57.751" height="21.73"/>
	<path clip-path="url(#SVGID_2_)" fill="#FFFFFF" d="M48.974,44.792c0-1.888-0.281-3.754-0.823-5.55
		c-5.193,3.408-10.352,4.32-13.41,2.457c0.168-0.219,0.27-0.49,0.27-0.786c0-0.699-0.568-1.271-1.269-1.271
		c-0.295,0-0.566,0.103-0.782,0.271c-1.865-3.066-0.956-8.234,2.449-13.438c-1.791-0.543-3.653-0.825-5.538-0.825
		c-1.885,0-3.747,0.282-5.538,0.825c3.404,5.204,4.312,10.372,2.448,13.438c-0.214-0.17-0.486-0.271-0.78-0.271
		c-0.702,0-1.271,0.568-1.271,1.271c0,0.296,0.102,0.567,0.27,0.782c-3.057,1.867-8.218,0.955-13.411-2.455
		c-0.54,1.794-0.824,3.66-0.824,5.55h0.002c0,1.892,0.283,3.755,0.824,5.549c5.193-3.409,10.355-4.321,13.412-2.452
		c-0.169,0.219-0.271,0.488-0.271,0.783c0,0.704,0.569,1.273,1.271,1.273c0.294,0,0.566-0.1,0.78-0.271
		c1.864,3.066,0.957,8.234-2.448,13.439c1.791,0.541,3.653,0.826,5.538,0.826c1.884,0,3.747-0.285,5.538-0.826
		c-3.404-5.205-4.312-10.373-2.45-13.439c0.217,0.172,0.488,0.271,0.783,0.271c0.7,0,1.269-0.569,1.269-1.273
		c0-0.295-0.101-0.564-0.27-0.779c3.058-1.873,8.217-0.959,13.412,2.452C48.695,48.547,48.975,46.682,48.974,44.792"/>
	<path clip-path="url(#SVGID_2_)" fill="#003A65" d="M33.326,44.79c0,1.913-1.547,3.464-3.455,3.464
		c-1.909,0-3.456-1.551-3.456-3.464c0-1.911,1.546-3.46,3.456-3.46C31.779,41.33,33.326,42.879,33.326,44.79"/>
	<path clip-path="url(#SVGID_2_)" fill="#D91A35" d="M11.572,14.296c-1.472-1.093-3.328-1.09-3.65-1.09
		c0.366-0.675,0.616-0.833,1.257-1.198c-2.312,0-2.577-0.629-2.657-1.163c0.622,0.086,1.34-0.088,1.628-0.377
		c-1.679-0.088-2.231-1.222-2.426-1.623C7.03,8.75,7.015,8.089,6.84,7.685C6.708,7.377,6.263,7.117,5.819,7.256
		C5.438,7.373,5.047,7.924,4.646,7.958c-0.374,0.029-0.422-0.351-0.422-0.58c-0.424,0-0.79,0.208-1.058,0.479
		c0.099-1.516,1.711-2.119,2.729-1.938c0,0-0.046-0.639-0.251-0.845c-0.31-0.311-0.706-0.276-0.996-0.49
		C4.454,4.438,4.451,4.109,4.774,3.954c-0.32-0.423-1.193-0.462-1.193-0.462c1.807-1.343,2.994,0.368,3.374,1.68
		c0.483-0.6,0.533-0.936,0.47-1.269c-0.068-0.365-0.36-0.628-0.328-0.837c0.045-0.311,0.382-0.248,0.382-0.248
		C7.439,2.335,7.05,1.958,6.72,1.783c0,0,1.458-0.129,2.045,1.368c0.545,1.392-0.163,2.257-0.163,2.257s0.542,0.066,0.772-0.226
		C9.621,4.87,9.479,4.479,9.73,4.264c0.251-0.214,0.531,0.192,0.531,0.192c0.272-0.272,0.089-0.942,0.035-1.127
		c0,0,0.762,0.479,0.667,1.372c-0.063,0.599-0.661,1.097-0.916,1.423c-0.25,0.328-0.984,1.038,0.199,3.088
		c0.722,1.252,1.435,1.751,1.824,1.933C11.831,11.616,11.389,12.924,11.572,14.296"/>
	<path clip-path="url(#SVGID_2_)" fill="#D91A35" d="M5.821,17.047c-1.413,0.104-3.939,0.678-2.648,3.298
		c0-0.575,0.187-1.084,0.525-1.251c0.117,0.402,0.415,0.474,0.639,0.316c0.208-0.144,0.46-0.591,0.706-0.759
		c0.236-0.161,0.558-0.254,0.981-0.134c-1.15,1.933,0.192,3.81,1.238,3.703c-0.596-0.414-0.571-0.961-0.554-1.157
		c0,0,0.37,0.081,0.51-0.212c0.115-0.237-0.071-0.708,0.053-1.151c0.087-0.31,0.369-0.449,0.598-0.413
		c0.359,0.055,0.484,0.38,0.472,0.672c-0.017,0.37-0.213,0.693-0.213,0.693c0.625,0.45,2.349-0.095,3.375-0.985
		c0,0.27-0.027,0.752-0.293,1.247c0.922,0.162,2.521-0.837,2.99-1.677c0.062,0.404-0.023,1.27-0.49,1.826
		c0.699,0.163,2.598-0.414,4.069-1.89c0.089,0.829,1.325,2.03,2.691,1.383c0,0-0.626-0.351-0.626-0.848
		c0-0.806,0.885-1.422,1.986-1.903c1.277-0.56,3.37-0.812,5.489-1.823c3.905-1.855,4.604-3.649,7.814-3.649
		c1.399,0,2.774,0.325,3.476,1.48c0.7,1.154,0.524,2.519,1.312,3.271c0.789,0.755,2.161,0.199,2.906-0.03
		c1.87-0.574,4.611-1.725,6.282-1.842c1.668-0.116,2.113,1.134,2.147,1.235c0.13,0.365-0.023,0.596-0.263,0.578
		c-0.559-0.034-1.57-0.291-2.157,0.044c-0.84,0.476-0.604,1.631-0.604,1.631c0.215-0.32,0.729-0.86,1.278-0.839
		c0.018,0.049,0.114,0.67,0.626,0.44c0.348-0.155,0.734-0.629,1.412-0.508c-0.649,0.561-1.863,2.758-0.133,3.694
		c-0.256-0.383-0.291-1.097-0.085-1.431c0,0,0.501,0.333,0.829-0.145c0.133-0.201-0.052-0.747,0.06-1.18
		c0.097-0.375,0.465-0.593,0.465-0.593c0.141,0.469,1.005,1.934,3.26,1.802c-0.519-0.204-0.841-0.565-0.926-0.824
		c0.265-0.189,0.388-0.634,0.117-0.747c-0.252-0.101-0.77-0.012-1.014-0.351c-0.287-0.389-0.22-1.007-0.22-1.007
		c0.773,0.341,2.725,1.11,3.514-0.64c-0.237,0.171-0.917,0.375-1.302,0.342c-0.047-0.2-0.261-0.754-0.674-0.787
		c-0.542-0.041-0.934,0.128-1.447,0.197c-0.363,0.048-0.568-0.146-0.656-0.339c-0.076-0.163-0.003-0.393,0.082-0.512
		c0.185-0.264,0.602-0.433,0.602-0.433c-0.288-0.575-1.259-0.329-1.471-0.292c0.043-0.328,0.372-0.915,1.01-1.178
		c-0.24-0.41-0.973-0.777-2.174-0.574c0.14-0.498,0.561-1.032,0.918-1.158c-0.646-0.374-2.166-0.218-3.536,0.784
		c0.053-0.302,0.014-1.194-0.4-1.567c0,0-1.785,2.248-3.537,1.951c-1.75-0.3-1.476-2.407-1.476-2.407s3.458,0.548,5.129-0.227
		c1.676-0.774,1.662-1.972,3.064-2.702c1.126-0.587,2.471-0.104,2.471-0.104c-0.205-1.156-2.396-2.065-4.081-0.292
		c0,0-0.04-2.674-4.166-2.464c-1.502,0.077-4.304,0.92-6.867,1.39c-2.5,0.459-6.215,0.68-7.797,0.68
		c-1.583,0-3.136-0.347-3.136-1.382c0-1.035,1.143-1.182,1.899-1.182c1.2,0,2.881,0.709,4.235,1.18
		c0.968,0.335,1.92,0.341,2.443,0.341c1.419,0,3.204-0.711,4.098-1.063c0.894-0.351,1.6-0.571,3.313-0.425
		c-0.535-0.702-2.51-1.527-4.799-0.308c-0.207-0.368,0.229-1.056,1.117-1.342c-0.404-0.257-1.702-0.615-3.268-0.575
		c-2.477,0.063-3.259,1.232-5.667,1.129c-2.41-0.102-4.615,0.298-4.615,2.121c0,1.445,1.766,2.558,4.617,2.672
		c-0.071,0.228-0.458,0.507-0.581,0.582c0.982,0.162,2.433,0.04,4.304-1.177c0.05,0.204-0.118,0.722-0.32,0.856
		c0.671,0,1.924-0.343,3.435-1.289c0,0.203-0.029,0.565-0.393,0.93c1.761-0.124,2.724-1.018,3.922-1.398
		c1.593-0.504,6.739-1.702,6.739,1.152c0,0.683-0.334,1.659-2.109,1.659c-1.771,0-4.809-0.817-5.397-0.919
		c-0.592-0.102-1.248-0.245-2.799-0.027c-1.449,0.203-12.309,1.757-14.085,2.01c0,0.586,0.021,2.415,0.98,3.247
		c-0.756,0.351-1.555,0.59-2.958-0.048c-0.11,0.471,0.001,1.835,0.672,2.565c-0.562,0.186-1.723,0.479-2.833-0.241
		c-0.447,0.801-1.629,2.943-4.833,2.285c0.203-0.155,0.766-1.273,0.766-1.476c-0.636,0.473-2.317,1.391-5.448,1.027
		c-0.948-0.108-1.945-0.407-2.217-1.02c-0.29-0.642,0.118-1.555-0.082-2.062c-0.421-1.07-1.559-0.964-1.559-0.964
		c0.125,0.106,0.557,0.371,0.644,0.752c0,0-0.457-0.028-0.48,0.494c-0.033,0.708,0.207,1.49,0.207,1.49
		c-1.317-1.319-3.488-2.737-4.187-0.411c0.287-0.326,0.64-0.512,1.04-0.458c0,0-0.26,0.405,0.254,0.758
		c0.239,0.166,0.837-0.017,1.141,0.124c0.352,0.16,0.672,0.759,0.672,0.759"/>
	<path clip-path="url(#SVGID_2_)" fill="#D91A35" d="M34.662,16.357c0.275,0.195,0.146,0.412,0.013,0.538
		c-0.133,0.124-1.562,1.064-2.489,0.774c-0.707-0.22-0.705-1.489-1.682-1.902c-0.787-0.331-1.664,0.266-1.664,0.266
		c0.348,0.033,0.756,0.153,0.896,0.241c0,0-0.16,0.287,0.133,0.447c0.295,0.163,0.508,0.083,0.72,0.319
		c0.271,0.301,0.049,0.921,0.049,0.921c-2.112-1.66-4.075-0.533-4.214,0.543c0.186-0.124,0.721-0.411,1.032-0.346
		c0,0,0.006,0.323,0.271,0.393c0.307,0.08,0.68-0.204,1.128-0.136c0.475,0.075,0.876,0.505,0.876,0.505
		c-0.666,0.096-2.107,1.163-1.025,2.863c-0.022-0.308,0.013-0.706,0.213-0.843c0,0,0.369,0.183,0.615-0.028
		c0.246-0.208,0.325-0.714,0.637-1.077c0.315-0.365,0.711-0.391,0.711-0.391c-0.171,0.935,0.667,2.773,2.211,2.391
		c-0.32-0.188-0.629-0.584-0.629-0.799c0,0,0.437-0.158,0.39-0.395c-0.077-0.389-0.665-0.304-0.665-0.784
		c0-0.3,0.257-0.521,0.659-0.521c0.936,0,0.804,1.196,0.804,1.196c0.6-0.059,1.523-0.75,1.704-1.523
		c0.341,0.215,0.489,1.005,0.447,1.453c0.771-0.319,1.384-0.888,1.384-3.041c0.615,0.918,2.229,1.428,3.396,0.62
		c-1.5-0.241-1.803-1.797-1.885-2.081c-0.079-0.283-0.236-1.545-0.926-2.237c-0.981-0.982-3.193-0.911-4.474-0.507
		c-0.337,0.105-0.734,0.315-0.734,0.96c0,0.587,0.124,1.234,1.034,1.647C34.221,16.108,34.517,16.252,34.662,16.357"/>
	<path clip-path="url(#SVGID_2_)" fill="#D91A35" d="M25.354,5.584c0.048-0.085,0.143-0.443-0.192-0.544
		c-0.484-0.148-1.494,0.014-1.494,0.014c0.471-0.542,0.272-1.891-0.3-2.259c-0.073,0.608-0.657,0.953-1.22,0.806
		c-0.701-0.182-0.432-1.176-0.221-1.592c-0.541-0.036-1.466,0.103-2.241,1.228c-0.204-1.406-1.642-1.678-1.987-1.719
		c0.287,0.601-0.061,1.53-0.583,1.335c-0.103-0.944-1.086-1.343-1.158-0.686c-0.118,1.093-1.132,2.426-1.967,2.497
		c-0.078,0.608,0.633,0.939,1.036,0.948c-1.014,1.488-2.474,1.192-3.271,0.921c-0.026,0.567,0.589,1.761,1.771,1.761
		c-0.619,0.939-1.924,1.01-2.314,0.812c-0.173,0.902,1.288,1.708,1.685,1.777c-1.198,1.919-0.791,4.248-0.124,5.175
		c0,0,0.254-0.657,0.614-0.997c0.304-0.29,0.531-0.35,0.729-0.249c0.278,0.14,0.193,0.569,0.038,0.886
		c-0.292,0.577-0.933,1.154-0.933,1.154c1.087,0.255,3.08-0.909,3.328-1.402c0.197,0.595-0.199,1.608-0.476,2.091
		c2.116,0.229,3.169-1.618,3.625-2.741c0.723,0.811,1.642,0.902,2.145,0.788c-0.688-1.287-0.382-2.621-0.077-3.093
		c0.72,0.698,1.777,0.847,2.295,0.675c-0.684-0.947-0.696-3.292-0.5-4.11c0.479,0.323,1.108,0.409,1.368,0.229
		c0,0-0.438-0.806-0.313-1.967C24.693,6.594,25.148,5.971,25.354,5.584 M17.165,6.189c0.082-0.088,0.193-0.182,0.256-0.089
		c0.134,0.194,0.172,0.365,0.453,0.618c0.182,0.167,0.489,0.28,0.618,0.318c0.073,0.296-0.434,0.665-1.089,0.06
		C17.065,6.784,16.962,6.411,17.165,6.189z M18.769,11.958c-0.257,0.519-1.333,1.283-1.951,0.949
		c0.277-0.091,1.019-0.634,1.409-1.307c-0.12-0.06-0.348-0.208-0.405-0.288c-0.229,0.101-0.642,0.513-0.975,0.958
		c-0.083-0.25,0.112-0.919,0.339-1.272c-0.184-0.042-0.481-0.166-0.601-0.227c-0.306,0.712-0.326,1.622-0.233,1.9
		c-0.638-0.301-0.662-1.621-0.399-2.137c-0.801-0.561-0.539-1.236-0.294-1.371c0.006,0.221,0.205,0.688,0.896,1.035
		c0.69,0.351,0.971,0.111,1.05-0.045c0.141-0.279-0.204-0.542-0.449-0.809c-0.239-0.261-0.292-0.674-0.128-0.876
		c0.208-0.255,0.566-0.202,0.738-0.074c-0.845,0.152,0.176,1.041,0.439,1.173c0.263,0.13,1.583,0.428,1.2-0.345
		c0.207,0.064,0.462,0.32,0.381,0.641c-0.064,0.25-0.428,0.453-0.777,0.417c-0.359-0.039-0.775-0.163-0.916,0.118
		c-0.081,0.155-0.105,0.525,0.586,0.875c0.69,0.349,1.185,0.229,1.365,0.105C20.081,11.656,19.696,12.27,18.769,11.958z
		 M21.534,8.397c-0.055,0.295-0.417,0.433-0.867,0.347c-0.875-0.168-0.881-0.795-0.599-0.914c0.107,0.083,0.378,0.26,0.623,0.31
		c0.369,0.076,0.526,0.005,0.764-0.002C21.566,8.133,21.558,8.279,21.534,8.397z"/>
</g>
</svg>
