<svg xmlns="http://www.w3.org/2000/svg" viewBox="0 0 91.53 70"><defs><style>.a{fill:#1d1d1b}.b{fill:#005eb8}.c{fill:#fff}</style></defs><title>nhs-england-logo</title><path class="a" d="M.54 47.35h10.15v2.71H4v4.24h6.13V57H4v4.83h6.75v2.71H.54V47.35zm13.4 4.5h3.13v1.72a4.74 4.74 0 0 1 4.16-2c3 0 4.31 2.12 4.31 5v8h-3.3v-6.81c0-1.55 0-3.64-2.14-3.64-2.39 0-2.91 2.58-2.91 4.21v6.21h-3.3V51.85zm26.68 0V63.3c0 3.45-1.38 6.7-6.7 6.7a11.14 11.14 0 0 1-4.38-.86l.27-2.81a9.54 9.54 0 0 0 3.69 1.11c3.64 0 3.82-2.73 3.82-4.92a4.53 4.53 0 0 1-3.94 2c-3.74 0-5.17-3-5.17-6.4 0-3.05 1.58-6.57 5.37-6.57a4.21 4.21 0 0 1 3.89 2v-1.7h3.15zm-3.3 6.21c0-2.17-.84-3.94-2.76-3.94-2.24 0-3 2.07-3 4 0 1.72.91 3.84 2.81 3.84 2.12.04 2.95-1.79 2.95-3.9zm6.77-11.99h3.3v18.46h-3.3V46.07zm7.34 6.45a11.35 11.35 0 0 1 4.41-1c3.87 0 5.47 1.6 5.47 5.34v4.81c0 .94.07 1.85.15 2.83h-2.87a15.66 15.66 0 0 1-.15-1.9 4.53 4.53 0 0 1-3.92 2.19c-2.24 0-4.43-1.36-4.43-3.77a3.73 3.73 0 0 1 2.17-3.62 10 10 0 0 1 4.26-.74h1.78c0-2-.91-2.73-2.86-2.73a6.64 6.64 0 0 0-3.92 1.38zm3.87 9.9a2.8 2.8 0 0 0 2.32-1.13 4.21 4.21 0 0 0 .69-2.61h-1.44c-1.48 0-3.67.25-3.67 2.19 0 1.08.91 1.55 2.09 1.55zm9.25-10.57h3.13v1.72h.05a4.73 4.73 0 0 1 4.16-2c3 0 4.31 2.12 4.31 5v8h-3.3v-6.81c0-1.55 0-3.64-2.14-3.64-2.39 0-2.91 2.58-2.91 4.21v6.21h-3.3V51.85zM88 63.11a4.71 4.71 0 0 1-3.89 1.72c-3.89 0-5.32-3.2-5.32-6.67s1.43-6.6 5.32-6.6a4.51 4.51 0 0 1 3.79 1.77v-7.26h3.3v18.46H88v-1.42zm-3-.84c2.19 0 2.9-2.31 2.9-4.11s-.84-4-3-4-2.73 2.34-2.73 4 .67 4.11 2.83 4.11z"/><path class="b" d="M91.53 0H0v36.86h91.53V0z"/><path class="c" d="M88.1 4.37l-1.93 5.91a15.09 15.09 0 0 0-6.57-1.36c-3.16 0-5.72.46-5.72 2.85 0 4.2 11.58 2.64 11.58 11.65 0 8.2-7.65 10.33-14.57 10.33a33.43 33.43 0 0 1-9.22-1.54l1.88-6a15.58 15.58 0 0 0 7.35 1.7c2.48 0 6.36-.47 6.36-3.53 0-4.76-11.58-3-11.58-11.34C65.67 5.34 72.42 3 79 3c3.68 0 7.13.39 9.14 1.32m-22.98-.76l-6.2 29.66h-7.98l2.65-12.7h-9.45l-2.65 12.7h-7.98l6.2-29.66h7.98l-2.35 11.35h9.44l2.35-11.35h7.99zm-28.36 0l-6.32 29.66h-9.91L14.33 12.7h-.08L10.1 33.22H2.58L8.95 3.56h9.95l6.11 20.57h.08l4.19-20.57h7.52z"/></svg>