<?xml version="1.0" encoding="utf-8"?>
<!-- Generator: Adobe Illustrator 17.0.0, SVG Export Plug-In . SVG Version: 6.00 Build 0)  -->
<!DOCTYPE svg PUBLIC "-//W3C//DTD SVG 1.1//EN" "http://www.w3.org/Graphics/SVG/1.1/DTD/svg11.dtd">
<svg version="1.1" id="Layer_1" xmlns="http://www.w3.org/2000/svg" xmlns:xlink="http://www.w3.org/1999/xlink" x="0px" y="0px"
	 width="200px" height="44px" viewBox="0 0 200 44" enable-background="new 0 0 200 44" xml:space="preserve">
<g>
	<rect y="1.394" fill="none" width="200" height="44"/>
	<path fill="#174D71" d="M3.19,41.63l-0.482-0.375c1.25-4.092,2.296-8.367,3.136-12.827c0.84-4.458,1.26-7.322,1.26-8.591
		c0-0.804-0.214-1.206-0.643-1.206c-0.536,0-2.02,0.804-4.45,2.413l-0.322-0.081l-0.268-0.59l0.08-0.402
		c1.591-1.269,3.266-2.43,5.026-3.485c1.76-1.054,3.051-1.582,3.874-1.582c0.715,0,1.072,0.447,1.072,1.34
		c0,1.037-0.652,4.495-1.957,10.374c1.662-2.912,3.288-5.374,4.878-7.385c1.59-2.01,2.739-3.244,3.445-3.699
		c0.706-0.456,1.407-0.684,2.104-0.684c0.321,0,0.643,0.072,0.965,0.214l0.107,0.295c-0.268,0.983-0.572,2.886-0.912,5.71
		l-0.75,0.161c-0.519-0.714-1.117-1.072-1.796-1.072c-0.501,0-1.104,0.206-1.81,0.617c-0.707,0.411-1.578,1.242-2.614,2.493
		c-1.037,1.251-1.935,2.668-2.694,4.249c-0.76,1.582-1.372,3.311-1.836,5.188C8.14,34.58,7.55,37.243,6.836,40.692
		C5.03,41.104,3.815,41.416,3.19,41.63z"/>
	<path fill="#174D71" d="M37.566,35.09l0.294,0.67l-0.053,0.349c-4.396,3.717-8.123,5.575-11.179,5.575
		c-1.001,0-2.02-0.272-3.056-0.817c-1.037-0.545-1.81-1.327-2.319-2.346s-0.764-2.322-0.764-3.913c0-2.234,0.371-4.615,1.113-7.145
		c0.741-2.528,1.483-4.396,2.225-5.603c0.742-1.206,1.854-2.341,3.337-3.404c1.483-1.063,2.891-1.921,4.222-2.573
		c1.331-0.652,2.623-0.979,3.874-0.979c1.358,0,2.466,0.357,3.324,1.072s1.287,1.707,1.287,2.976c0,1.447-0.411,2.784-1.233,4.007
		c-0.822,1.225-2.324,2.381-4.504,3.471c-2.18,1.091-4.79,1.984-7.827,2.681l-1.26,0.295c-0.357,1.716-0.536,3.146-0.536,4.289
		c0,1.608,0.357,2.887,1.072,3.834s1.716,1.421,3.002,1.421c2.413,0,5.308-1.323,8.686-3.968L37.566,35.09z M25.235,28.093
		c1.876-0.339,3.659-0.871,5.348-1.595s2.984-1.688,3.887-2.895c0.902-1.207,1.354-2.436,1.354-3.687
		c0-0.965-0.241-1.68-0.724-2.145c-0.482-0.464-1.063-0.697-1.743-0.697c-0.75,0-1.631,0.214-2.64,0.643
		c-1.01,0.429-1.903,1.216-2.681,2.359C27.259,21.222,26.325,23.894,25.235,28.093z"/>
	<path fill="#174D71" d="M53.686,34.875l0.295,0.616L53.9,35.813c-0.697,0.607-1.908,1.532-3.632,2.774s-2.966,2.073-3.726,2.493
		s-1.417,0.63-1.97,0.63c-0.519,0-0.934-0.241-1.247-0.724s-0.469-1.171-0.469-2.064c0-1.055,0.304-2.939,0.911-5.656
		c0.697-3.146,1.59-7.622,2.681-13.43l-4.369,0.107l-0.188-0.214l0.081-0.456l0.214-0.214c1.912-0.679,3.449-1.331,4.611-1.957
		c0.339-1.573,0.804-4.655,1.394-9.249c1.912-0.804,3.314-1.448,4.208-1.93l0.644,0.482l-1.046,4.102
		c-0.125,0.519-0.599,2.824-1.42,6.916c0.804,0.054,1.456,0.081,1.957,0.081c1.77,0,3.02-0.125,3.753-0.375l0.269,0.215
		l-0.617,2.627c-0.662,0-2.609-0.044-5.844-0.134c-1.984,9.526-2.976,15.137-2.976,16.834c0,0.822,0.339,1.233,1.019,1.233
		c0.339,0,0.791-0.147,1.354-0.442s1.542-0.951,2.936-1.971l0.938-0.724L53.686,34.875z"/>
	<path fill="#174D71" d="M58.602,41.63l-0.482-0.375c1.25-4.092,2.296-8.367,3.136-12.827c0.84-4.458,1.26-7.322,1.26-8.591
		c0-0.804-0.214-1.206-0.643-1.206c-0.536,0-2.02,0.804-4.45,2.413l-0.322-0.081l-0.268-0.59l0.08-0.402
		c1.591-1.269,3.266-2.43,5.026-3.485c1.76-1.054,3.051-1.582,3.874-1.582c0.715,0,1.072,0.447,1.072,1.34
		c0,1.037-0.652,4.495-1.957,10.374c1.662-2.912,3.288-5.374,4.878-7.385c1.59-2.01,2.739-3.244,3.445-3.699
		c0.706-0.456,1.407-0.684,2.104-0.684c0.321,0,0.643,0.072,0.965,0.214l0.107,0.295c-0.268,0.983-0.572,2.886-0.912,5.71
		l-0.75,0.161c-0.519-0.714-1.117-1.072-1.796-1.072c-0.501,0-1.104,0.206-1.81,0.617c-0.707,0.411-1.578,1.242-2.614,2.493
		c-1.037,1.251-1.935,2.668-2.694,4.249c-0.76,1.582-1.372,3.311-1.836,5.188c-0.465,1.876-1.055,4.539-1.769,7.988
		C60.442,41.104,59.228,41.416,58.602,41.63z"/>
	<path fill="#174D71" d="M75.956,33.347c0-3.413,0.581-6.522,1.743-9.328c1.161-2.806,2.935-5.035,5.321-6.688
		c2.386-1.653,4.713-2.479,6.983-2.479c2.073,0,3.815,0.63,5.227,1.89c1.412,1.26,2.118,3.418,2.118,6.475
		c0,3.002-0.666,6.04-1.997,9.113c-1.332,3.074-3.159,5.397-5.482,6.97s-4.602,2.359-6.835,2.359c-1.484,0-2.779-0.345-3.887-1.032
		c-1.108-0.688-1.917-1.626-2.426-2.814S75.956,35.135,75.956,33.347z M80.245,32.972c0,1.537,0.152,2.757,0.456,3.659
		s0.84,1.627,1.608,2.172s1.716,0.817,2.842,0.817c1.179,0,2.216-0.313,3.109-0.938c0.894-0.625,1.743-1.787,2.547-3.485
		c0.804-1.697,1.389-3.596,1.756-5.696c0.366-2.1,0.549-4.034,0.549-5.803c0-1.626-0.188-2.931-0.563-3.914
		c-0.375-0.983-0.929-1.725-1.662-2.225c-0.733-0.5-1.617-0.75-2.654-0.75c-2.752,0-4.771,1.648-6.058,4.946
		S80.245,28.79,80.245,32.972z"/>
	<path fill="#174D71" d="M98.055,40.21c0.625-2.824,0.992-5.094,1.099-6.81l0.215-0.214h0.911l0.215,0.214v4.316
		c1.608,1.376,3.368,2.063,5.28,2.063c0.858,0,1.689-0.143,2.493-0.429c0.805-0.285,1.475-0.674,2.011-1.166
		c0.536-0.491,0.965-1.144,1.287-1.957c0.321-0.813,0.482-1.639,0.482-2.479c0-0.571-0.112-1.126-0.335-1.662
		c-0.224-0.536-0.6-0.969-1.126-1.3c-0.527-0.33-1.587-0.639-3.177-0.925c-1.608-0.286-2.743-0.522-3.404-0.71
		c-0.662-0.188-1.305-0.514-1.931-0.979c-0.625-0.465-1.122-1.072-1.487-1.823c-0.367-0.751-0.55-1.563-0.55-2.439
		c0-1.197,0.282-2.283,0.845-3.257c0.563-0.974,1.397-1.89,2.506-2.748c1.108-0.857,2.256-1.572,3.445-2.145
		c1.188-0.571,2.497-0.857,3.927-0.857c2.108,0,3.887,0.429,5.335,1.287l0.106,0.295c-0.304,1.037-0.5,1.975-0.589,2.814
		l-0.322,3.002l-0.214,0.214h-0.831l-0.241-0.214c0-1.054-0.027-2.082-0.081-3.083c-1.251-1.376-2.939-2.064-5.066-2.064
		c-1.68,0-3.029,0.487-4.048,1.461c-1.019,0.975-1.527,2.141-1.527,3.499c0,1.108,0.339,1.983,1.019,2.627
		c0.679,0.644,1.966,1.108,3.859,1.394c1.698,0.251,2.904,0.465,3.619,0.644s1.376,0.479,1.984,0.898
		c0.606,0.42,1.085,0.965,1.434,1.635s0.522,1.426,0.522,2.266c0,1.001-0.192,1.979-0.576,2.936c-0.385,0.956-0.93,1.836-1.635,2.64
		c-0.706,0.805-1.712,1.641-3.016,2.507c-1.305,0.867-2.458,1.461-3.458,1.782c-1.002,0.322-2.064,0.482-3.19,0.482
		c-1.806,0-3.699-0.474-5.683-1.42L98.055,40.21z"/>
	<path fill="#174D71" d="M120.073,41.496l-0.349-0.455c1.162-3.557,2.193-7.658,3.097-12.305c0.902-4.646,1.354-7.595,1.354-8.846
		c0-0.697-0.241-1.045-0.724-1.045c-0.661,0-2.037,0.706-4.129,2.118l-0.321-0.081l-0.241-0.589l0.08-0.402
		c0.715-0.536,1.568-1.144,2.561-1.823s1.97-1.282,2.936-1.81c0.965-0.527,1.63-0.849,1.997-0.965
		c0.366-0.116,0.692-0.174,0.979-0.174c0.5,0,0.844,0.174,1.031,0.522c0.188,0.349,0.282,0.71,0.282,1.086
		c0,0.804-0.295,2.395-0.885,4.771c-0.179,0.662-0.661,2.619-1.447,5.871l0.188,0.054c1.322-2.162,2.948-4.235,4.879-6.219
		c1.93-1.983,3.922-3.494,5.978-4.53c2.055-1.036,3.565-1.555,4.53-1.555c0.536,0,0.938,0.166,1.206,0.496
		c0.269,0.331,0.402,0.755,0.402,1.273c0,1.233-0.616,4.235-1.85,9.007c-1.662,6.362-2.493,10.106-2.493,11.232
		c0,0.661,0.241,0.992,0.724,0.992c0.59,0,2.091-0.858,4.504-2.574l0.295,0.081l0.295,0.696l-0.081,0.322
		c-1.108,0.894-2.377,1.81-3.807,2.747c-1.43,0.938-2.466,1.551-3.109,1.837c-0.644,0.285-1.18,0.429-1.608,0.429
		c-0.554,0-0.961-0.192-1.22-0.576c-0.259-0.385-0.389-0.862-0.389-1.435c0-0.625,0.144-1.604,0.429-2.936
		c0.286-1.331,0.885-3.774,1.797-7.331c1.304-5.021,1.956-8.104,1.956-9.249c0-0.947-0.339-1.42-1.019-1.42
		c-0.482,0-1.045,0.152-1.688,0.456c-1.144,0.536-2.377,1.407-3.699,2.614c-1.323,1.206-2.533,2.618-3.633,4.235
		c-1.099,1.617-1.956,3.226-2.573,4.825c-0.616,1.6-1.157,3.409-1.622,5.428c-0.071,0.251-0.348,1.707-0.83,4.37
		C122.62,40.835,121.36,41.121,120.073,41.496z"/>
	<path fill="#174D71" d="M148.016,20.694l-0.269-0.617l0.081-0.375c0.536-0.411,1.697-1.166,3.484-2.265s3.029-1.8,3.727-2.104
		c0.697-0.304,1.233-0.456,1.608-0.456s0.67,0.143,0.885,0.429c0.214,0.286,0.321,0.617,0.321,0.992
		c0,0.412-0.259,1.662-0.777,3.753c-2.288,9.383-3.432,14.914-3.432,16.594c0,0.786,0.269,1.18,0.805,1.18
		c0.679,0,1.765-0.59,3.257-1.77s3.101-2.868,4.825-5.066s2.979-4.405,3.767-6.621c0.786-2.216,1.483-5.049,2.091-8.498
		c0.215-0.036,1.438-0.322,3.673-0.858l0.401,0.402c-0.018,0.107-0.232,0.849-0.643,2.225c-0.716,2.305-1.431,4.959-2.145,7.961
		c-0.716,3.003-1.233,5.402-1.556,7.198c-0.321,1.796-0.482,3.069-0.482,3.819c0,0.841,0.286,1.261,0.858,1.261
		c0.304,0,0.679-0.139,1.126-0.416c0.446-0.276,1.456-1.005,3.028-2.185l0.295,0.107l0.295,0.616l-0.053,0.349
		c-3.146,2.484-5.206,3.999-6.18,4.544s-1.72,0.817-2.238,0.817c-0.429,0-0.764-0.192-1.005-0.576
		c-0.241-0.385-0.362-0.827-0.362-1.327c0-1.108,0.751-4.78,2.252-11.018l-0.161-0.08l-1.983,2.841
		c-0.68,0.966-1.475,1.971-2.386,3.016c-0.911,1.046-1.979,2.114-3.203,3.204c-1.225,1.09-2.337,1.948-3.338,2.573
		s-1.725,1.014-2.171,1.166c-0.447,0.151-0.796,0.228-1.046,0.228c-0.519,0-0.97-0.254-1.354-0.764
		c-0.385-0.51-0.576-1.264-0.576-2.266c0-1.376,0.349-3.476,1.045-6.299c1.77-7.095,2.654-11.402,2.654-12.921
		c0-0.572-0.232-0.858-0.697-0.858c-0.536,0-1.903,0.715-4.102,2.145L148.016,20.694z"/>
	<path fill="#174D71" d="M185.851,1.394l0.697,0.509l-1.877,8.551l-2.734,12.867c2.359-3.127,4.606-5.33,6.742-6.608
		c2.135-1.277,3.998-1.917,5.589-1.917c0.769,0,1.376,0.197,1.823,0.59c0.446,0.393,0.777,1.041,0.991,1.943
		c0.215,0.903,0.322,1.997,0.322,3.284c0,2.574-0.429,5.084-1.287,7.533c-0.857,2.449-1.782,4.405-2.774,5.871
		c-0.992,1.465-2.091,2.726-3.297,3.779c-1.206,1.055-2.587,1.966-4.142,2.734s-3.048,1.152-4.477,1.152
		c-1.52,0-2.811-0.425-3.874-1.272c-1.063-0.849-1.595-1.944-1.595-3.284c0-0.84,0.313-2.877,0.938-6.112l1.876-9.65
		c0.357-1.948,0.732-4.03,1.126-6.246l1.046-5.817c0.303-1.68,0.469-2.641,0.495-2.882c0.027-0.241,0.04-0.46,0.04-0.657
		c0-0.411-0.138-0.697-0.415-0.858s-0.773-0.241-1.487-0.241l-2.252-0.027l-0.188-0.214l0.08-0.67l0.215-0.241
		C180.757,2.975,183.563,2.27,185.851,1.394z M179.873,35.277c0,1.126,0.312,2.096,0.938,2.908c0.626,0.813,1.671,1.22,3.137,1.22
		c2.001,0,3.659-0.902,4.973-2.707s2.403-4.129,3.271-6.97c0.866-2.842,1.3-5.228,1.3-7.158c0-1.948-0.174-3.181-0.522-3.699
		c-0.349-0.518-0.907-0.777-1.676-0.777c-1.18,0-2.426,0.402-3.739,1.206s-2.618,2.1-3.914,3.887s-2.247,3.99-2.854,6.607
		C180.176,32.413,179.873,34.241,179.873,35.277z"/>
</g>
<g>
</g>
<g>
</g>
<g>
</g>
<g>
</g>
<g>
</g>
<g>
</g>
</svg>
