<svg xmlns="http://www.w3.org/2000/svg" width="440" height="130" viewBox="0 0 116.417 34.396"><rect ry=".188" y="18.436" x="60.898" height="6.286" width="53.28" fill="#fff"/><path d="M43.977 10.613v4.666h-4.665v4.763h4.665v4.665h4.763v-4.665h4.665v-4.763H48.74v-4.666zM27.716 12.89c-5.254-6.141-10.508.545-7.574 4.026l7.574 7.71m0-11.736c5.253-6.141 10.507.545 7.574 4.026l-7.574 7.71m-17.434-4.057a3.527 3.527 0 01-2.145 0c-.679-.231-1.314-.664-1.73-1.264-.439-.587-.655-1.301-.667-2.035.012-.733.228-1.447.666-2.034.417-.6 1.052-1.033 1.731-1.264a3.532 3.532 0 012.145 0c.68.231 1.313.664 1.73 1.264.439.587.655 1.301.667 2.034-.012.733-.228 1.448-.666 2.035-.417.6-1.052 1.033-1.731 1.264m5.624-2.488c.038-.269.037-.54.053-.81-.016-.271-.015-.543-.053-.811.439-.208.873-.448 1.298-.718a8.05 8.05 0 00-.63-1.932c-.503.03-.984.085-1.468.179-.144-.23-.27-.472-.441-.683a5.259 5.259 0 00-.517-.627c.239-.433.45-.883.627-1.344-.485-.473-1.05-.855-1.636-1.196-.388.317-.754.662-1.088 1.014-.241-.127-.503-.204-.757-.3a9.069 9.069 0 00-.787-.205 12.02 12.02 0 00-.287-1.452 8.052 8.052 0 00-2.022 0c-.127.487-.222.972-.286 1.452a9.395 9.395 0 00-.788.204c-.253.097-.515.174-.756.302A11.77 11.77 0 005.28 10.14c-.585.34-1.151.722-1.636 1.196.177.46.388.91.626 1.343-.188.196-.36.405-.516.627-.171.211-.297.453-.441.683a11.378 11.378 0 00-1.468-.179 8.049 8.049 0 00-.63 1.932c.425.27.859.51 1.298.718-.038.269-.037.54-.053.81.016.27.015.542.053.811-.439.208-.873.448-1.298.718a8.06 8.06 0 00.63 1.932c.503-.031.983-.086 1.468-.179.144.23.27.472.441.683a5.3 5.3 0 00.517.627c-.239.432-.45.882-.627 1.343.485.474 1.05.856 1.636 1.196.388-.316.754-.66 1.088-1.013.241.127.503.203.756.3.26.082.524.147.789.205.063.48.159.964.286 1.452.671.085 1.35.085 2.022 0 .127-.488.222-.972.286-1.452a8.93 8.93 0 00.788-.205c.253-.097.515-.173.756-.3.334.352.7.697 1.088 1.013.585-.34 1.151-.722 1.636-1.196-.177-.46-.388-.91-.626-1.343a5.25 5.25 0 00.516-.628c.17-.211.297-.453.441-.683.485.094.965.149 1.468.18a8.073 8.073 0 00.63-1.932c-.425-.27-.859-.51-1.298-.718" fill="#44444a"/><path d="M60.089 8.853v16.688h55.113V8.853H60.09zm.61.612h53.894v8.265H60.698V9.465zm8.958 1.803l-.59.28V16.2h.03l.59-.279v-2.016h1.83V16.2h.03l.59-.279v-4.652h-.031l-.59.28v2.015h-1.83v-2.295h-.029zm10.916 0l-.59.28V16.2h.031l.59-.279v-2.016h1.829V16.2h.031l.588-.279v-4.652h-.03l-.589.28v2.015h-1.83v-2.295h-.03zm13.049 0l-.59.28V16.2h.032l.589-.279v-1.219c0-.273.074-.496.224-.672a.848.848 0 01.676-.32c.267 0 .492.106.676.32.149.171.223.395.223.672v1.498h.029l.59-.279v-1.036c0-.463-.14-.83-.42-1.1-.284-.277-.709-.416-1.273-.416l1.665-1.913-.36-.186h-.031l-2 2.335v-2.336h-.03zm15.072 0l-.59.28v1.5c0 .46.14.826.419 1.101.233.23.512.372.836.425v1.625h.031l.59-.279v-1.346a1.44 1.44 0 00.837-.425c.279-.287.418-.654.418-1.101v-1.78h-.03l-.59.28v1.693c0 .258-.074.482-.223.673-.167.213-.408.32-.722.32a.909.909 0 01-.723-.32c-.148-.172-.223-.396-.223-.673v-1.973h-.03zm-42.43.063c-.471 0-.854.15-1.147.45-.279.287-.418.653-.418 1.1v3.318h.03l.59-.279v-3.256c0-.277.074-.5.223-.672a.907.907 0 01.722-.32.91.91 0 01.723.32c.15.171.224.395.224.672v3.535h.03l.59-.279v-3.04c0-.456-.14-.822-.419-1.099-.3-.3-.683-.45-1.148-.45zm8.557 0c-.358 0-.658.1-.902.298-.256.208-.385.504-.385.886 0 .339.103.601.31.788.25.223.576.335.977.335.343 0 .598.097.762.29.12.142.18.371.18.69 0 .405-.073.691-.22.858a.913.913 0 01-.722.32.909.909 0 01-.723-.32.935.935 0 01-.223-.635v-.472h-.03l-.59.28c0 .396.14.743.419 1.038.282.3.665.45 1.147.45.481 0 .864-.15 1.147-.45.278-.295.416-.654.416-1.076 0-.397-.133-.718-.4-.964-.254-.234-.642-.35-1.163-.35-.227 0-.403-.07-.527-.208-.093-.103-.14-.294-.14-.57 0-.313.06-.532.183-.657a.643.643 0 01.484-.19c.18 0 .335.057.465.17.135.116.202.292.202.528v.397h.03l.59-.28c0-.363-.129-.65-.385-.858-.244-.199-.545-.298-.902-.298zm11.04 0c-.472 0-.855.15-1.148.45-.279.287-.418.653-.418 1.1v3.318h.03l.59-.279v-2.016h1.892V16.2h.03l.589-.279v-3.04c0-.456-.14-.822-.418-1.099-.302-.3-.684-.45-1.147-.45zm4.368 0c-.471 0-.853.15-1.147.45-.278.285-.418.651-.418 1.1v1.706c0 .448.14.815.418 1.1.294.3.676.45 1.147.45.472 0 .855-.15 1.148-.45.279-.285.418-.652.418-1.1v-.218h-.03l-.59.28c0 .38-.074.656-.223.827a.909.909 0 01-.723.32.908.908 0 01-.722-.32c-.149-.171-.223-.396-.223-.672v-2.14c0-.277.074-.5.223-.672a.907.907 0 01.722-.32.91.91 0 01.723.32c.149.171.223.395.223.672v.435h.031l.59-.28c0-.392-.14-.738-.419-1.038-.277-.3-.66-.45-1.148-.45zm15.38 0c-.471 0-.853.15-1.147.45-.28.287-.419.653-.419 1.1v3.318h.031l.59-.279v-2.016h1.891V16.2h.03l.59-.279v-3.04c0-.456-.14-.822-.419-1.099-.301-.3-.684-.45-1.147-.45zm-5.55.062l-.327.155v4.527h1.503c.472 0 .854-.15 1.148-.45.278-.285.418-.652.418-1.1v-1.582c0-.45-.14-.818-.418-1.1-.294-.3-.677-.45-1.148-.45h-1.175zm-14.198.28c.295 0 .535.105.722.318.149.172.223.396.223.673v.9h-1.891v-.9c0-.275.075-.499.223-.672a.909.909 0 01.723-.32zm19.748 0c.295 0 .536.105.722.318.15.172.224.396.224.673v.9h-1.892v-.9c0-.275.075-.499.224-.672a.907.907 0 01.722-.32zm-5.257.061h.883a.91.91 0 01.723.32c.149.173.223.397.223.672v2.016c0 .29-.074.513-.223.672a.951.951 0 01-.723.32h-.883v-4zm-30.397 8.404h.02v1.415l1.21-1.415h.02l.217.112-.977 1.16c.332 0 .582.084.749.252.164.164.246.386.246.667v.628l-.357.17h-.02v-.908a.599.599 0 00-.135-.408.52.52 0 00-.41-.193c-.164 0-.3.064-.41.193a.61.61 0 00-.134.408v.738l-.357.17h-.019v-2.82l.357-.17zm8.078 0h.018v2.142a.6.6 0 00.136.408.55.55 0 00.437.193.55.55 0 00.438-.193.6.6 0 00.136-.408v-1.973l.357-.17h.018l.001 2.012a.917.917 0 01-.254.667c-.178.182-.41.273-.696.273a.897.897 0 01-.66-.273.57.57 0 01-.1-.13.739.739 0 01-.106.125.908.908 0 01-.656.278.943.943 0 01-.695-.273c-.169-.168-.253-.39-.253-.667v-1.84l.357-.17h.018v2.142a.6.6 0 00.136.408.55.55 0 00.437.193.55.55 0 00.438-.193.6.6 0 00.136-.408v-1.974l.357-.17zm2.65 0h.018v1.39h1.108v-1.22l.357-.17h.019l-.001 2.819-.356.17h-.019v-1.39h-1.108v1.22l-.357.17h-.019v-2.82l.357-.17zm18.964 0h.02v1.39h1.107v-1.22l.357-.17h.02l-.001 2.819-.357.17h-.019v-1.39h-1.108v1.22l-.357.17h-.02v-2.82l.358-.17zm8.938 0h.02v1.39h1.107v-1.22l.357-.17h.02v2.819l-.358.17h-.019v-1.39h-1.108v1.22l-.357.17h-.02v-2.82l.358-.17zm-21.139 0h.02v2.707h1.286v.019l-.089.187H87.09v-2.743l.357-.17zm4.076 0h.019l.83 2.471.822-2.47h.02l.196.095-.916 2.737-.322.155h-.018l-.959-2.833.328-.154zm-27.972.04c.296 0 .528.089.696.271a.898.898 0 01.253.63l-.357.169h-.02v-.263a.61.61 0 00-.134-.408.544.544 0 00-.438-.193.551.551 0 00-.438.193.598.598 0 00-.135.408v1.296c0 .167.045.302.135.408a.55.55 0 00.438.193.55.55 0 00.438-.193.545.545 0 00.135-.37v-.583H63.5v-.019l.09-.188h.908v.62a.914.914 0 01-.254.667c-.177.182-.41.273-.695.273s-.517-.09-.695-.273a.912.912 0 01-.254-.667v-1.033c0-.272.085-.494.254-.667.178-.182.41-.272.695-.272zm9.477 0a.84.84 0 01.547.179c.155.127.233.3.233.52l-.357.17h-.02v-.24c0-.144-.04-.25-.121-.32a.414.414 0 00-.282-.103.39.39 0 00-.293.114c-.074.076-.11.21-.11.398 0 .168.027.283.084.346a.406.406 0 00.32.126c.315 0 .55.07.704.212a.758.758 0 01.242.584.918.918 0 01-.252.652c-.171.182-.403.273-.695.273-.292 0-.523-.09-.695-.273a.887.887 0 01-.254-.63l.357-.17h.02v.287a.551.551 0 00.572.579.554.554 0 00.438-.193c.089-.102.133-.276.133-.52 0-.194-.036-.333-.108-.418-.1-.118-.255-.177-.463-.177-.243 0-.44-.067-.592-.203-.125-.112-.188-.271-.188-.477 0-.231.078-.41.233-.537a.84.84 0 01.547-.18zm10.858 0c.286 0 .518.089.696.271a.91.91 0 01.253.667v1.033a.914.914 0 01-.253.667c-.178.182-.41.273-.696.273-.285 0-.517-.09-.695-.273a.912.912 0 01-.253-.667v-1.033c0-.272.084-.494.253-.667.178-.182.41-.272.695-.272zm5.975 0c.286 0 .517.089.696.271a.91.91 0 01.253.667v1.033a.913.913 0 01-.253.667.932.932 0 01-.696.273c-.286 0-.517-.09-.695-.273a.913.913 0 01-.253-.667v-1.033c0-.272.084-.494.253-.667.178-.182.41-.272.695-.272zm16.668 0a.94.94 0 01.695.271c.169.168.254.39.254.667v1.84l-.357.17h-.02v-2.141a.6.6 0 00-.135-.408.55.55 0 00-.437-.193.552.552 0 00-.438.193.603.603 0 00-.135.408v1.972l-.357.17h-.02v-2.01c0-.272.085-.494.255-.668.177-.182.41-.272.695-.272zm5.186 0a.84.84 0 01.547.179c.155.127.232.3.232.52l-.357.17h-.018v-.24c0-.144-.04-.25-.122-.32a.415.415 0 00-.282-.103.39.39 0 00-.293.114c-.075.076-.112.21-.112.398 0 .168.03.283.085.346a.406.406 0 00.32.126c.315 0 .55.07.704.212a.758.758 0 01.243.584.918.918 0 01-.252.652c-.172.182-.404.273-.695.273-.292 0-.524-.09-.696-.273a.888.888 0 01-.253-.63l.357-.168h.018v.285a.57.57 0 00.136.386.55.55 0 00.438.193.555.555 0 00.438-.193c.088-.102.133-.276.133-.52 0-.194-.037-.333-.11-.418-.1-.118-.254-.177-.461-.177-.243 0-.44-.067-.592-.203-.125-.112-.188-.271-.188-.477 0-.231.078-.41.233-.537a.84.84 0 01.547-.18zm-46.264.036h1.191v.019l-.088.188h-.926v1.108h1.014v.02l-.088.187h-.926v1.11h1.328v.018l-.088.187H65.25v-2.743l.199-.094zm2.174 0h1.19v.019l-.088.188H67.8v1.108h1.015v.02l-.089.187H67.8v1.11h1.329v.018l-.09.187h-1.614v-2.743l.199-.094zm26.374 0h1.19v.019l-.088.188h-.926v1.108h1.015v.02l-.089.187h-.926v1.11h1.329v.017l-.089.188H93.8v-2.743l.2-.094zm3.199 0h1.896v.019l-.088.188h-.716v2.536l-.357.17h-.019V20.42h-.804v-.02l.088-.187zm4.905 0h1.19v.019l-.088.188h-.926v1.108h1.014v.02l-.088.187h-.926v1.11h1.328l.001.018-.09.187h-1.615v-2.743l.2-.094zm-18.217.169a.552.552 0 00-.437.194.6.6 0 00-.136.407v1.297c0 .168.045.304.136.407a.55.55 0 00.437.194.55.55 0 00.438-.194.599.599 0 00.136-.407v-1.297a.6.6 0 00-.136-.407.552.552 0 00-.438-.194zm5.975 0a.552.552 0 00-.438.194.6.6 0 00-.135.407v1.297c0 .168.045.304.135.407a.55.55 0 00.438.194.55.55 0 00.438-.194.599.599 0 00.135-.407v-1.297a.6.6 0 00-.135-.407.552.552 0 00-.438-.194z" fill="#444"/></svg>