<?xml version="1.0" encoding="UTF-8" standalone="no"?>
<!-- Created with Inkscape (http://www.inkscape.org/) -->

<svg
   xmlns:dc="http://purl.org/dc/elements/1.1/"
   xmlns:cc="http://creativecommons.org/ns#"
   xmlns:rdf="http://www.w3.org/1999/02/22-rdf-syntax-ns#"
   xmlns:svg="http://www.w3.org/2000/svg"
   xmlns="http://www.w3.org/2000/svg"
   xmlns:sodipodi="http://sodipodi.sourceforge.net/DTD/sodipodi-0.dtd"
   xmlns:inkscape="http://www.inkscape.org/namespaces/inkscape"
   version="1.1"
   id="svg815"
   xml:space="preserve"
   width="301.60001"
   height="218.25296"
   viewBox="0 0 301.60001 218.25296"
   sodipodi:docname="sticker_rectangular_grey_transparent.svg"
   inkscape:export-filename="C:\Users\Me\Desktop\bitmap.png"
   inkscape:export-xdpi="599.87408"
   inkscape:export-ydpi="599.87408"
   inkscape:version="0.92.3 (2405546, 2018-03-11)"><metadata
     id="metadata821"><rdf:RDF><cc:Work
         rdf:about=""><dc:format>image/svg+xml</dc:format><dc:type
           rdf:resource="http://purl.org/dc/dcmitype/StillImage" /><dc:title></dc:title></cc:Work></rdf:RDF></metadata><defs
     id="defs819"><clipPath
       clipPathUnits="userSpaceOnUse"
       id="clipPath835"><path
         d="M 0,170.25 H 238.25 V 0 H 0 Z"
         id="path833"
         inkscape:connector-curvature="0" /></clipPath></defs><sodipodi:namedview
     pagecolor="#ffffff"
     bordercolor="#666666"
     borderopacity="1"
     objecttolerance="10"
     gridtolerance="10"
     guidetolerance="10"
     inkscape:pageopacity="0"
     inkscape:pageshadow="2"
     inkscape:window-width="1770"
     inkscape:window-height="896"
     id="namedview817"
     showgrid="false"
     inkscape:zoom="2.101287"
     inkscape:cx="207.25714"
     inkscape:cy="95.85515"
     inkscape:window-x="230"
     inkscape:window-y="227"
     inkscape:window-maximized="0"
     inkscape:current-layer="g823"
     fit-margin-top="10"
     fit-margin-left="10"
     fit-margin-right="10"
     fit-margin-bottom="10" /><g
     id="g823"
     inkscape:groupmode="layer"
     inkscape:label="sticker_rectangular_grey_transparent"
     transform="matrix(1.3333333,0,0,-1.3333333,-8.9299995,218.21363)"><g
       id="g911"><g
         style="fill:#000000"
         transform="translate(183.2476,150.4951)"
         id="g825"><path
           inkscape:connector-curvature="0"
           id="path827"
           style="fill:#000000;fill-opacity:1;fill-rule:nonzero;stroke:none"
           d="M 0,0 V -17.848 H -17.844 V -36.067 H 0 v -17.845 h 18.22 v 17.845 h 17.844 v 18.219 H 18.22 V 0 Z" /></g><g
         transform="translate(121.0469,141.7861)"
         id="g837"><path
           inkscape:connector-curvature="0"
           id="path839"
           style="fill:#000000;fill-opacity:1;fill-rule:nonzero;stroke:none"
           d="M 0,0 C -20.098,23.491 -40.196,-2.087 -28.971,-15.399 L 0,-44.892 M 0,0 C 20.096,23.491 40.193,-2.087 28.972,-15.399 L 0,-44.892" /></g><g
         transform="translate(54.3579,112.4126)"
         id="g841"><path
           inkscape:connector-curvature="0"
           id="path843"
           style="fill:#000000;fill-opacity:1;fill-rule:nonzero;stroke:none"
           d="m 0,0 c -2.621,-0.852 -5.582,-0.852 -8.203,-0.001 -2.599,0.884 -5.025,2.541 -6.623,4.835 -1.673,2.247 -2.502,4.978 -2.548,7.783 0.046,2.804 0.874,5.535 2.547,7.782 1.598,2.294 4.024,3.951 6.623,4.834 2.621,0.852 5.582,0.852 8.204,0 2.599,-0.882 5.024,-2.54 6.623,-4.834 C 8.296,18.153 9.124,15.422 9.171,12.617 9.124,9.813 8.296,7.081 6.623,4.834 5.025,2.54 2.599,0.883 0,0 m 21.516,9.517 c 0.144,1.026 0.138,2.067 0.202,3.1 -0.064,1.034 -0.058,2.074 -0.202,3.101 1.676,0.796 3.336,1.713 4.965,2.748 -0.512,2.542 -1.278,5.051 -2.412,7.388 -1.924,-0.117 -3.762,-0.328 -5.615,-0.685 -0.55,0.879 -1.034,1.804 -1.687,2.613 -0.599,0.85 -1.256,1.651 -1.977,2.399 0.911,1.654 1.719,3.375 2.398,5.138 -1.857,1.812 -4.021,3.274 -6.261,4.574 -1.481,-1.21 -2.882,-2.528 -4.16,-3.877 -0.921,0.487 -1.924,0.781 -2.893,1.151 -0.99,0.31 -2.002,0.562 -3.015,0.782 -0.243,1.835 -0.607,3.691 -1.093,5.555 -2.57,0.325 -5.166,0.325 -7.737,-10e-4 -0.486,-1.863 -0.85,-3.719 -1.093,-5.554 -1.012,-0.221 -2.025,-0.472 -3.014,-0.782 -0.97,-0.37 -1.973,-0.665 -2.893,-1.151 -1.278,1.349 -2.68,2.667 -4.161,3.877 -2.24,-1.301 -4.404,-2.763 -6.261,-4.575 0.679,-1.763 1.487,-3.484 2.398,-5.138 -0.721,-0.748 -1.377,-1.549 -1.976,-2.399 -0.653,-0.809 -1.137,-1.734 -1.687,-2.613 -1.853,0.357 -3.692,0.567 -5.615,0.684 -1.134,-2.337 -1.9,-4.845 -2.412,-7.388 1.63,-1.035 3.289,-1.951 4.965,-2.747 -0.143,-1.027 -0.138,-2.068 -0.201,-3.101 0.063,-1.033 0.058,-2.074 0.201,-3.101 -1.676,-0.795 -3.335,-1.712 -4.964,-2.747 0.512,-2.543 1.277,-5.051 2.412,-7.389 1.923,0.118 3.762,0.328 5.614,0.686 0.551,-0.879 1.035,-1.805 1.687,-2.614 0.599,-0.849 1.256,-1.651 1.977,-2.399 -0.911,-1.654 -1.719,-3.374 -2.397,-5.138 1.856,-1.811 4.02,-3.273 6.26,-4.574 1.481,1.21 2.883,2.528 4.161,3.877 0.92,-0.487 1.923,-0.78 2.893,-1.151 0.989,-0.31 2.002,-0.561 3.014,-0.782 0.243,-1.835 0.607,-3.691 1.094,-5.554 2.57,-0.325 5.166,-0.325 7.737,0 0.485,1.864 0.849,3.719 1.092,5.554 1.013,0.221 2.025,0.472 3.015,0.782 0.969,0.371 1.973,0.665 2.893,1.152 1.278,-1.349 2.68,-2.667 4.16,-3.877 2.241,1.301 4.405,2.763 6.261,4.574 -0.679,1.763 -1.487,3.485 -2.398,5.138 0.721,0.748 1.378,1.55 1.977,2.399 0.653,0.809 1.136,1.735 1.687,2.614 1.852,-0.358 3.691,-0.568 5.614,-0.685 1.135,2.337 1.9,4.846 2.412,7.388 -1.629,1.035 -3.289,1.952 -4.965,2.748" /></g><path
         inkscape:connector-curvature="0"
         id="path845"
         style="fill:none;stroke:#000000;stroke-width:2.71099997;stroke-linecap:butt;stroke-linejoin:miter;stroke-miterlimit:4;stroke-dasharray:none;stroke-opacity:1"
         d="M 224.042,8.826 H 15.553 v 69.831 h 208.489 z" /><g
         transform="translate(15.8857,36.374)"
         id="g847"><path
           inkscape:connector-curvature="0"
           id="path849"
           style="fill:none;stroke:#000000;stroke-width:2.54399991;stroke-linecap:butt;stroke-linejoin:miter;stroke-miterlimit:4;stroke-dasharray:none;stroke-opacity:1"
           d="M 0,0 H 208.489" /></g><g
         transform="translate(127.9199,27.5898)"
         id="g851"><path
           inkscape:connector-curvature="0"
           id="path853"
           style="fill:#000000;fill-opacity:1;fill-rule:nonzero;stroke:none"
           d="m 0,0 c -0.703,0 -1.272,-0.251 -1.706,-0.754 -0.352,-0.405 -0.528,-0.935 -0.528,-1.59 v -5.052 c 0,-0.655 0.176,-1.185 0.528,-1.59 0.434,-0.503 1.003,-0.754 1.706,-0.754 0.703,0 1.272,0.251 1.707,0.754 0.351,0.405 0.527,0.935 0.527,1.59 v 5.052 c 0,0.655 -0.176,1.185 -0.527,1.59 C 1.272,-0.251 0.703,0 0,0" /></g><g
         transform="translate(104.6289,27.5898)"
         id="g855"><path
           inkscape:connector-curvature="0"
           id="path857"
           style="fill:#000000;fill-opacity:1;fill-rule:nonzero;stroke:none"
           d="m 0,0 c -0.703,0 -1.272,-0.251 -1.706,-0.754 -0.352,-0.405 -0.528,-0.935 -0.528,-1.59 v -5.052 c 0,-0.655 0.176,-1.185 0.528,-1.59 0.434,-0.503 1.003,-0.754 1.706,-0.754 0.703,0 1.272,0.251 1.706,0.754 0.352,0.405 0.528,0.935 0.528,1.59 v 5.052 c 0,0.655 -0.176,1.185 -0.528,1.59 C 1.272,-0.251 0.703,0 0,0" /></g><g
         transform="translate(215.668,18.1054)"
         id="g859"><path
           inkscape:connector-curvature="0"
           id="path861"
           style="fill:#000000;fill-opacity:1;fill-rule:nonzero;stroke:none"
           d="m 0,0 c -0.669,-0.708 -1.572,-1.062 -2.71,-1.062 -1.138,0 -2.041,0.354 -2.71,1.062 -0.659,0.698 -0.989,1.516 -0.989,2.453 l 1.392,0.66 h 0.073 V 2 c 0,-0.596 0.176,-1.097 0.527,-1.502 0.435,-0.503 1.004,-0.754 1.707,-0.754 0.698,0 1.267,0.251 1.707,0.754 0.346,0.396 0.52,1.072 0.52,2.029 0,0.752 -0.142,1.293 -0.425,1.625 -0.391,0.459 -0.991,0.69 -1.802,0.69 -0.947,0 -1.716,0.263 -2.307,0.791 -0.488,0.439 -0.732,1.058 -0.732,1.859 0,0.904 0.302,1.602 0.908,2.096 0.576,0.469 1.286,0.703 2.131,0.703 0.845,0 1.555,-0.234 2.131,-0.703 C 0.027,9.094 0.33,8.418 0.33,7.559 l -1.392,-0.66 h -0.073 v 0.938 c 0,0.557 -0.159,0.972 -0.476,1.245 -0.308,0.269 -0.674,0.402 -1.099,0.402 -0.474,0 -0.854,-0.148 -1.143,-0.446 -0.288,-0.298 -0.432,-0.815 -0.432,-1.553 0,-0.654 0.11,-1.103 0.33,-1.347 0.293,-0.327 0.708,-0.492 1.245,-0.492 1.23,0 2.146,-0.275 2.747,-0.827 C 0.667,4.238 0.981,3.479 0.981,2.541 0.981,1.545 0.654,0.698 0,0 m -9.045,-0.549 -1.392,-0.66 h -0.073 v 5.42 h -4.322 v -4.76 l -1.391,-0.66 h -0.073 V 9.777 l 1.391,0.661 h 0.073 v -5.42 h 4.322 v 4.759 l 1.391,0.661 h 0.074 z m -10.181,0 -1.392,-0.66 h -0.073 v 8.35 c 0,0.654 -0.176,1.184 -0.527,1.589 -0.435,0.503 -1.004,0.754 -1.707,0.754 -0.703,0 -1.272,-0.251 -1.706,-0.754 -0.352,-0.405 -0.528,-0.935 -0.528,-1.589 v -7.69 l -1.391,-0.66 h -0.074 v 7.838 c 0,1.055 0.33,1.921 0.989,2.6 0.694,0.708 1.597,1.062 2.71,1.062 1.099,0 2.002,-0.354 2.71,-1.062 0.659,-0.655 0.989,-1.522 0.989,-2.6 z m -15.088,0.365 -0.344,-0.732 h -6.299 V 9.777 l 0.776,0.368 h 4.644 V 10.07 l -0.344,-0.732 h -3.611 v -4.32 h 3.955 V 4.943 l -0.344,-0.732 h -3.611 v -4.32 h 5.178 z m -9.573,-0.365 -1.391,-0.66 h -0.074 v 5.42 h -4.321 v -4.76 l -1.391,-0.66 h -0.074 V 9.777 l 1.392,0.661 h 0.073 v -5.42 h 4.321 v 4.759 l 1.392,0.661 h 0.073 z m -8.02,10.619 -0.344,-0.732 h -2.791 v -9.887 l -1.391,-0.66 h -0.073 V 9.338 h -3.135 v 0.074 l 0.344,0.733 h 7.39 z m -13.996,-10.254 -0.345,-0.732 h -6.298 V 9.777 l 0.776,0.368 h 4.644 V 10.07 l -0.345,-0.732 h -3.611 v -4.32 h 3.956 V 4.943 l -0.345,-0.732 h -3.611 v -4.32 h 5.179 z m -11.734,-0.42 -1.253,-0.605 h -0.072 l -3.736,11.045 1.277,0.602 h 0.074 l 3.233,-9.629 3.209,9.629 h 0.072 l 0.77,-0.37 z M -84.199,2.6 c 0,-1.059 -0.33,-1.926 -0.989,-2.6 -0.693,-0.708 -1.597,-1.062 -2.71,-1.062 -1.113,0 -2.017,0.354 -2.71,1.062 -0.659,0.674 -0.989,1.541 -0.989,2.6 v 4.029 c 0,1.058 0.33,1.926 0.989,2.6 0.693,0.708 1.597,1.062 2.71,1.062 1.113,0 2.017,-0.354 2.71,-1.062 0.659,-0.669 0.989,-1.536 0.989,-2.6 z m -8.02,-2.784 -0.344,-0.732 h -6.138 V 9.777 l 1.391,0.661 h 0.074 V -0.109 h 5.017 z M -107.49,2.6 c 0,-1.059 -0.33,-1.926 -0.989,-2.6 -0.693,-0.708 -1.597,-1.062 -2.71,-1.062 -1.113,0 -2.017,0.354 -2.71,1.062 -0.659,0.674 -0.989,1.541 -0.989,2.6 v 4.029 c 0,1.058 0.33,1.926 0.989,2.6 0.693,0.708 1.597,1.062 2.71,1.062 1.113,0 2.017,-0.354 2.71,-1.062 0.659,-0.669 0.989,-1.536 0.989,-2.6 z m -10.327,-3.149 -1.392,-0.66 h -0.073 v 5.42 h -4.322 v -4.76 l -1.391,-0.66 h -0.073 V 9.777 l 1.391,0.661 h 0.073 v -5.42 h 4.322 v 4.759 l 1.391,0.661 h 0.074 z M -127.998,2.6 c 0,-1.055 -0.33,-1.921 -0.989,-2.6 -0.693,-0.708 -1.596,-1.062 -2.71,-1.062 -1.006,0 -1.863,0.354 -2.571,1.062 -0.175,0.176 -0.307,0.347 -0.395,0.513 -0.112,-0.171 -0.249,-0.335 -0.41,-0.492 -0.738,-0.722 -1.59,-1.083 -2.556,-1.083 -1.094,0 -1.997,0.354 -2.71,1.062 -0.66,0.654 -0.989,1.521 -0.989,2.6 v 7.177 l 1.391,0.661 h 0.074 v -8.35 c 0,-0.654 0.176,-1.185 0.527,-1.59 0.435,-0.503 1.003,-0.754 1.707,-0.754 0.703,0 1.272,0.251 1.706,0.754 0.352,0.405 0.528,0.936 0.528,1.59 v 7.689 l 1.391,0.661 h 0.073 v -8.35 c 0,-0.654 0.176,-1.185 0.528,-1.59 0.434,-0.503 1.003,-0.754 1.706,-0.754 0.703,0 1.272,0.251 1.707,0.754 0.351,0.405 0.527,0.936 0.527,1.59 v 7.689 l 1.392,0.661 h 0.073 z M -150.806,0 c -0.669,-0.708 -1.572,-1.062 -2.71,-1.062 -1.137,0 -2.041,0.354 -2.71,1.062 -0.659,0.698 -0.988,1.516 -0.988,2.453 l 1.391,0.66 h 0.074 V 2 c 0,-0.596 0.175,-1.097 0.527,-1.502 0.434,-0.503 1.003,-0.754 1.706,-0.754 0.699,0 1.267,0.251 1.707,0.754 0.347,0.396 0.52,1.072 0.52,2.029 0,0.752 -0.142,1.293 -0.425,1.625 -0.39,0.459 -0.991,0.69 -1.802,0.69 -0.947,0 -1.716,0.263 -2.307,0.791 -0.488,0.439 -0.732,1.058 -0.732,1.859 0,0.904 0.302,1.602 0.908,2.096 0.576,0.469 1.287,0.703 2.131,0.703 0.845,0 1.556,-0.234 2.132,-0.703 0.605,-0.494 0.908,-1.17 0.908,-2.029 l -1.392,-0.66 h -0.073 v 0.938 c 0,0.557 -0.159,0.972 -0.476,1.245 -0.308,0.269 -0.674,0.402 -1.099,0.402 -0.473,0 -0.854,-0.148 -1.142,-0.446 -0.288,-0.298 -0.432,-0.815 -0.432,-1.553 0,-0.654 0.11,-1.103 0.329,-1.347 0.293,-0.327 0.708,-0.492 1.245,-0.492 1.231,0 2.146,-0.275 2.747,-0.827 0.63,-0.581 0.945,-1.34 0.945,-2.278 0,-0.996 -0.327,-1.843 -0.982,-2.541 m -8.899,-0.549 -1.391,-0.66 h -0.073 v 3.538 c 0,0.654 -0.176,1.185 -0.528,1.589 -0.435,0.504 -0.968,0.755 -1.597,0.755 -0.641,0 -1.173,-0.251 -1.598,-0.753 -0.35,-0.415 -0.525,-0.945 -0.525,-1.59 v -2.879 l -1.392,-0.66 h -0.073 V 9.777 l 1.391,0.661 h 0.074 V 4.922 l 4.721,5.516 h 0.073 l 0.85,-0.439 -3.807,-4.52 c 1.292,0 2.264,-0.328 2.917,-0.982 0.639,-0.64 0.958,-1.507 0.958,-2.601 z m -9.008,0.365 -0.345,-0.732 h -6.299 V 9.777 l 0.777,0.368 h 4.643 V 10.07 l -0.344,-0.732 h -3.611 v -4.32 h 3.955 V 4.943 l -0.344,-0.732 h -3.611 v -4.32 h 5.179 z m -8.474,0 -0.345,-0.732 h -6.299 V 9.777 l 0.777,0.368 h 4.643 V 10.07 l -0.344,-0.732 h -3.611 v -4.32 h 3.955 V 4.943 l -0.344,-0.732 h -3.611 v -4.32 h 5.179 z m -11.566,8.914 c -0.424,0.503 -0.993,0.754 -1.706,0.754 -0.703,0 -1.272,-0.251 -1.707,-0.754 -0.351,-0.4 -0.527,-0.929 -0.527,-1.589 V 2.088 c 0,-0.651 0.176,-1.18 0.527,-1.59 0.435,-0.503 1.004,-0.754 1.707,-0.754 0.703,0 1.272,0.251 1.706,0.754 0.352,0.405 0.528,0.887 0.528,1.443 v 2.27 h -2.424 v 0.074 l 0.344,0.733 h 3.545 V 2.6 c 0,-1.059 -0.33,-1.926 -0.989,-2.6 -0.693,-0.708 -1.597,-1.062 -2.71,-1.062 -1.113,0 -2.017,0.354 -2.71,1.062 -0.659,0.674 -0.989,1.541 -0.989,2.6 v 4.029 c 0,1.058 0.33,1.926 0.989,2.6 0.693,0.708 1.597,1.062 2.71,1.062 1.152,0 2.057,-0.354 2.713,-1.062 0.657,-0.709 0.986,-1.526 0.986,-2.454 l -1.392,-0.66 h -0.073 v 1.026 c 0,0.644 -0.176,1.174 -0.528,1.589 m -10.148,-17.193 h 208 v 26.605 h -208 z" /></g><text
         id="text865"
         style="font-variant:normal;font-weight:normal;font-stretch:normal;font-size:27px;font-family:'Nova Slim';-inkscape-font-specification:NovaSlim;writing-mode:lr-tb;fill:#000000;fill-opacity:1;fill-rule:nonzero;stroke:none"
         transform="matrix(1,0,0,-1,23.835,47.2168)"><tspan
           id="tspan863"
           sodipodi:role="line"
           y="0"
           x="0 17.523001 34.803001 51.272999 60.777 78.056999 95.580002 113.103 129.978 139.48199 156.76199 173.63969">NHS HACK DAY</tspan></text>
</g></g></svg>