<?xml version="1.0" encoding="UTF-8" standalone="no"?>
<!-- Created with Inkscape (http://www.inkscape.org/) -->

<svg
   xmlns:dc="http://purl.org/dc/elements/1.1/"
   xmlns:cc="http://creativecommons.org/ns#"
   xmlns:rdf="http://www.w3.org/1999/02/22-rdf-syntax-ns#"
   xmlns:svg="http://www.w3.org/2000/svg"
   xmlns="http://www.w3.org/2000/svg"
   xmlns:sodipodi="http://sodipodi.sourceforge.net/DTD/sodipodi-0.dtd"
   xmlns:inkscape="http://www.inkscape.org/namespaces/inkscape"
   version="1.1"
   id="svg815"
   xml:space="preserve"
   width="286.18494"
   height="103.01517"
   viewBox="0 0 286.18494 103.01517"
   sodipodi:docname="symbols.svg"
   inkscape:export-filename="C:\Users\Me\Desktop\symbols.png"
   inkscape:export-xdpi="600.12415"
   inkscape:export-ydpi="600.12415"
   inkscape:version="0.92.3 (2405546, 2018-03-11)"><metadata
     id="metadata821"><rdf:RDF><cc:Work
         rdf:about=""><dc:format>image/svg+xml</dc:format><dc:type
           rdf:resource="http://purl.org/dc/dcmitype/StillImage" /><dc:title></dc:title></cc:Work></rdf:RDF></metadata><defs
     id="defs819"><clipPath
   clipPathUnits="userSpaceOnUse"
   id="clipPath835"><path
     d="M 0,170.25 H 238.25 V 0 H 0 Z"
     id="path833"
     inkscape:connector-curvature="0" /></clipPath>
</defs><sodipodi:namedview
     pagecolor="#ffffff"
     bordercolor="#666666"
     borderopacity="1"
     objecttolerance="10"
     gridtolerance="10"
     guidetolerance="10"
     inkscape:pageopacity="0"
     inkscape:pageshadow="2"
     inkscape:window-width="1770"
     inkscape:window-height="896"
     id="namedview817"
     showgrid="false"
     inkscape:zoom="1.0506435"
     inkscape:cx="-0.61230407"
     inkscape:cy="-23.818999"
     inkscape:window-x="386"
     inkscape:window-y="453"
     inkscape:window-maximized="0"
     inkscape:current-layer="g823"
     fit-margin-top="10"
     fit-margin-left="10"
     fit-margin-right="10"
     fit-margin-bottom="10" /><g
     id="g823"
     inkscape:groupmode="layer"
     inkscape:label="sticker_rectangular_grey_transparent"
     transform="matrix(1.3333333,0,0,-1.3333333,-16.230533,160.59473)"><g
       id="g938"
       transform="translate(0,-43.214173)"><g
         style="fill:#000000"
         transform="translate(183.2476,150.4951)"
         id="g825"><path
           inkscape:connector-curvature="0"
           id="path827"
           style="fill:#000000;fill-opacity:1;fill-rule:nonzero;stroke:none"
           d="M 0,0 V -17.848 H -17.844 V -36.067 H 0 v -17.845 h 18.22 v 17.845 h 17.844 v 18.219 H 18.22 V 0 Z" /></g><g
         transform="translate(121.0469,141.7861)"
         id="g837"><path
           inkscape:connector-curvature="0"
           id="path839"
           style="fill:#000000;fill-opacity:1;fill-rule:nonzero;stroke:none"
           d="M 0,0 C -20.098,23.491 -40.196,-2.087 -28.971,-15.399 L 0,-44.892 M 0,0 C 20.096,23.491 40.193,-2.087 28.972,-15.399 L 0,-44.892" /></g><g
         transform="translate(54.3579,112.4126)"
         id="g841"><path
           inkscape:connector-curvature="0"
           id="path843"
           style="fill:#000000;fill-opacity:1;fill-rule:nonzero;stroke:none"
           d="m 0,0 c -2.621,-0.852 -5.582,-0.852 -8.203,-0.001 -2.599,0.884 -5.025,2.541 -6.623,4.835 -1.673,2.247 -2.502,4.978 -2.548,7.783 0.046,2.804 0.874,5.535 2.547,7.782 1.598,2.294 4.024,3.951 6.623,4.834 2.621,0.852 5.582,0.852 8.204,0 2.599,-0.882 5.024,-2.54 6.623,-4.834 C 8.296,18.153 9.124,15.422 9.171,12.617 9.124,9.813 8.296,7.081 6.623,4.834 5.025,2.54 2.599,0.883 0,0 m 21.516,9.517 c 0.144,1.026 0.138,2.067 0.202,3.1 -0.064,1.034 -0.058,2.074 -0.202,3.101 1.676,0.796 3.336,1.713 4.965,2.748 -0.512,2.542 -1.278,5.051 -2.412,7.388 -1.924,-0.117 -3.762,-0.328 -5.615,-0.685 -0.55,0.879 -1.034,1.804 -1.687,2.613 -0.599,0.85 -1.256,1.651 -1.977,2.399 0.911,1.654 1.719,3.375 2.398,5.138 -1.857,1.812 -4.021,3.274 -6.261,4.574 -1.481,-1.21 -2.882,-2.528 -4.16,-3.877 -0.921,0.487 -1.924,0.781 -2.893,1.151 -0.99,0.31 -2.002,0.562 -3.015,0.782 -0.243,1.835 -0.607,3.691 -1.093,5.555 -2.57,0.325 -5.166,0.325 -7.737,-10e-4 -0.486,-1.863 -0.85,-3.719 -1.093,-5.554 -1.012,-0.221 -2.025,-0.472 -3.014,-0.782 -0.97,-0.37 -1.973,-0.665 -2.893,-1.151 -1.278,1.349 -2.68,2.667 -4.161,3.877 -2.24,-1.301 -4.404,-2.763 -6.261,-4.575 0.679,-1.763 1.487,-3.484 2.398,-5.138 -0.721,-0.748 -1.377,-1.549 -1.976,-2.399 -0.653,-0.809 -1.137,-1.734 -1.687,-2.613 -1.853,0.357 -3.692,0.567 -5.615,0.684 -1.134,-2.337 -1.9,-4.845 -2.412,-7.388 1.63,-1.035 3.289,-1.951 4.965,-2.747 -0.143,-1.027 -0.138,-2.068 -0.201,-3.101 0.063,-1.033 0.058,-2.074 0.201,-3.101 -1.676,-0.795 -3.335,-1.712 -4.964,-2.747 0.512,-2.543 1.277,-5.051 2.412,-7.389 1.923,0.118 3.762,0.328 5.614,0.686 0.551,-0.879 1.035,-1.805 1.687,-2.614 0.599,-0.849 1.256,-1.651 1.977,-2.399 -0.911,-1.654 -1.719,-3.374 -2.397,-5.138 1.856,-1.811 4.02,-3.273 6.26,-4.574 1.481,1.21 2.883,2.528 4.161,3.877 0.92,-0.487 1.923,-0.78 2.893,-1.151 0.989,-0.31 2.002,-0.561 3.014,-0.782 0.243,-1.835 0.607,-3.691 1.094,-5.554 2.57,-0.325 5.166,-0.325 7.737,0 0.485,1.864 0.849,3.719 1.092,5.554 1.013,0.221 2.025,0.472 3.015,0.782 0.969,0.371 1.973,0.665 2.893,1.152 1.278,-1.349 2.68,-2.667 4.16,-3.877 2.241,1.301 4.405,2.763 6.261,4.574 -0.679,1.763 -1.487,3.485 -2.398,5.138 0.721,0.748 1.378,1.55 1.977,2.399 0.653,0.809 1.136,1.735 1.687,2.614 1.852,-0.358 3.691,-0.568 5.614,-0.685 1.135,2.337 1.9,4.846 2.412,7.388 -1.629,1.035 -3.289,1.952 -4.965,2.748" /></g></g></g></svg>