<?xml version="1.0" encoding="UTF-8" standalone="no"?>
<!-- Created with Inkscape (http://www.inkscape.org/) -->

<svg
   xmlns:dc="http://purl.org/dc/elements/1.1/"
   xmlns:cc="http://creativecommons.org/ns#"
   xmlns:rdf="http://www.w3.org/1999/02/22-rdf-syntax-ns#"
   xmlns:svg="http://www.w3.org/2000/svg"
   xmlns="http://www.w3.org/2000/svg"
   xmlns:sodipodi="http://sodipodi.sourceforge.net/DTD/sodipodi-0.dtd"
   xmlns:inkscape="http://www.inkscape.org/namespaces/inkscape"
   width="210mm"
   height="297mm"
   viewBox="0 0 210 297"
   version="1.1"
   id="svg8"
   inkscape:version="0.92.4 (5da689c313, 2019-01-14)"
   sodipodi:docname="nhshd-blank-poster-red.svg">
  <defs
     id="defs2">
    <clipPath
       clipPathUnits="userSpaceOnUse"
       id="clipPath833">
      <path
         d="M 0,0 H 366 V 76 H 0 Z"
         id="path831"
         inkscape:connector-curvature="0" />
    </clipPath>
    <clipPath
       clipPathUnits="userSpaceOnUse"
       id="clipPath847">
      <path
         d="M 0,76 H 366 V 0 H 0 Z"
         id="path845"
         inkscape:connector-curvature="0" />
    </clipPath>
    <clipPath
       clipPathUnits="userSpaceOnUse"
       id="clipPath853">
      <path
         d="M 0,0 H 366 V 76 H 0 Z"
         id="path851"
         inkscape:connector-curvature="0" />
    </clipPath>
    <clipPath
       clipPathUnits="userSpaceOnUse"
       id="clipPath919">
      <path
         d="M 0,76 H 366 V 0 H 0 Z"
         id="path917"
         inkscape:connector-curvature="0" />
    </clipPath>
    <clipPath
       id="clipPath835"
       clipPathUnits="userSpaceOnUse">
      <path
         inkscape:connector-curvature="0"
         id="path833"
         d="M 0,170.25 H 238.25 V 0 H 0 Z" />
    </clipPath>
  </defs>
  <sodipodi:namedview
     id="base"
     pagecolor="#ffffff"
     bordercolor="#666666"
     borderopacity="1.0"
     inkscape:pageopacity="0.0"
     inkscape:pageshadow="2"
     inkscape:zoom="0.49497475"
     inkscape:cx="87.341875"
     inkscape:cy="332.79841"
     inkscape:document-units="mm"
     inkscape:current-layer="layer1"
     showgrid="false"
     inkscape:window-width="1986"
     inkscape:window-height="1164"
     inkscape:window-x="355"
     inkscape:window-y="235"
     inkscape:window-maximized="0" />
  <metadata
     id="metadata5">
    <rdf:RDF>
      <cc:Work
         rdf:about="">
        <dc:format>image/svg+xml</dc:format>
        <dc:type
           rdf:resource="http://purl.org/dc/dcmitype/StillImage" />
        <dc:title />
      </cc:Work>
    </rdf:RDF>
  </metadata>
  <g
     inkscape:label="Layer 1"
     inkscape:groupmode="layer"
     id="layer1">
    <rect
       style="opacity:1;fill:#e32a21;fill-opacity:1;stroke:none;stroke-width:0.60929877;stroke-linecap:round;stroke-linejoin:round;stroke-miterlimit:4;stroke-dasharray:none;stroke-dashoffset:0;stroke-opacity:1"
       id="rect4780"
       width="210"
       height="126.68576"
       x="7.1054274e-15"
       y="0"
       ry="0.69800216" />
    <g
       id="g982"
       transform="translate(0,-2.0470318)">
      <path
         inkscape:connector-curvature="0"
         id="path860"
         style="fill:#ffffff;fill-opacity:1;fill-rule:nonzero;stroke:none;stroke-width:0.8447842"
         d="m 144.91161,24.500307 v 11.173117 h -11.17058 v 11.405424 h 11.17058 v 11.171443 h 11.40628 V 47.078848 h 11.17142 V 35.673424 H 156.31789 V 24.500307 Z" />
      <path
         inkscape:connector-curvature="0"
         id="path862"
         style="fill:#ffffff;fill-opacity:1;fill-rule:nonzero;stroke:none;stroke-width:0.84478414"
         d="M 105.97298,29.951615 C 93.390765,15.246457 80.809394,31.258496 87.836309,39.592292 l 18.136671,18.463602 m 0,-28.104279 c 12.57968,-14.705158 25.1619,1.306881 18.13667,9.640677 l -18.13667,18.463602" />
      <g
         id="g868"
         transform="matrix(0.84478416,0,0,-0.84478416,64.223995,48.340287)"
         style="fill:#ffffff;fill-opacity:1">
        <path
           d="m 0,0 c -1.942,-0.631 -4.137,-0.631 -6.079,0 -1.925,0.654 -3.724,1.881 -4.907,3.582 -1.241,1.665 -1.854,3.689 -1.889,5.767 0.035,2.079 0.648,4.103 1.888,5.767 1.184,1.7 2.982,2.928 4.908,3.584 1.942,0.63 4.137,0.63 6.079,0 C 1.926,18.044 3.723,16.816 4.907,15.116 6.149,13.452 6.762,11.428 6.796,9.35 6.762,7.272 6.149,5.247 4.907,3.582 3.724,1.883 1.926,0.654 0,0 m 15.944,7.052 c 0.107,0.761 0.103,1.532 0.15,2.298 -0.047,0.766 -0.043,1.537 -0.15,2.297 1.243,0.59 2.472,1.27 3.679,2.036 -0.379,1.885 -0.946,3.744 -1.787,5.476 -1.426,-0.087 -2.788,-0.243 -4.161,-0.508 -0.407,0.651 -0.766,1.337 -1.251,1.937 -0.443,0.629 -0.929,1.223 -1.464,1.777 0.676,1.226 1.275,2.501 1.777,3.808 -1.376,1.342 -2.979,2.426 -4.639,3.39 C 7,28.665 5.962,27.689 5.014,26.689 4.332,27.05 3.59,27.268 2.87,27.542 c -0.732,0.23 -1.483,0.417 -2.232,0.58 -0.181,1.359 -0.451,2.735 -0.812,4.116 -1.904,0.241 -3.827,0.241 -5.733,0 -0.36,-1.381 -0.629,-2.757 -0.81,-4.116 -0.75,-0.164 -1.5,-0.35 -2.233,-0.58 -0.719,-0.274 -1.462,-0.492 -2.144,-0.854 -0.948,1.001 -1.986,1.977 -3.083,2.874 -1.66,-0.964 -3.264,-2.048 -4.64,-3.39 0.503,-1.307 1.102,-2.582 1.777,-3.807 -0.534,-0.555 -1.021,-1.148 -1.464,-1.777 -0.485,-0.6 -0.843,-1.286 -1.25,-1.937 -1.374,0.264 -2.736,0.42 -4.162,0.507 -0.84,-1.732 -1.408,-3.591 -1.786,-5.476 1.207,-0.767 2.436,-1.446 3.679,-2.035 -0.106,-0.762 -0.103,-1.532 -0.15,-2.298 0.047,-0.766 0.044,-1.536 0.15,-2.298 -1.243,-0.589 -2.472,-1.27 -3.679,-2.036 0.379,-1.884 0.946,-3.743 1.787,-5.476 1.426,0.089 2.787,0.244 4.161,0.508 0.408,-0.65 0.766,-1.337 1.25,-1.936 0.444,-0.63 0.931,-1.222 1.465,-1.776 -0.676,-1.226 -1.275,-2.502 -1.777,-3.808 1.375,-1.344 2.979,-2.426 4.639,-3.391 1.098,0.897 2.136,1.874 3.084,2.873 0.682,-0.36 1.425,-0.577 2.143,-0.852 0.734,-0.231 1.484,-0.417 2.235,-0.58 0.18,-1.36 0.45,-2.734 0.81,-4.116 1.904,-0.24 3.828,-0.24 5.732,0.002 0.36,1.38 0.631,2.754 0.811,4.114 0.75,0.163 1.5,0.349 2.233,0.58 0.719,0.275 1.462,0.492 2.145,0.853 0.947,-0.999 1.986,-1.977 3.082,-2.873 1.66,0.964 3.264,2.046 4.64,3.39 -0.503,1.306 -1.101,2.582 -1.777,3.808 0.535,0.554 1.02,1.146 1.465,1.778 0.483,0.599 0.842,1.284 1.25,1.936 1.373,-0.265 2.735,-0.421 4.16,-0.508 0.841,1.733 1.408,3.591 1.788,5.475 -1.208,0.768 -2.437,1.447 -3.68,2.036"
           style="fill:#ffffff;fill-opacity:1;fill-rule:nonzero;stroke:none"
           id="path866"
           inkscape:connector-curvature="0" />
      </g>
    </g>
    <g
       style="fill:#ffffff;fill-opacity:1"
       transform="matrix(0.84478416,0,0,-0.84478416,164.30114,100.12682)"
       id="g874" />
    <g
       aria-label="NHS HACK DAY"
       style="font-variant:normal;font-weight:normal;font-stretch:normal;font-size:15.20611477px;font-family:'Nova Slim';-inkscape-font-specification:NovaSlim;writing-mode:lr-tb;fill:#ffffff;fill-opacity:1;fill-rule:nonzero;stroke:none;stroke-width:0.8447842"
       id="text878"
       transform="translate(287.84961,-34.745038)" />
    <g
       style="fill:#444444;fill-opacity:1;stroke:#ffffff;stroke-opacity:1"
       transform="matrix(0.84478416,0,0,-0.84478416,39.74127,88.676082)"
       id="g884" />
    <g
       style="fill:#ffffff;fill-opacity:1"
       transform="matrix(0.84478416,0,0,-0.84478416,95.9973,94.300742)"
       id="g888" />
    <path
       d="m 110.30507,92.253703 c -0.43168,0 -0.78143,0.154596 -1.04838,0.462942 -0.21626,0.249211 -0.32439,0.575298 -0.32439,0.97657 v 3.104582 c 0,0.401272 0.10813,0.727359 0.32439,0.975726 0.26695,0.309188 0.6167,0.463788 1.04838,0.463788 0.43168,0 0.78143,-0.1546 1.04838,-0.463788 0.21626,-0.248367 0.32439,-0.574454 0.32439,-0.975726 v -3.104582 c 0,-0.401272 -0.10813,-0.727359 -0.32439,-0.97657 -0.26695,-0.308346 -0.6167,-0.462942 -1.04838,-0.462942 m -14.30777,0 c -0.431684,0 -0.781425,0.154596 -1.048377,0.462942 -0.216265,0.249211 -0.324397,0.575298 -0.324397,0.97657 v 3.104582 c 0,0.401272 0.108132,0.727359 0.324397,0.975726 0.266952,0.309188 0.616693,0.463788 1.048377,0.463788 0.431685,0 0.781426,-0.1546 1.048377,-0.463788 0.216265,-0.248367 0.324398,-0.574454 0.324398,-0.975726 v -3.104582 c 0,-0.401272 -0.108133,-0.727359 -0.324398,-0.97657 C 96.778726,92.408299 96.428985,92.253703 95.9973,92.253703 M 39.74127,86.629043 H 170.26042 M 39.00977,64.645423 v 39.958917 h 131.98046 v -0.73046 -39.228457 z m 1.46093,1.46094 H 169.5293 V 103.14342 H 40.4707 Z m 116.52914,16.12686 v -3.89063 q -1.1657,-0.19305 -2.00471,-1.01721 -1.00236,-0.9875 -1.00236,-2.63582 v -3.59363 l 1.41073,-0.66824 h 0.0743 v 4.72221 q 0,0.99493 0.53459,1.61119 0.66081,0.76476 1.72999,0.76476 1.12858,0 1.72999,-0.76476 0.53459,-0.68308 0.53459,-1.61119 v -4.05397 l 1.41072,-0.66824 h 0.0742 v 4.26187 q 0,1.60377 -1.00236,2.63582 -0.80931,0.83159 -2.00471,1.01721 v 3.22239 l -1.41072,0.66824 z m -12.73115,0 v -7.9446 q 0,-1.60377 1.00236,-2.63583 1.05433,-1.0766 2.7472,-1.0766 1.66317,0 2.7472,1.0766 1.00235,0.99493 1.00235,2.63583 v 7.27636 l -1.41072,0.66824 h -0.0743 v -5.4944 h -4.52916 v 4.82616 l -1.41073,0.66824 z m 1.48498,-6.31114 h 4.52916 v -2.1532 q 0,-0.99494 -0.53459,-1.6112 -0.66824,-0.76476 -1.72999,-0.76476 -1.06918,0 -1.72999,0.76476 -0.53459,0.62369 -0.53459,1.6112 z m -11.80993,6.01414 v -10.84029 l 0.78704,-0.37125 h 2.81402 q 1.69287,0 2.7472,1.07661 1.00236,1.0172 1.00236,2.63582 v 3.78668 q 0,1.6112 -1.00236,2.63583 -1.05433,1.0766 -2.7472,1.0766 z m 1.48498,-0.81673 h 2.11608 q 1.01721,0 1.72999,-0.76476 0.53459,-0.57172 0.53459,-1.6112 v -4.82616 q 0,-0.9875 -0.53459,-1.61119 -0.66081,-0.76476 -1.72999,-0.76476 h -2.11608 z m -17.52741,1.11373 v -11.13729 l 1.41072,-0.66824 h 0.0742 v 5.59092 l 4.78904,-5.59092 h 0.0742 l 0.86128,0.44549 -3.98715,4.58114 q 2.027,0 3.05162,0.99493 1.00235,0.97266 1.00235,2.63583 v 2.4799 l -1.41071,0.66824 h -0.0743 v -3.58621 q 0,-0.99493 -0.53459,-1.6112 -0.66081,-0.76476 -1.61862,-0.76476 -0.97266,0 -1.61862,0.76476 -0.53459,0.63112 -0.53459,1.6112 v 2.91797 l -1.41072,0.66824 z m -2.96271,-4.38067 v 0.51974 q 0,1.61119 -1.00236,2.63582 -1.05433,1.07661 -2.7472,1.07661 -1.69287,0 -2.7472,-1.07661 -1.00235,-1.02463 -1.00235,-2.63582 v -4.08367 q 0,-1.6112 1.00235,-2.63583 1.05433,-1.0766 2.7472,-1.0766 1.75227,0 2.7472,1.0766 1.00236,1.0766 1.00236,2.48733 l -1.41073,0.66824 h -0.0743 v -1.03948 q 0,-0.99494 -0.53459,-1.6112 -0.66081,-0.76476 -1.72999,-0.76476 -1.06918,0 -1.72999,0.76476 -0.53459,0.61626 -0.53459,1.6112 v 5.12315 q 0,0.99493 0.53459,1.61119 0.66081,0.76476 1.72999,0.76476 1.06918,0 1.72999,-0.76476 0.53459,-0.61626 0.53459,-1.98243 l 1.41073,-0.66824 z m -17.96092,4.38067 v -7.9446 q 0,-1.60377 1.00236,-2.63583 1.05433,-1.0766 2.74719,-1.0766 1.66317,0 2.7472,1.0766 1.00236,0.99493 1.00236,2.63583 v 7.27636 l -1.41073,0.66824 h -0.0742 v -5.4944 h -4.52917 v 4.82616 l -1.41072,0.66824 z m 1.48497,-6.31114 h 4.52917 v -2.1532 q 0,-0.99494 -0.53459,-1.6112 -0.66824,-0.76476 -1.73,-0.76476 -1.06918,0 -1.72999,0.76476 -0.53459,0.62369 -0.53459,1.6112 z m -11.80991,6.31114 v -11.13729 l 1.41073,-0.66824 h 0.0742 v 5.49439 h 4.380659 v -4.82615 l 1.41073,-0.66824 h 0.0743 v 11.13729 l -1.410729,0.66824 h -0.0743 v -5.4944 h -4.38066 v 4.82616 l -1.41073,0.66824 z m -16.11135,-3.71243 1.41072,-0.66824 h 0.0743 v 1.12858 q 0,0.90583 0.534589,1.52209 0.660811,0.76476 1.729991,0.76476 1.061759,0 1.729989,-0.76476 0.52717,-0.60141 0.52717,-2.05668 0,-1.14343 -0.43064,-1.64832 -0.593989,-0.69794 -1.826519,-0.69794 -1.440421,0 -2.338831,-0.80188 -0.74249,-0.66824 -0.74249,-1.88592 0,-1.3736 0.920691,-2.12351 0.876129,-0.71278 2.16063,-0.71278 1.284499,0 2.160639,0.71278 0.92068,0.74991 0.92068,2.05669 l -1.41072,0.66824 h -0.0743 v -0.95039 q 0,-0.84643 -0.48262,-1.26222 -0.46777,-0.40837 -1.11373,-0.40837 -0.72021,0 -1.15828,0.45292 -0.43806,0.45291 -0.43806,1.57407 0,0.99493 0.33412,1.36617 0.44549,0.49747 1.26222,0.49747 1.87107,0 2.784321,0.83901 0.957809,0.88355 0.957809,2.30913 0,1.51467 -0.99493,2.57642 -1.01721,1.07661 -2.7472,1.07661 -1.72999,0 -2.747199,-1.07661 -1.002351,-1.06175 -1.00235,-2.48732 z m -10.02796,3.71243 v -11.13729 l 1.41072,-0.66824 h 0.0742 v 5.49439 h 4.380669 v -4.82615 l 1.410721,-0.66824 h 0.0743 v 11.13729 l -1.410719,0.66824 h -0.0743 v -5.4944 h -4.38067 v 4.82616 l -1.41072,0.66824 z m -10.46181,0 v -7.9446 q 0,-1.60377 1.00236,-2.63583 1.05433,-1.0766 2.7472,-1.0766 1.67059,0 2.7472,1.0766 1.00235,0.99493 1.00235,2.63583 v 7.27636 l -1.41072,0.66824 h -0.0743 v -8.46434 q 0,-0.99494 -0.534589,-1.6112 -0.660811,-0.76476 -1.72999,-0.76476 -1.06918,0 -1.72999,0.76476 -0.53459,0.61626 -0.53459,1.6112 v 7.7961 l -1.41073,0.66824 z m 114.24952,15.846558 c -0.41057,0.435898 -0.96559,0.652168 -1.66422,0.652168 -0.69949,0 -1.25451,-0.21627 -1.66507,-0.652168 -0.40466,-0.429148 -0.6074,-0.931795 -0.6074,-1.507093 l 0.85492,-0.405496 h 0.0448 v 0.684275 c 0,0.365791 0.10813,0.674138 0.3244,0.922504 0.26611,0.30919 0.61585,0.46379 1.04838,0.46379 0.4283,0 0.77804,-0.1546 1.04837,-0.46379 0.21204,-0.242453 0.31849,-0.658932 0.31849,-1.246057 0,-0.462096 -0.087,-0.794941 -0.2602,-0.999379 -0.23992,-0.282158 -0.60909,-0.423237 -1.10666,-0.423237 -0.58206,0 -1.05514,-0.161354 -1.41755,-0.485751 -0.2999,-0.269486 -0.45027,-0.650484 -0.45027,-1.142148 0,-0.555023 0.18669,-0.983329 0.55755,-1.287451 0.35397,-0.287227 0.79072,-0.43084 1.31027,-0.43084 0.51869,0 0.95545,0.143613 1.30941,0.43084 0.37171,0.304122 0.55756,0.718911 0.55756,1.246901 l -0.85492,0.404652 h -0.0448 v -0.575298 c 0,-0.342983 -0.098,-0.597263 -0.29229,-0.765375 -0.18923,-0.164732 -0.41479,-0.246677 -0.67498,-0.246677 -0.29146,0 -0.52546,0.09124 -0.70202,0.273711 -0.17741,0.183318 -0.26611,0.500957 -0.26611,0.954606 0,0.401272 0.0676,0.676672 0.20275,0.827043 0.17994,0.201059 0.43506,0.301588 0.76538,0.301588 0.75523,0 1.31786,0.169802 1.68703,0.50856 0.38691,0.356499 0.58037,0.823665 0.58037,1.398963 0,0.612468 -0.20106,1.132011 -0.60318,1.561159 m -5.55699,0.337068 -0.85408,0.40549 h -0.0456 v -3.33013 h -2.65431 v 2.92464 l -0.85492,0.40549 h -0.0448 v -6.748971 l 0.85492,-0.404652 h 0.0448 v 3.329294 h 2.65431 v -2.924642 l 0.85493,-0.404652 h 0.0448 z m -6.25394,0 -0.85492,0.40549 h -0.0448 v -5.128675 c 0,-0.402118 -0.10813,-0.728204 -0.3244,-0.977416 -0.26695,-0.308346 -0.61585,-0.462097 -1.04753,-0.462097 -0.43253,0 -0.78227,0.153751 -1.04922,0.462097 -0.21542,0.249212 -0.32356,0.575298 -0.32356,0.977416 v 4.723185 l -0.85492,0.40549 h -0.0448 v -4.813571 c 0,-0.648794 0.2019,-1.181008 0.6074,-1.597487 0.42577,-0.435908 0.98079,-0.652173 1.66507,-0.652173 0.67414,0 1.22916,0.216265 1.66422,0.652173 0.40465,0.402118 0.6074,0.934332 0.6074,1.597487 z m -9.26812,-0.223868 -0.21205,0.449418 h -3.86911 v -6.569031 l 0.47731,-0.224713 h 2.85199 v 0.04477 l -0.2112,0.45027 h -2.2184 v 2.654311 h 2.4296 v 0.04477 l -0.2112,0.449425 h -2.2184 v 2.65515 h 3.18146 z m -5.88139,0.223868 -0.85408,0.40549 h -0.0456 v -3.33013 h -2.65431 v 2.92464 l -0.85492,0.40549 h -0.0448 v -6.748971 l 0.85492,-0.404652 h 0.0448 v 3.329294 h 2.65431 v -2.924642 l 0.85492,-0.404652 h 0.0448 z m -4.92594,-6.52342 -0.21204,0.45027 h -1.71407 v 6.07315 l -0.85492,0.40549 h -0.0448 v -6.47864 h -1.92526 v -0.04562 l 0.21119,-0.449425 h 4.53987 z m -8.59821,6.299552 -0.2112,0.449418 h -3.86911 v -6.569031 l 0.47646,-0.224713 h 2.85199 v 0.04477 l -0.2112,0.45027 h -2.21755 v 2.654311 h 2.42875 v 0.04477 l -0.2112,0.449425 h -2.21755 v 2.65515 h 3.18061 z m -7.2077,0.256818 -0.77044,0.37254 h -0.0439 l -2.29528,-6.784452 0.7848,-0.369171 h 0.0456 l 1.98609,5.914334 1.97088,-5.914334 h 0.0439 l 0.47392,0.226402 z m -4.03215,-1.967503 c 0,0.651329 -0.20191,1.184388 -0.60656,1.597485 -0.42662,0.435898 -0.98079,0.652168 -1.66507,0.652168 -0.68427,0 -1.23845,-0.21627 -1.66507,-0.652168 -0.40465,-0.413097 -0.60655,-0.946156 -0.60655,-1.597485 v -2.473528 c 0,-0.651328 0.2019,-1.184387 0.60655,-1.597487 0.42662,-0.435908 0.9808,-0.652173 1.66507,-0.652173 0.68428,0 1.23845,0.216265 1.66507,0.652173 0.40465,0.410565 0.60656,0.942779 0.60656,1.597487 z m -4.92594,1.710685 -0.21204,0.449418 h -3.76943 v -6.569031 l 0.85408,-0.404652 h 0.0448 v 6.478645 h 3.08262 z m -9.381329,-1.710685 c 0,0.651329 -0.202748,1.184388 -0.6074,1.597485 -0.425771,0.435898 -0.980794,0.652168 -1.665069,0.652168 -0.683431,0 -1.238454,-0.21627 -1.664225,-0.652168 -0.405497,-0.413097 -0.6074,-0.946156 -0.6074,-1.597485 v -2.473528 c 0,-0.651328 0.201903,-1.184387 0.6074,-1.597487 0.425771,-0.435908 0.980794,-0.652173 1.664225,-0.652173 0.684275,0 1.239298,0.216265 1.665069,0.652173 0.404652,0.410565 0.6074,0.942779 0.6074,1.597487 z m -6.344329,1.934553 -0.854922,0.40549 h -0.04477 v -3.33013 h -2.654312 v 2.92464 l -0.854922,0.40549 H 87.4714 v -6.748971 l 0.854077,-0.404652 h 0.04562 v 3.329294 h 2.654312 v -2.924642 l 0.854921,-0.404652 h 0.04477 z m -6.253937,-1.934553 c 0,0.648794 -0.202748,1.181008 -0.6074,1.597485 -0.425771,0.435898 -0.980794,0.652168 -1.66507,0.652168 -0.617537,0 -1.143837,-0.21627 -1.578901,-0.652168 -0.108133,-0.10813 -0.189232,-0.212884 -0.243298,-0.314258 -0.06843,0.104754 -0.152906,0.205278 -0.251746,0.300748 -0.452804,0.444338 -0.975725,0.665678 -1.570454,0.665678 -0.671603,0 -1.226626,-0.21627 -1.664224,-0.652168 -0.405497,-0.402115 -0.6074,-0.933485 -0.6074,-1.597485 v -4.408928 l 0.854921,-0.404652 h 0.04477 v 5.128685 c 0,0.402117 0.108132,0.728204 0.323552,0.97657 0.266952,0.30919 0.616693,0.46379 1.048377,0.46379 0.43253,0 0.781426,-0.1546 1.048378,-0.46379 0.216264,-0.248366 0.324397,-0.574453 0.324397,-0.97657 v -4.724033 l 0.854921,-0.404652 h 0.04477 v 5.128685 c 0,0.402117 0.108132,0.728204 0.324397,0.97657 0.266952,0.30919 0.615848,0.46379 1.047532,0.46379 0.43253,0 0.781426,-0.1546 1.048377,-0.46379 0.216265,-0.248366 0.324398,-0.574453 0.324398,-0.97657 v -4.724033 l 0.854921,-0.404652 h 0.04477 z m -14.010746,1.597485 c -0.410565,0.435898 -0.965588,0.652168 -1.664224,0.652168 -0.699482,0 -1.254505,-0.21627 -1.66507,-0.652168 -0.405496,-0.429148 -0.6074,-0.931795 -0.6074,-1.507093 l 0.854922,-0.405496 h 0.04477 v 0.684275 c 0,0.365791 0.108133,0.674138 0.323553,0.922504 0.266952,0.30919 0.616692,0.46379 1.049222,0.46379 0.428305,0 0.778046,-0.1546 1.047532,-0.46379 0.212886,-0.242453 0.319328,-0.658932 0.319328,-1.246057 0,-0.462096 -0.08701,-0.794941 -0.260193,-0.999379 -0.239919,-0.282158 -0.609089,-0.423237 -1.106667,-0.423237 -0.582057,0 -1.055136,-0.161354 -1.417548,-0.485751 -0.300743,-0.269486 -0.45027,-0.650484 -0.45027,-1.142148 0,-0.555023 0.185852,-0.983329 0.557557,-1.287451 0.353965,-0.287227 0.790718,-0.43084 1.310261,-0.43084 0.517852,0 0.955451,0.143613 1.30857,0.43084 0.371705,0.304122 0.558403,0.718911 0.558403,1.246901 l -0.854922,0.404652 h -0.04477 v -0.575298 c 0,-0.342983 -0.09799,-0.597263 -0.293141,-0.765375 -0.188386,-0.164732 -0.413944,-0.246677 -0.674137,-0.246677 -0.291451,0 -0.525456,0.09124 -0.702016,0.273711 -0.177405,0.183318 -0.266107,0.500957 -0.266107,0.954606 0,0.401272 0.06758,0.676672 0.202748,0.827043 0.179939,0.201059 0.435064,0.301588 0.765375,0.301588 0.755237,0 1.317863,0.169802 1.687034,0.50856 0.386911,0.356499 0.580366,0.823665 0.580366,1.398963 0,0.612468 -0.201058,1.132011 -0.603176,1.561159 m -5.466598,0.337068 -0.854921,0.40549 h -0.04477 v -2.172776 c 0,-0.402117 -0.108132,-0.728204 -0.324397,-0.97657 -0.266952,-0.309191 -0.593883,-0.462942 -0.980795,-0.462942 -0.393669,0 -0.7206,0.153751 -0.981639,0.461252 -0.21542,0.255125 -0.322707,0.581212 -0.322707,0.977416 v 1.76813 l -0.854922,0.40549 h -0.04477 v -6.748971 l 0.854921,-0.404652 h 0.04477 V 95.0563 l 2.900144,-3.387584 h 0.04477 l 0.522922,0.268641 -2.339208,2.777651 c 0.794097,0 1.39136,0.200214 1.791788,0.602331 0.392824,0.392824 0.588814,0.925038 0.588814,1.597487 z m -5.534181,-0.223868 -0.211196,0.449418 h -3.869111 v -6.569031 l 0.476458,-0.224713 h 2.852836 v 0.04477 l -0.212041,0.45027 h -2.217558 v 2.654311 h 2.429599 v 0.04477 l -0.212041,0.449425 h -2.217558 v 2.65515 h 3.180612 z m -5.20556,0 -0.211196,0.449418 h -3.869111 v -6.569031 l 0.476458,-0.224713 h 2.852836 v 0.04477 l -0.212041,0.45027 h -2.217558 v 2.654311 h 2.429599 v 0.04477 l -0.212041,0.449425 h -2.217558 v 2.65515 h 3.180612 z m -7.104635,-5.476733 c -0.260193,-0.308346 -0.610779,-0.462097 -1.048377,-0.462097 -0.431685,0 -0.781425,0.153751 -1.048377,0.462097 -0.21542,0.246677 -0.323552,0.571919 -0.323552,0.977416 v 3.103737 c 0,0.399583 0.108132,0.724824 0.323552,0.97657 0.266952,0.30919 0.616692,0.46379 1.048377,0.46379 0.43253,0 0.781426,-0.1546 1.048377,-0.46379 0.216265,-0.248366 0.324397,-0.544041 0.324397,-0.886178 v -1.395584 h -1.489354 v -0.04393 l 0.211196,-0.45027 h 2.177854 v 1.484286 c 0,0.651329 -0.202749,1.184388 -0.6074,1.597486 -0.425771,0.435898 -0.980795,0.652168 -1.66507,0.652168 -0.68343,0 -1.238453,-0.21627 -1.664225,-0.652168 -0.405496,-0.413098 -0.607399,-0.946157 -0.607399,-1.597486 v -2.473528 c 0,-0.651328 0.201903,-1.184387 0.607399,-1.597487 0.425772,-0.435908 0.980795,-0.652173 1.664225,-0.652173 0.707929,0 1.263797,0.216265 1.667604,0.652173 0.402962,0.435064 0.604866,0.936866 0.604866,1.507095 l -0.854922,0.404652 h -0.04477 v -0.629364 c 0,-0.396204 -0.108132,-0.722291 -0.324397,-0.977416 m -8.60868,11.158003 H 170.25991 l 5.2e-4,-17.2452 H 39.741272 Z"
       style="fill:#ffffff;fill-opacity:1;fill-rule:nonzero;stroke:none;stroke-width:0.84478414"
       id="path890"
       inkscape:connector-curvature="0" />
    <flowRoot
       xml:space="preserve"
       id="flowRoot4698"
       style="font-style:normal;font-weight:normal;font-size:40px;line-height:1.25;font-family:sans-serif;letter-spacing:0px;word-spacing:0px;fill:#000000;fill-opacity:1;stroke:none"
       transform="matrix(0.26458333,0,0,0.26458333,10.283819,6.9490077)"><flowRegion
         id="flowRegion4700"><rect
           id="rect4702"
           width="703.06616"
           height="96.974625"
           x="111.11678"
           y="966.95618" /></flowRegion><flowPara
         id="flowPara4704"
         style="font-style:normal;font-variant:normal;font-weight:bold;font-stretch:normal;font-family:'Open Sans';-inkscape-font-specification:'Open Sans Bold'"><flowSpan
   style="font-style:normal;font-variant:normal;font-weight:normal;font-stretch:normal;font-family:'Open Sans';-inkscape-font-specification:'Open Sans'"
   id="flowSpan4708">More at </flowSpan>nhshackday.com</flowPara></flowRoot>    <text
       xml:space="preserve"
       style="font-style:normal;font-weight:normal;font-size:10.58333302px;line-height:1.25;font-family:sans-serif;letter-spacing:0px;word-spacing:0px;fill:#000000;fill-opacity:1;stroke:none;stroke-width:0.26458332"
       x="-255.50966"
       y="-77.177338"
       id="text4728"><tspan
         sodipodi:role="line"
         x="-255.50966"
         y="-67.521843"
         style="font-style:normal;font-variant:normal;font-weight:normal;font-stretch:normal;font-family:'Open Sans';-inkscape-font-specification:'Open Sans';stroke-width:0.26458332"
         id="tspan4730" /></text>
    <flowRoot
       xml:space="preserve"
       id="flowRoot4740"
       style="fill:black;fill-opacity:1;stroke:none;font-family:sans-serif;font-style:normal;font-weight:normal;font-size:40px;line-height:1.25;letter-spacing:0px;word-spacing:0px"><flowRegion
         id="flowRegion4742"><rect
           id="rect4744"
           width="1111.1678"
           height="460.62955"
           x="-1321.2795"
           y="-117.94764" /></flowRegion><flowPara
         id="flowPara4746" /></flowRoot>    <flowRoot
       xml:space="preserve"
       id="flowRoot4760"
       style="font-style:normal;font-weight:normal;font-size:32px;line-height:1.25;font-family:sans-serif;text-align:center;letter-spacing:0px;word-spacing:0px;text-anchor:middle;fill:#000000;fill-opacity:1;stroke:none"
       transform="matrix(0.26458333,0,0,0.26458333,434.25363,344.38811)"><flowRegion
         id="flowRegion4762"
         style="font-size:32px;text-align:center;text-anchor:middle"><rect
           id="rect4764"
           width="689.61725"
           height="119.63383"
           x="-1589.9801"
           y="-465.44012"
           style="font-size:32px;text-align:center;text-anchor:middle" /></flowRegion><flowPara
         id="flowPara4768"
         style="font-style:normal;font-variant:normal;font-weight:normal;font-stretch:normal;font-size:26.66666794px;font-family:'Open Sans';-inkscape-font-specification:'Open Sans';text-align:center;text-anchor:middle">A free &quot;hack day&quot; that brings together academics, carers, doctors, designers, developers, patients, policy people, and everyone interested in health and care.</flowPara></flowRoot>    <flowRoot
       xml:space="preserve"
       id="flowRoot4772"
       style="font-style:normal;font-weight:normal;font-size:40px;line-height:1.25;font-family:sans-serif;letter-spacing:0px;word-spacing:0px;fill:#000000;fill-opacity:1;stroke:none"
       transform="matrix(0.26458333,0,0,0.26458333,399.11279,35.28495)"><flowRegion
         id="flowRegion4774"><rect
           id="rect4776"
           width="991.96979"
           height="290.92392"
           x="-1345.5232"
           y="587.13885" /></flowRegion><flowPara
         id="flowPara4778"
         style="font-style:normal;font-variant:normal;font-weight:normal;font-stretch:normal;font-family:'Open Sans';-inkscape-font-specification:'Open Sans'">#nhshd | @NHSHackDay</flowPara></flowRoot>  </g>
</svg>
